  0
SECTION
  2
HEADER
  9
$ACADVER
  1
AC1014
  9
$ACADMAINTVER
 70
     9
  9
$DWGCODEPAGE
  3
ANSI_1252
  9
$INSBASE
 10
0.0
 20
0.0
 30
0.0
  9
$EXTMIN
 10
1.000000000000000E+20
 20
1.000000000000000E+20
 30
1.000000000000000E+20
  9
$EXTMAX
 10
-1.000000000000000E+20
 20
-1.000000000000000E+20
 30
-1.000000000000000E+20
  9
$LIMMIN
 10
0.0
 20
0.0
  9
$LIMMAX
 10
12.0
 20
9.0
  9
$ORTHOMODE
 70
     0
  9
$REGENMODE
 70
     1
  9
$FILLMODE
 70
     1
  9
$QTEXTMODE
 70
     0
  9
$MIRRTEXT
 70
     1
  9
$DRAGMODE
 70
     2
  9
$LTSCALE
 40
1.0
  9
$OSMODE
 70
    37
  9
$ATTMODE
 70
     1
  9
$TEXTSIZE
 40
0.2
  9
$TRACEWID
 40
0.05
  9
$TEXTSTYLE
  7
STANDARD
  9
$CLAYER
  8
0
  9
$CELTYPE
  6
BYLAYER
  9
$CECOLOR
 62
   256
  9
$CELTSCALE
 40
1.0
  9
$DELOBJ
 70
     1
  9
$DISPSILH
 70
     0
  9
$DIMSCALE
 40
1.0
  9
$DIMASZ
 40
0.18
  9
$DIMEXO
 40
0.0625
  9
$DIMDLI
 40
0.38
  9
$DIMRND
 40
0.0
  9
$DIMDLE
 40
0.0
  9
$DIMEXE
 40
0.18
  9
$DIMTP
 40
0.0
  9
$DIMTM
 40
0.0
  9
$DIMTXT
 40
0.18
  9
$DIMCEN
 40
0.09
  9
$DIMTSZ
 40
0.0
  9
$DIMTOL
 70
     0
  9
$DIMLIM
 70
     0
  9
$DIMTIH
 70
     1
  9
$DIMTOH
 70
     1
  9
$DIMSE1
 70
     0
  9
$DIMSE2
 70
     0
  9
$DIMTAD
 70
     0
  9
$DIMZIN
 70
     0
  9
$DIMBLK
  1

  9
$DIMASO
 70
     1
  9
$DIMSHO
 70
     1
  9
$DIMPOST
  1

  9
$DIMAPOST
  1

  9
$DIMALT
 70
     0
  9
$DIMALTD
 70
     2
  9
$DIMALTF
 40
25.4
  9
$DIMLFAC
 40
1.0
  9
$DIMTOFL
 70
     0
  9
$DIMTVP
 40
0.0
  9
$DIMTIX
 70
     0
  9
$DIMSOXD
 70
     0
  9
$DIMSAH
 70
     0
  9
$DIMBLK1
  1

  9
$DIMBLK2
  1

  9
$DIMSTYLE
  2
STANDARD
  9
$DIMCLRD
 70
     0
  9
$DIMCLRE
 70
     0
  9
$DIMCLRT
 70
     0
  9
$DIMTFAC
 40
1.0
  9
$DIMGAP
 40
0.09
  9
$DIMJUST
 70
     0
  9
$DIMSD1
 70
     0
  9
$DIMSD2
 70
     0
  9
$DIMTOLJ
 70
     1
  9
$DIMTZIN
 70
     0
  9
$DIMALTZ
 70
     0
  9
$DIMALTTZ
 70
     0
  9
$DIMFIT
 70
     3
  9
$DIMUPT
 70
     0
  9
$DIMUNIT
 70
     2
  9
$DIMDEC
 70
     4
  9
$DIMTDEC
 70
     4
  9
$DIMALTU
 70
     2
  9
$DIMALTTD
 70
     2
  9
$DIMTXSTY
  7
STANDARD
  9
$DIMAUNIT
 70
     0
  9
$LUNITS
 70
     2
  9
$LUPREC
 70
     4
  9
$SKETCHINC
 40
0.1
  9
$FILLETRAD
 40
0.5
  9
$AUNITS
 70
     0
  9
$AUPREC
 70
     0
  9
$MENU
  1
.
  9
$ELEVATION
 40
0.0
  9
$PELEVATION
 40
0.0
  9
$THICKNESS
 40
0.0
  9
$LIMCHECK
 70
     0
  9
$CHAMFERA
 40
0.0
  9
$CHAMFERB
 40
0.0
  9
$CHAMFERC
 40
0.0
  9
$CHAMFERD
 40
0.0
  9
$SKPOLY
 70
     0
  9
$TDCREATE
 40
2460396.922376123
  9
$TDUPDATE
 40
2460396.922376157
  9
$TDINDWG
 40
0.0000000116
  9
$TDUSRTIMER
 40
0.0000000116
  9
$USRTIMER
 70
     1
  9
$ANGBASE
 50
0.0
  9
$ANGDIR
 70
     0
  9
$PDMODE
 70
     0
  9
$PDSIZE
 40
0.0
  9
$PLINEWID
 40
0.0
  9
$COORDS
 70
     1
  9
$SPLFRAME
 70
     0
  9
$SPLINETYPE
 70
     6
  9
$SPLINESEGS
 70
     8
  9
$ATTDIA
 70
     0
  9
$ATTREQ
 70
     1
  9
$HANDLING
 70
     1
  9
$HANDSEED
  5
100002A9
  9
$SURFTAB1
 70
     6
  9
$SURFTAB2
 70
     6
  9
$SURFTYPE
 70
     6
  9
$SURFU
 70
     6
  9
$SURFV
 70
     6
  9
$UCSNAME
  2

  9
$UCSORG
 10
0.0
 20
0.0
 30
0.0
  9
$UCSXDIR
 10
1.0
 20
0.0
 30
0.0
  9
$UCSYDIR
 10
0.0
 20
1.0
 30
0.0
  9
$PUCSNAME
  2

  9
$PUCSORG
 10
0.0
 20
0.0
 30
0.0
  9
$PUCSXDIR
 10
1.0
 20
0.0
 30
0.0
  9
$PUCSYDIR
 10
0.0
 20
1.0
 30
0.0
  9
$USERI1
 70
     0
  9
$USERI2
 70
     0
  9
$USERI3
 70
     0
  9
$USERI4
 70
     0
  9
$USERI5
 70
     0
  9
$USERR1
 40
0.0
  9
$USERR2
 40
0.0
  9
$USERR3
 40
0.0
  9
$USERR4
 40
0.0
  9
$USERR5
 40
0.0
  9
$WORLDVIEW
 70
     1
  9
$SHADEDGE
 70
     3
  9
$SHADEDIF
 70
    70
  9
$TILEMODE
 70
     1
  9
$MAXACTVP
 70
    64
  9
$PINSBASE
 10
0.0
 20
0.0
 30
0.0
  9
$PLIMCHECK
 70
     0
  9
$PEXTMIN
 10
1.000000000000000E+20
 20
1.000000000000000E+20
 30
1.000000000000000E+20
  9
$PEXTMAX
 10
-1.000000000000000E+20
 20
-1.000000000000000E+20
 30
-1.000000000000000E+20
  9
$PLIMMIN
 10
0.0
 20
0.0
  9
$PLIMMAX
 10
12.0
 20
9.0
  9
$UNITMODE
 70
     0
  9
$VISRETAIN
 70
     1
  9
$PLINEGEN
 70
     0
  9
$PSLTSCALE
 70
     1
  9
$TREEDEPTH
 70
  3020
  9
$PICKSTYLE
 70
     1
  9
$CMLSTYLE
  2
STANDARD
  9
$CMLJUST
 70
     0
  9
$CMLSCALE
 40
1.0
  9
$PROXYGRAPHICS
 70
     1
  9
$MEASUREMENT
 70
     0
  0
ENDSEC
  0
SECTION
  2
CLASSES
  0
CLASS
  1
ACDBDICTIONARYWDFLT
  2
AcDbDictionaryWithDefault
  3
ObjectDBX Classes
 90
        0
280
     0
281
     0
  0
CLASS
  1
VISUALSTYLE
  2
AcDbVisualStyle
  3
ObjectDBX Classes
 90
     4095
280
     0
281
     0
  0
CLASS
  1
MATERIAL
  2
AcDbMaterial
  3
ObjectDBX Classes
 90
     1153
280
     0
281
     0
  0
CLASS
  1
SCALE
  2
AcDbScale
  3
ObjectDBX Classes
 90
     1153
280
     0
281
     0
  0
CLASS
  1
TABLESTYLE
  2
AcDbTableStyle
  3
ObjectDBX Classes
 90
     4095
280
     0
281
     0
  0
CLASS
  1
MLEADERSTYLE
  2
AcDbMLeaderStyle
  3
ACDB_MLEADERSTYLE_CLASS
 90
     4095
280
     0
281
     0
  0
CLASS
  1
SUN
  2
AcDbSun
  3
SCENEOE
 90
     1153
280
     0
281
     0
  0
CLASS
  1
SORTENTSTABLE
  2
AcDbSortentsTable
  3
ObjectDBX Classes
 90
        0
280
     0
281
     0
  0
CLASS
  1
DICTIONARYVAR
  2
AcDbDictionaryVar
  3
ObjectDBX Classes
 90
        0
280
     0
281
     0
  0
CLASS
  1
XRECORD
  2
AcDbXrecord
  3
ObjectDBX Classes
 90
        0
280
     0
281
     0
  0
CLASS
  1
LWPOLYLINE
  2
AcDbPolyline
  3
ObjectDBX Classes
 90
        0
280
     0
281
     1
  0
CLASS
  1
HATCH
  2
AcDbHatch
  3
ObjectDBX Classes
 90
        0
280
     0
281
     1
  0
CLASS
  1
ACDBPLACEHOLDER
  2
AcDbPlaceHolder
  3
ObjectDBX Classes
 90
        0
280
     0
281
     0
  0
CLASS
  1
LAYOUT
  2
AcDbLayout
  3
ObjectDBX Classes
 90
        0
280
     0
281
     0
  0
ENDSEC
  0
SECTION
  2
TABLES
  0
TABLE
  2
VPORT
  5
8
102
{ACAD_XDICTIONARY
360
1000029E
102
}
330
0
100
AcDbSymbolTable
 70
     1
  0
VPORT
  5
29
330
8
100
AcDbSymbolTableRecord
100
AcDbViewportTableRecord
  2
*ACTIVE
 70
     0
 10
0.0
 20
0.0
 11
1.0
 21
1.0
 12
10.42990654205607
 22
4.5
 13
0.0
 23
0.0
 14
0.5
 24
0.5
 15
0.5
 25
0.5
 16
0.0
 26
0.0
 36
1.0
 17
0.0
 27
0.0
 37
0.0
 40
9.0
 41
1.972972972850329
 42
50.0
 43
0.0
 44
0.0
 50
0.0
 51
0.0
 71
     0
 72
   100
 73
     1
 74
     3
 75
     0
 76
     0
 77
     0
 78
     0
  0
ENDTAB
  0
TABLE
  2
LTYPE
  5
5
330
0
100
AcDbSymbolTable
 70
     7
  0
LTYPE
  5
14
330
5
100
AcDbSymbolTableRecord
100
AcDbLinetypeTableRecord
  2
BYBLOCK
 70
     0
  3

 72
    65
 73
     0
 40
0.0
  0
LTYPE
  5
15
330
5
100
AcDbSymbolTableRecord
100
AcDbLinetypeTableRecord
  2
BYLAYER
 70
     0
  3

 72
    65
 73
     0
 40
0.0
  0
LTYPE
  5
16
330
5
100
AcDbSymbolTableRecord
100
AcDbLinetypeTableRecord
  2
CONTINUOUS
 70
     0
  3
Solid line
 72
    65
 73
     0
 40
0.0
  0
LTYPE
  5
10000024
330
5
100
AcDbSymbolTableRecord
100
AcDbLinetypeTableRecord
  2
ONS_PHANTOM
 70
     0
  3
Onshape Phantom line ______ __ __ ______
 72
    65
 73
     6
 40
0.4999999999999999
 49
0.25
 74
     0
 49
-0.05
 74
     0
 49
0.05
 74
     0
 49
-0.05
 74
     0
 49
0.05
 74
     0
 49
-0.05
 74
     0
  0
LTYPE
  5
10000025
330
5
100
AcDbSymbolTableRecord
100
AcDbLinetypeTableRecord
  2
CENTER
 70
     0
  3
Center line ____ _ ____ _ ____ _
 72
    65
 73
     4
 40
0.7199999999999999
 49
0.45
 74
     0
 49
-0.09
 74
     0
 49
0.09
 74
     0
 49
-0.09
 74
     0
  0
LTYPE
  5
10000026
330
5
100
AcDbSymbolTableRecord
100
AcDbLinetypeTableRecord
  2
DASHED
 70
     0
  3
Dashed line __ __ __ __ __
 72
    65
 73
     2
 40
0.75
 49
0.5
 74
     0
 49
-0.25
 74
     0
  0
LTYPE
  5
10000027
330
5
100
AcDbSymbolTableRecord
100
AcDbLinetypeTableRecord
  2
ONS_DASHDOT
 70
     0
  3
Onshape Dashed with Dot _ . ____ . ____
 72
    65
 73
     4
 40
0.71
 49
0.5
 74
     0
 49
-0.1
 74
     0
 49
0.01
 74
     0
 49
-0.1
 74
     0
  0
LTYPE
  5
10000028
330
5
100
AcDbSymbolTableRecord
100
AcDbLinetypeTableRecord
  2
ONS_DOTTED
 70
     0
  3
Onshape Dotted line . . . . . . .
 72
    65
 73
     2
 40
0.11
 49
0.01
 74
     0
 49
-0.1
 74
     0
  0
LTYPE
  5
10000029
330
5
100
AcDbSymbolTableRecord
100
AcDbLinetypeTableRecord
  2
HIDDEN
 70
     0
  3
Hidden line ____ ____ ____ ____ 
 72
    65
 73
     2
 40
0.15
 49
0.1
 74
     0
 49
-0.05
 74
     0
  0
ENDTAB
  0
TABLE
  2
LAYER
  5
2
330
0
100
AcDbSymbolTable
 70
    40
  0
LAYER
  5
10
330
2
100
AcDbSymbolTableRecord
100
AcDbLayerTableRecord
  2
0
 70
     0
 62
     7
  6
CONTINUOUS
  0
LAYER
  5
1000002A
330
2
100
AcDbSymbolTableRecord
100
AcDbLayerTableRecord
  2
SECTION_CUTTING_LINE
 70
     0
 62
     7
  6
ONS_PHANTOM
  0
LAYER
  5
1000002B
330
2
100
AcDbSymbolTableRecord
100
AcDbLayerTableRecord
  2
DETAIL_VIEW_BORDER
 70
     0
 62
     7
  6
CONTINUOUS
  0
LAYER
  5
1000002C
330
2
100
AcDbSymbolTableRecord
100
AcDbLayerTableRecord
  2
DETAIL_VIEW_PARENT_BORDER
 70
     0
 62
     7
  6
ONS_PHANTOM
  0
LAYER
  5
1000002D
330
2
100
AcDbSymbolTableRecord
100
AcDbLayerTableRecord
  2
TEXT
 70
     0
 62
     7
  6
CONTINUOUS
  0
LAYER
  5
1000002E
330
2
100
AcDbSymbolTableRecord
100
AcDbLayerTableRecord
  2
SKETCHED_GEOMETRY
 70
     0
 62
    -7
  6
CONTINUOUS
  0
LAYER
  5
1000002F
330
2
100
AcDbSymbolTableRecord
100
AcDbLayerTableRecord
  2
VIRTUAL_SHARPS
 70
     0
 62
    -7
  6
CONTINUOUS
  0
LAYER
  5
10000030
330
2
100
AcDbSymbolTableRecord
100
AcDbLayerTableRecord
  2
CENTERLINES
 70
     0
 62
    -7
  6
CENTER
  0
LAYER
  5
10000031
330
2
100
AcDbSymbolTableRecord
100
AcDbLayerTableRecord
  2
CENTERMARKS
 70
     0
 62
    -7
  6
CONTINUOUS
  0
LAYER
  5
10000032
330
2
100
AcDbSymbolTableRecord
100
AcDbLayerTableRecord
  2
TABLES
 70
     0
 62
     7
  6
CONTINUOUS
  0
LAYER
  5
10000033
330
2
100
AcDbSymbolTableRecord
100
AcDbLayerTableRecord
  2
IMAGES
 70
     0
 62
    -7
  6
CONTINUOUS
  0
LAYER
  5
10000034
330
2
100
AcDbSymbolTableRecord
100
AcDbLayerTableRecord
  2
ANNOTATION_LINES
 70
     0
 62
    -7
  6
CONTINUOUS
  0
LAYER
  5
10000035
330
2
100
AcDbSymbolTableRecord
100
AcDbLayerTableRecord
  2
ANNOTATION_TEXT
 70
     0
 62
    -7
  6
CONTINUOUS
  0
LAYER
  5
10000036
330
2
100
AcDbSymbolTableRecord
100
AcDbLayerTableRecord
  2
SIDE_THREAD_SYMBOLS
 70
     0
 62
     7
  6
HIDDEN
  0
LAYER
  5
10000037
330
2
100
AcDbSymbolTableRecord
100
AcDbLayerTableRecord
  2
SIDE_THREAD_SYMBOLS_HIDDEN
 70
     0
 62
    -7
  6
HIDDEN
  0
LAYER
  5
10000038
330
2
100
AcDbSymbolTableRecord
100
AcDbLayerTableRecord
  2
SURFACE_THREAD_SYMBOLS
 70
     0
 62
     7
  6
HIDDEN
  0
LAYER
  5
10000039
330
2
100
AcDbSymbolTableRecord
100
AcDbLayerTableRecord
  2
SURFACE_THREAD_SYMBOLS_ON_
 70
     0
 62
     7
  6
HIDDEN
  0
LAYER
  5
1000003A
330
2
100
AcDbSymbolTableRecord
100
AcDbLayerTableRecord
  2
SURFACE_THREAD_SYMBOLS_HID
 70
     0
 62
    -7
  6
HIDDEN
  0
LAYER
  5
1000003B
330
2
100
AcDbSymbolTableRecord
100
AcDbLayerTableRecord
  2
BLIND_THREAD_SYMBOLS
 70
     0
 62
     7
  6
CONTINUOUS
  0
LAYER
  5
1000003C
330
2
100
AcDbSymbolTableRecord
100
AcDbLayerTableRecord
  2
BLIND_THREAD_SYMBOLS_HIDDE
 70
     0
 62
    -7
  6
HIDDEN
  0
LAYER
  5
1000003D
330
2
100
AcDbSymbolTableRecord
100
AcDbLayerTableRecord
  2
EXPLODE_LINES
 70
     0
 62
     7
  6
ONS_PHANTOM
  0
LAYER
  5
1000003E
330
2
100
AcDbSymbolTableRecord
100
AcDbLayerTableRecord
  2
HIDDEN_EXPLODE_LINES
 70
     0
 62
    -7
  6
ONS_PHANTOM
  0
LAYER
  5
1000003F
330
2
100
AcDbSymbolTableRecord
100
AcDbLayerTableRecord
  2
BREAK_LINES
 70
     0
 62
    -7
  6
CONTINUOUS
  0
LAYER
  5
10000040
330
2
100
AcDbSymbolTableRecord
100
AcDbLayerTableRecord
  2
SHEETMETAL_BEND_LINES_UP
 70
     0
 62
     7
  6
CENTER
  0
LAYER
  5
10000041
330
2
100
AcDbSymbolTableRecord
100
AcDbLayerTableRecord
  2
SHEETMETAL_BEND_LINES_DOWN
 70
     0
 62
     7
  6
CENTER
  0
LAYER
  5
10000042
330
2
100
AcDbSymbolTableRecord
100
AcDbLayerTableRecord
  2
SHEETMETAL_BEND_TANGENT_LI
 70
     0
 62
     7
  6
CONTINUOUS
  0
LAYER
  5
10000043
330
2
100
AcDbSymbolTableRecord
100
AcDbLayerTableRecord
  2
SHEETMETAL_CUT_LINES
 70
     0
 62
     7
  6
CONTINUOUS
  0
LAYER
  5
10000044
330
2
100
AcDbSymbolTableRecord
100
AcDbLayerTableRecord
  2
REGION_ASSOC_POINTS
 70
     0
 62
    -7
  6
CONTINUOUS
  0
LAYER
  5
10000045
330
2
100
AcDbSymbolTableRecord
100
AcDbLayerTableRecord
  2
PATTERN_CENTERLINES
 70
     1
 62
    -7
  6
CENTER
  0
LAYER
  5
10000046
330
2
100
AcDbSymbolTableRecord
100
AcDbLayerTableRecord
  2
HIDDEN
 70
     0
 62
    -7
  6
HIDDEN
  0
LAYER
  5
10000047
330
2
100
AcDbSymbolTableRecord
100
AcDbLayerTableRecord
  2
VISIBLE
 70
     0
 62
     7
  6
CONTINUOUS
  0
LAYER
  5
10000048
330
2
100
AcDbSymbolTableRecord
100
AcDbLayerTableRecord
  2
MODELSKETCH_VISIBLE
 70
     0
 62
     7
  6
CONTINUOUS
  0
LAYER
  5
10000049
330
2
100
AcDbSymbolTableRecord
100
AcDbLayerTableRecord
  2
MODELSKETCH_POINT
 70
     0
 62
     7
  6
CONTINUOUS
  0
LAYER
  5
1000004A
330
2
100
AcDbSymbolTableRecord
100
AcDbLayerTableRecord
  2
MODELSKETCH_CONSTRUCTION
 70
     0
 62
    -7
  6
CENTER
  0
LAYER
  5
1000004B
330
2
100
AcDbSymbolTableRecord
100
AcDbLayerTableRecord
  2
HIDDEN_BASE_VIEW
 70
     0
 62
     7
  6
CONTINUOUS
  0
LAYER
  5
1000004C
330
2
100
AcDbSymbolTableRecord
100
AcDbLayerTableRecord
  2
TANGENT_LINES
 70
     0
 62
    -7
  6
CONTINUOUS
  0
LAYER
  5
1000004D
330
2
100
AcDbSymbolTableRecord
100
AcDbLayerTableRecord
  2
TANGENT_HIDDEN
 70
     0
 62
    -7
  6
HIDDEN
  0
LAYER
  5
1000004E
330
2
100
AcDbSymbolTableRecord
100
AcDbLayerTableRecord
  2
INVISIBLE_LINES
 70
     0
 62
    -7
  6
CONTINUOUS
  0
LAYER
  5
1000004F
330
2
100
AcDbSymbolTableRecord
100
AcDbLayerTableRecord
  2
VIEW_HATCHES
 70
     0
 62
    -7
  6
CONTINUOUS
  0
LAYER
  5
10000050
330
2
100
AcDbSymbolTableRecord
100
AcDbLayerTableRecord
  2
SECTION_JOG_LINES
 70
     0
 62
    -7
  6
CONTINUOUS
  0
ENDTAB
  0
TABLE
  2
STYLE
  5
3
330
0
100
AcDbSymbolTable
 70
     2
  0
STYLE
  5
11
330
3
100
AcDbSymbolTableRecord
100
AcDbTextStyleTableRecord
  2
STANDARD
 70
     0
 40
0.0
 41
1.0
 50
0.0
 71
     0
 42
0.2
  3
txt
  4

  0
STYLE
  5
10000004
330
3
100
AcDbSymbolTableRecord
100
AcDbTextStyleTableRecord
  2
TTFSTYLE
 70
     0
 40
0.0
 41
1.0
 50
0.0
 71
     0
 42
0.2
  3
Verdana.ttf
  4

1001
ACAD
1000
Verdana
1071
       34
  0
ENDTAB
  0
TABLE
  2
VIEW
  5
6
330
0
100
AcDbSymbolTable
 70
     0
  0
ENDTAB
  0
TABLE
  2
UCS
  5
7
330
0
100
AcDbSymbolTable
 70
     0
  0
ENDTAB
  0
TABLE
  2
APPID
  5
9
330
0
100
AcDbSymbolTable
 70
     2
  0
APPID
  5
12
330
9
100
AcDbSymbolTableRecord
100
AcDbRegAppTableRecord
  2
ACAD
 70
     0
  0
APPID
  5
100002A8
330
9
100
AcDbSymbolTableRecord
100
AcDbRegAppTableRecord
  2
ACAD_MLEADERVER
 70
     0
  0
ENDTAB
  0
TABLE
  2
DIMSTYLE
  5
A
330
0
100
AcDbSymbolTable
 70
     1
  0
DIMSTYLE
105
27
330
A
100
AcDbSymbolTableRecord
100
AcDbDimStyleTableRecord
  2
STANDARD
 70
     0
  3

  4

  5

  6

  7

 40
1.0
 41
0.18
 42
0.0625
 43
0.38
 44
0.18
 45
0.0
 46
0.0
 47
0.0
 48
0.0
140
0.18
141
0.09
142
0.0
143
25.4
144
1.0
145
0.0
146
1.0
147
0.09
 71
     0
 72
     0
 73
     1
 74
     1
 75
     0
 76
     0
 77
     0
 78
     0
170
     0
171
     2
172
     0
173
     0
174
     0
175
     0
176
     0
177
     0
178
     0
270
     2
271
     4
272
     4
273
     2
274
     2
340
11
275
     0
280
     0
281
     0
282
     0
283
     1
284
     0
285
     0
286
     0
287
     3
288
     0
  0
ENDTAB
  0
TABLE
  2
BLOCK_RECORD
  5
1
330
0
100
AcDbSymbolTable
 70
     0
  0
BLOCK_RECORD
  5
1F
102
{ACAD_XDICTIONARY
360
10000273
102
}
330
1
100
AcDbSymbolTableRecord
100
AcDbBlockTableRecord
  2
*MODEL_SPACE
  0
BLOCK_RECORD
  5
1B
330
1
100
AcDbSymbolTableRecord
100
AcDbBlockTableRecord
  2
*PAPER_SPACE
  0
ENDTAB
  0
ENDSEC
  0
SECTION
  2
BLOCKS
  0
BLOCK
  5
20
330
1F
100
AcDbEntity
  8
0
100
AcDbBlockBegin
  2
*MODEL_SPACE
 70
     0
 10
0.0
 20
0.0
 30
0.0
  3
*MODEL_SPACE
  1

  0
ENDBLK
  5
21
330
1F
100
AcDbEntity
  8
0
100
AcDbBlockEnd
  0
BLOCK
  5
1C
330
1B
100
AcDbEntity
 67
     1
  8
0
100
AcDbBlockBegin
  2
*PAPER_SPACE
 70
     0
 10
0.0
 20
0.0
 30
0.0
  3
*PAPER_SPACE
  1

  0
ENDBLK
  5
1D
330
1B
100
AcDbEntity
 67
     1
  8
0
100
AcDbBlockEnd
  0
ENDSEC
  0
SECTION
  2
ENTITIES
  0
LINE
  5
10000051
102
{ACAD_XDICTIONARY
360
10000052
102
}
330
1F
100
AcDbEntity
  8
VISIBLE
100
AcDbLine
 10
-6.084765468154249
 20
-2.022662699311948
 30
0.0
 11
-6.084765468154249
 21
2.79076909512469
 31
0.0
  0
SPLINE
  5
10000054
102
{ACAD_XDICTIONARY
360
10000055
102
}
330
1F
100
AcDbEntity
  8
VISIBLE
100
AcDbSpline
210
0.0
220
0.0
230
1.0
 70
    12
 71
     3
 72
     8
 73
     4
 74
     0
 42
0.000000001
 43
0.00000001
 40
0.0
 40
0.0
 40
0.0
 40
0.0
 40
1.0
 40
1.0
 40
1.0
 40
1.0
 10
-6.084765468154246
 20
2.79076909512469
 30
0.0
 41
1.0
 10
-6.084765468154246
 20
2.849012753992274
 30
0.0
 41
0.7091009856932002
 10
-6.030218979418584
 20
2.881841878428555
 30
0.0
 41
0.7091009856932002
 10
-5.968728561368566
 20
2.860606588616325
 30
0.0
 41
1.0
  0
SPLINE
  5
10000057
102
{ACAD_XDICTIONARY
360
10000058
102
}
330
1F
100
AcDbEntity
  8
VISIBLE
100
AcDbSpline
210
0.0
220
0.0
230
1.0
 70
    12
 71
     3
 72
     8
 73
     4
 74
     0
 42
0.000000001
 43
0.00000001
 40
0.0
 40
0.0
 40
0.0
 40
0.0
 40
1.0
 40
1.0
 40
1.0
 40
1.0
 10
-5.968728561368575
 20
2.860606588616327
 30
0.0
 41
1.0
 10
-5.794370414058762
 20
2.800393210554148
 30
0.0
 41
0.9999011138522473
 10
-5.6188623204836
 20
2.742837404798016
 30
0.0
 41
0.9999011138522473
 10
-5.442256346600908
 20
2.687956245763667
 30
0.0
 41
1.0
  0
SPLINE
  5
1000005A
102
{ACAD_XDICTIONARY
360
1000005B
102
}
330
1F
100
AcDbEntity
  8
VISIBLE
100
AcDbSpline
210
0.0
220
0.0
230
1.0
 70
    12
 71
     3
 72
     8
 73
     4
 74
     0
 42
0.000000001
 43
0.00000001
 40
0.0
 40
0.0
 40
0.0
 40
0.0
 40
1.0
 40
1.0
 40
1.0
 40
1.0
 10
-5.4422563466009
 20
2.687956245763668
 30
0.0
 41
1.0
 10
-5.40704841826961
 20
2.677015212051509
 30
0.0
 41
0.8774548999426728
 10
-5.385479752679745
 20
2.650142856941224
 30
0.0
 41
0.8774548999426728
 10
-5.385479752679745
 20
2.617218406770112
 30
0.0
 41
1.0
  0
LINE
  5
1000005D
102
{ACAD_XDICTIONARY
360
1000005E
102
}
330
1F
100
AcDbEntity
  8
VISIBLE
100
AcDbLine
 10
-5.385479752679746
 20
-2.022662699311943
 30
0.0
 11
-5.385479752679746
 21
2.617218406770112
 31
0.0
  0
LINE
  5
10000060
102
{ACAD_XDICTIONARY
360
10000061
102
}
330
1F
100
AcDbEntity
  8
VISIBLE
100
AcDbLine
 10
-6.084765468154249
 20
-2.022662699311948
 30
0.0
 11
-5.385479752679746
 21
-2.022662699311943
 31
0.0
  0
LINE
  5
10000063
102
{ACAD_XDICTIONARY
360
10000064
102
}
330
1F
100
AcDbEntity
  8
VISIBLE
100
AcDbLine
 10
-7.283540980396238
 20
-2.022662699311948
 30
0.0
 11
-7.283540980396238
 21
3.254258724866539
 31
0.0
  0
SPLINE
  5
10000066
102
{ACAD_XDICTIONARY
360
10000067
102
}
330
1F
100
AcDbEntity
  8
VISIBLE
100
AcDbSpline
210
0.0
220
0.0
230
1.0
 70
    12
 71
     3
 72
     8
 73
     4
 74
     0
 42
0.000000001
 43
0.00000001
 40
0.0
 40
0.0
 40
0.0
 40
0.0
 40
1.0
 40
1.0
 40
1.0
 40
1.0
 10
-7.283540980396237
 20
3.254258724866539
 30
0.0
 41
1.0
 10
-7.283540980396238
 20
3.315982727521408
 30
0.0
 41
0.6868145951042646
 10
-7.224206234155641
 20
3.348710145031401
 30
0.0
 41
0.6868145951042646
 10
-7.16128507125169
 20
3.321691728884342
 30
0.0
 41
1.0
  0
SPLINE
  5
10000069
102
{ACAD_XDICTIONARY
360
1000006A
102
}
330
1F
100
AcDbEntity
  8
VISIBLE
100
AcDbSpline
210
0.0
220
0.0
230
1.0
 70
    12
 71
     3
 72
     8
 73
     4
 74
     0
 42
0.000000001
 43
0.00000001
 40
0.0
 40
0.0
 40
0.0
 40
0.0
 40
1.0
 40
1.0
 40
1.0
 40
1.0
 10
-7.161285071251699
 20
3.321691728884342
 30
0.0
 41
1.0
 10
-6.987256612111825
 20
3.246963718252207
 30
0.0
 41
0.9998943376873968
 10
-6.811747329139212
 20
3.174980253893071
 30
0.0
 41
0.9998943376873968
 10
-6.634812856484024
 20
3.10576415362487
 30
0.0
 41
1.0
  0
SPLINE
  5
1000006C
102
{ACAD_XDICTIONARY
360
1000006D
102
}
330
1F
100
AcDbEntity
  8
VISIBLE
100
AcDbSpline
210
0.0
220
0.0
230
1.0
 70
    12
 71
     3
 72
     8
 73
     4
 74
     0
 42
0.000000001
 43
0.00000001
 40
0.0
 40
0.0
 40
0.0
 40
0.0
 40
1.0
 40
1.0
 40
1.0
 40
1.0
 10
-6.634812856484026
 20
3.105764153624873
 30
0.0
 41
1.0
 10
-6.603144216118467
 20
3.09337550061675
 30
0.0
 41
0.8921898492533687
 10
-6.58425526492174
 20
3.067760984521775
 30
0.0
 41
0.8921898492533687
 10
-6.584255264921741
 20
3.037205119864451
 30
0.0
 41
1.0
  0
LINE
  5
1000006F
102
{ACAD_XDICTIONARY
360
10000070
102
}
330
1F
100
AcDbEntity
  8
VISIBLE
100
AcDbLine
 10
-6.584255264921744
 20
-2.022662699311943
 30
0.0
 11
-6.584255264921744
 21
3.037205119864451
 31
0.0
  0
LINE
  5
10000072
102
{ACAD_XDICTIONARY
360
10000073
102
}
330
1F
100
AcDbEntity
  8
VISIBLE
100
AcDbLine
 10
-7.283540980396238
 20
-2.022662699311948
 30
0.0
 11
-6.584255264921744
 21
-2.022662699311943
 31
0.0
  0
LINE
  5
10000075
102
{ACAD_XDICTIONARY
360
10000076
102
}
330
1F
100
AcDbEntity
  8
VISIBLE
100
AcDbLine
 10
4.904010060717021
 20
-2.022662699311943
 30
0.0
 11
5.60329577619152
 21
-2.022662699311948
 31
0.0
  0
LINE
  5
10000078
102
{ACAD_XDICTIONARY
360
10000079
102
}
330
1F
100
AcDbEntity
  8
VISIBLE
100
AcDbLine
 10
4.904010060717021
 20
-2.022662699311943
 30
0.0
 11
4.904010060717028
 21
2.289621848546706
 31
0.0
  0
SPLINE
  5
1000007B
102
{ACAD_XDICTIONARY
360
1000007C
102
}
330
1F
100
AcDbEntity
  8
VISIBLE
100
AcDbSpline
210
0.0
220
0.0
230
1.0
 70
    12
 71
     3
 72
     8
 73
     4
 74
     0
 42
0.000000001
 43
0.00000001
 40
0.0
 40
0.0
 40
0.0
 40
0.0
 40
1.0
 40
1.0
 40
1.0
 40
1.0
 10
4.904010060717027
 20
2.289621848546706
 30
0.0
 41
1.0
 10
4.904010060717028
 20
2.324911755374982
 30
0.0
 41
0.8623096589968942
 10
4.928361558898978
 20
2.352913043245529
 30
0.0
 41
0.8623096589968942
 10
4.967005656997049
 20
2.36205919153208
 30
0.0
 41
1.0
  0
SPLINE
  5
1000007E
102
{ACAD_XDICTIONARY
360
1000007F
102
}
330
1F
100
AcDbEntity
  8
VISIBLE
100
AcDbSpline
210
0.0
220
0.0
230
1.0
 70
    12
 71
     3
 72
     8
 73
     4
 74
     0
 42
0.000000001
 43
0.00000001
 40
0.0
 40
0.0
 40
0.0
 40
0.0
 40
1.0
 40
1.0
 40
1.0
 40
1.0
 10
5.493477871764704
 20
2.495060863884355
 30
0.0
 41
1.0
 10
5.318839541701779
 20
2.448129616902769
 30
0.0
 41
0.999905996984206
 10
5.143332305236375
 20
2.403791558207446
 30
0.0
 41
0.999905996984206
 10
4.967005656997055
 20
2.362059191532081
 30
0.0
 41
1.0
  0
SPLINE
  5
10000081
102
{ACAD_XDICTIONARY
360
10000082
102
}
330
1F
100
AcDbEntity
  8
VISIBLE
100
AcDbSpline
210
0.0
220
0.0
230
1.0
 70
    12
 71
     3
 72
     8
 73
     4
 74
     0
 42
0.000000001
 43
0.00000001
 40
0.0
 40
0.0
 40
0.0
 40
0.0
 40
1.0
 40
1.0
 40
1.0
 40
1.0
 10
5.493477871764707
 20
2.495060863884358
 30
0.0
 41
1.0
 10
5.553160067070121
 20
2.511099495536828
 30
0.0
 41
0.7301376361035109
 10
5.603295776191519
 20
2.478345963520647
 30
0.0
 41
0.7301376361035109
 10
5.60329577619152
 20
2.423317104563353
 30
0.0
 41
1.0
  0
LINE
  5
10000084
102
{ACAD_XDICTIONARY
360
10000085
102
}
330
1F
100
AcDbEntity
  8
VISIBLE
100
AcDbLine
 10
5.60329577619152
 20
-2.022662699311948
 30
0.0
 11
5.60329577619152
 21
2.423317104563353
 31
0.0
  0
LINE
  5
10000087
102
{ACAD_XDICTIONARY
360
10000088
102
}
330
1F
100
AcDbEntity
  8
VISIBLE
100
AcDbLine
 10
4.404520263949519
 20
-2.022662699311948
 30
0.0
 11
4.404520263949526
 21
2.144396804455267
 31
0.0
  0
LINE
  5
1000008A
102
{ACAD_XDICTIONARY
360
1000008B
102
}
330
1F
100
AcDbEntity
  8
VISIBLE
100
AcDbLine
 10
3.705234548475026
 20
-2.022662699311948
 30
0.0
 11
4.404520263949519
 21
-2.022662699311948
 31
0.0
  0
LINE
  5
1000008D
102
{ACAD_XDICTIONARY
360
1000008E
102
}
330
1F
100
AcDbEntity
  8
VISIBLE
100
AcDbLine
 10
3.705234548475026
 20
-2.022662699311948
 30
0.0
 11
3.705234548475027
 21
2.048021717729891
 31
0.0
  0
SPLINE
  5
10000090
102
{ACAD_XDICTIONARY
360
10000091
102
}
330
1F
100
AcDbEntity
  8
VISIBLE
100
AcDbSpline
210
0.0
220
0.0
230
1.0
 70
    12
 71
     3
 72
     8
 73
     4
 74
     0
 42
0.000000001
 43
0.00000001
 40
0.0
 40
0.0
 40
0.0
 40
0.0
 40
1.0
 40
1.0
 40
1.0
 40
1.0
 10
3.705234548475025
 20
2.048021717729891
 30
0.0
 41
1.0
 10
3.705234548475026
 20
2.085693730226613
 30
0.0
 41
0.8467178159344784
 10
3.732482744326635
 20
2.114704070192874
 30
0.0
 41
0.8467178159344784
 10
3.774449147113915
 20
2.121712432817138
 30
0.0
 41
1.0
  0
SPLINE
  5
10000093
102
{ACAD_XDICTIONARY
360
10000094
102
}
330
1F
100
AcDbEntity
  8
VISIBLE
100
AcDbSpline
210
0.0
220
0.0
230
1.0
 70
    12
 71
     3
 72
     8
 73
     4
 74
     0
 42
0.000000001
 43
0.00000001
 40
0.0
 40
0.0
 40
0.0
 40
0.0
 40
1.0
 40
1.0
 40
1.0
 40
1.0
 10
4.30092136188158
 20
2.217587545289148
 30
0.0
 41
1.0
 10
4.126035903442759
 20
2.183078967064421
 30
0.0
 41
0.9999094209255448
 10
3.950529267958271
 20
2.15111770121854
 30
0.0
 41
0.9999094209255448
 10
3.774449147113924
 20
2.121712432817137
 30
0.0
 41
1.0
  0
SPLINE
  5
10000096
102
{ACAD_XDICTIONARY
360
10000097
102
}
330
1F
100
AcDbEntity
  8
VISIBLE
100
AcDbSpline
210
0.0
220
0.0
230
1.0
 70
    12
 71
     3
 72
     8
 73
     4
 74
     0
 42
0.000000001
 43
0.00000001
 40
0.0
 40
0.0
 40
0.0
 40
0.0
 40
1.0
 40
1.0
 40
1.0
 40
1.0
 10
4.300921361881581
 20
2.217587545289153
 30
0.0
 41
1.0
 10
4.358483294543728
 20
2.228945724944398
 30
0.0
 41
0.7501138281190274
 10
4.404520263949525
 20
2.196421443033115
 30
0.0
 41
0.7501138281190274
 10
4.404520263949525
 20
2.144396804455267
 30
0.0
 41
1.0
  0
SPLINE
  5
10000099
102
{ACAD_XDICTIONARY
360
1000009A
102
}
330
1F
100
AcDbEntity
  8
VISIBLE
100
AcDbSpline
210
0.0
220
0.0
230
1.0
 70
    12
 71
     3
 72
     8
 73
     4
 74
     0
 42
0.000000001
 43
0.00000001
 40
0.0
 40
0.0
 40
0.0
 40
0.0
 40
1.0
 40
1.0
 40
1.0
 40
1.0
 10
10.26370391130409
 20
4.57800852231146
 30
0.0
 41
1.0
 10
10.09060002420008
 20
4.468167522675984
 30
0.0
 41
0.9998717506286077
 10
9.915086776478201
 20
4.361342280811876
 30
0.0
 41
0.9998717506286077
 10
9.737231696529541
 20
4.25757389752949
 30
0.0
 41
1.0
  0
SPLINE
  5
1000009C
102
{ACAD_XDICTIONARY
360
1000009D
102
}
330
1F
100
AcDbEntity
  8
VISIBLE
100
AcDbSpline
210
0.0
220
0.0
230
1.0
 70
    12
 71
     3
 72
     8
 73
     4
 74
     0
 42
0.000000001
 43
0.00000001
 40
0.0
 40
0.0
 40
0.0
 40
0.0
 40
1.0
 40
1.0
 40
1.0
 40
1.0
 10
10.26370391130408
 20
4.578008522311457
 30
0.0
 41
1.0
 10
10.32795637073522
 20
4.618779151388742
 30
0.0
 41
0.6373799582929239
 10
10.3983978251664
 20
4.58693969121363
 30
0.0
 41
0.6373799582929239
 10
10.3983978251664
 20
4.517127020916011
 30
0.0
 41
1.0
  0
LINE
  5
1000009F
102
{ACAD_XDICTIONARY
360
100000A0
102
}
330
1F
100
AcDbEntity
  8
VISIBLE
100
AcDbLine
 10
10.39839782516641
 20
-2.022662699311943
 30
0.0
 11
10.3983978251664
 21
4.517127020916011
 31
0.0
  0
LINE
  5
100000A2
102
{ACAD_XDICTIONARY
360
100000A3
102
}
330
1F
100
AcDbEntity
  8
VISIBLE
100
AcDbLine
 10
9.699112109684995
 20
-2.022662699311943
 30
0.0
 11
10.39839782516641
 21
-2.022662699311943
 31
0.0
  0
LINE
  5
100000A5
102
{ACAD_XDICTIONARY
360
100000A6
102
}
330
1F
100
AcDbEntity
  8
VISIBLE
100
AcDbLine
 10
9.699112109684995
 20
-2.022662699311943
 30
0.0
 11
9.699112109684988
 21
4.195021377888058
 31
0.0
  0
SPLINE
  5
100000A8
102
{ACAD_XDICTIONARY
360
100000A9
102
}
330
1F
100
AcDbEntity
  8
VISIBLE
100
AcDbSpline
210
0.0
220
0.0
230
1.0
 70
    12
 71
     3
 72
     8
 73
     4
 74
     0
 42
0.000000001
 43
0.00000001
 40
0.0
 40
0.0
 40
0.0
 40
0.0
 40
1.0
 40
1.0
 40
1.0
 40
1.0
 10
9.699112109684988
 20
4.195021377888058
 30
0.0
 41
1.0
 10
9.699112109684988
 20
4.220736265843992
 30
0.0
 41
0.9205515701584869
 10
9.712915278741551
 20
4.243386642592452
 30
0.0
 41
0.9205515701584869
 10
9.737231696529536
 20
4.257573897529487
 30
0.0
 41
1.0
  0
LINE
  5
100000AB
102
{ACAD_XDICTIONARY
360
100000AC
102
}
330
1F
100
AcDbEntity
  8
VISIBLE
100
AcDbLine
 10
10.897887621934
 20
-2.022662699311943
 30
0.0
 11
10.8978876219339
 21
4.965407465424371
 31
0.0
  0
SPLINE
  5
100000AE
102
{ACAD_XDICTIONARY
360
100000AF
102
}
330
1F
100
AcDbEntity
  8
VISIBLE
100
AcDbSpline
210
0.0
220
0.0
230
1.0
 70
    12
 71
     3
 72
     8
 73
     4
 74
     0
 42
0.000000001
 43
0.00000001
 40
0.0
 40
0.0
 40
0.0
 40
0.0
 40
1.0
 40
1.0
 40
1.0
 40
1.0
 10
10.8978876219339
 20
4.965407465424371
 30
0.0
 41
1.0
 10
10.8978876219339
 20
4.988586955424095
 30
0.0
 41
0.9342306488515615
 10
10.90926974494062
 20
5.009479695397969
 30
0.0
 41
0.9342306488515615
 10
10.92978820641954
 20
5.02396337949061
 30
0.0
 41
1.0
  0
SPLINE
  5
100000B1
102
{ACAD_XDICTIONARY
360
100000B2
102
}
330
1F
100
AcDbEntity
  8
VISIBLE
100
AcDbSpline
210
0.0
220
0.0
230
1.0
 70
    12
 71
     3
 72
     8
 73
     4
 74
     0
 42
0.000000001
 43
0.00000001
 40
0.0
 40
0.0
 40
0.0
 40
0.0
 40
1.0
 40
1.0
 40
1.0
 40
1.0
 10
11.45626042117891
 20
5.411894930463655
 30
0.0
 41
1.0
 10
11.28386713647137
 20
5.279337510261845
 30
0.0
 41
0.9998524837492389
 10
11.10835050666307
 20
5.150007915053832
 30
0.0
 41
0.9998524837492389
 10
10.92978820641954
 20
5.023963379490608
 30
0.0
 41
1.0
  0
SPLINE
  5
100000B4
102
{ACAD_XDICTIONARY
360
100000B5
102
}
330
1F
100
AcDbEntity
  8
VISIBLE
100
AcDbSpline
210
0.0
220
0.0
230
1.0
 70
    12
 71
     3
 72
     8
 73
     4
 74
     0
 42
0.000000001
 43
0.00000001
 40
0.0
 40
0.0
 40
0.0
 40
0.0
 40
1.0
 40
1.0
 40
1.0
 40
1.0
 10
11.45626042117891
 20
5.411894930463657
 30
0.0
 41
1.0
 10
11.52009116906448
 20
5.460975956349425
 30
0.0
 41
0.6093623608151314
 10
11.59717333740005
 20
5.430051330235209
 30
0.0
 41
0.6093623608151314
 10
11.59717333740006
 20
5.355362020934803
 30
0.0
 41
1.0
  0
LINE
  5
100000B7
102
{ACAD_XDICTIONARY
360
100000B8
102
}
330
1F
100
AcDbEntity
  8
VISIBLE
100
AcDbLine
 10
11.59717333740006
 20
-2.022662699311943
 30
0.0
 11
11.59717333740006
 21
5.355362020934803
 31
0.0
  0
LINE
  5
100000BA
102
{ACAD_XDICTIONARY
360
100000BB
102
}
330
1F
100
AcDbEntity
  8
VISIBLE
100
AcDbLine
 10
10.897887621934
 20
-2.022662699311943
 30
0.0
 11
11.59717333740006
 21
-2.022662699311943
 31
0.0
  0
LINE
  5
100000BD
102
{ACAD_XDICTIONARY
360
100000BE
102
}
330
1F
100
AcDbEntity
  8
VISIBLE
100
AcDbLine
 10
-8.482316492638232
 20
-2.022662699311948
 30
0.0
 11
-8.482316492638226
 21
3.824526123345871
 31
0.0
  0
SPLINE
  5
100000C0
102
{ACAD_XDICTIONARY
360
100000C1
102
}
330
1F
100
AcDbEntity
  8
VISIBLE
100
AcDbSpline
210
0.0
220
0.0
230
1.0
 70
    12
 71
     3
 72
     8
 73
     4
 74
     0
 42
0.000000001
 43
0.00000001
 40
0.0
 40
0.0
 40
0.0
 40
0.0
 40
1.0
 40
1.0
 40
1.0
 40
1.0
 10
-8.482316492638223
 20
3.824526123345871
 30
0.0
 41
1.0
 10
-8.482316492638223
 20
3.890070863445082
 30
0.0
 41
0.6630251231708846
 10
-8.417726224480164
 20
3.922485207461701
 30
0.0
 41
0.6630251231708846
 10
-8.353841581134809
 20
3.889000696648238
 30
0.0
 41
1.0
  0
SPLINE
  5
100000C3
102
{ACAD_XDICTIONARY
360
100000C4
102
}
330
1F
100
AcDbEntity
  8
VISIBLE
100
AcDbSpline
210
0.0
220
0.0
230
1.0
 70
    12
 71
     3
 72
     8
 73
     4
 74
     0
 42
0.000000001
 43
0.00000001
 40
0.0
 40
0.0
 40
0.0
 40
0.0
 40
1.0
 40
1.0
 40
1.0
 40
1.0
 10
-8.353841581134812
 20
3.88900069664824
 30
0.0
 41
1.0
 10
-8.180217426106946
 20
3.797997294389572
 30
0.0
 41
0.9998849563055995
 10
-8.004706496425303
 20
3.70985439808621
 30
0.0
 41
0.9998849563055995
 10
-7.82736936636715
 20
3.624602428591433
 30
0.0
 41
1.0
  0
SPLINE
  5
100000C6
102
{ACAD_XDICTIONARY
360
100000C7
102
}
330
1F
100
AcDbEntity
  8
VISIBLE
100
AcDbSpline
210
0.0
220
0.0
230
1.0
 70
    12
 71
     3
 72
     8
 73
     4
 74
     0
 42
0.000000001
 43
0.00000001
 40
0.0
 40
0.0
 40
0.0
 40
0.0
 40
1.0
 40
1.0
 40
1.0
 40
1.0
 10
-7.827369366367148
 20
3.624602428591433
 30
0.0
 41
1.0
 10
-7.79933389615904
 20
3.611124827763171
 30
0.0
 41
0.9065461485452403
 10
-7.783030777163731
 20
3.586910811188978
 30
0.0
 41
0.9065461485452403
 10
-7.783030777163731
 20
3.558749058192996
 30
0.0
 41
1.0
  0
LINE
  5
100000C9
102
{ACAD_XDICTIONARY
360
100000CA
102
}
330
1F
100
AcDbEntity
  8
VISIBLE
100
AcDbLine
 10
-7.783030777163734
 20
-2.022662699311943
 30
0.0
 11
-7.783030777163733
 21
3.558749058192996
 31
0.0
  0
LINE
  5
100000CC
102
{ACAD_XDICTIONARY
360
100000CD
102
}
330
1F
100
AcDbEntity
  8
VISIBLE
100
AcDbLine
 10
-8.482316492638232
 20
-2.022662699311948
 30
0.0
 11
-7.783030777163734
 21
-2.022662699311943
 31
0.0
  0
LINE
  5
100000CF
102
{ACAD_XDICTIONARY
360
100000D0
102
}
330
1F
100
AcDbEntity
  8
VISIBLE
100
AcDbLine
 10
-9.681092004887143
 20
-2.022662699311943
 30
0.0
 11
-9.681092004886914
 21
4.517127020915872
 31
0.0
  0
SPLINE
  5
100000D2
102
{ACAD_XDICTIONARY
360
100000D3
102
}
330
1F
100
AcDbEntity
  8
VISIBLE
100
AcDbSpline
210
0.0
220
0.0
230
1.0
 70
    12
 71
     3
 72
     8
 73
     4
 74
     0
 42
0.000000001
 43
0.00000001
 40
0.0
 40
0.0
 40
0.0
 40
0.0
 40
1.0
 40
1.0
 40
1.0
 40
1.0
 10
-9.681092004886912
 20
4.517127020915872
 30
0.0
 41
1.0
 10
-9.681092004886906
 20
4.586939691213488
 30
0.0
 41
0.6373799582929346
 10
-9.610650550455729
 20
4.618779151388598
 30
0.0
 41
0.6373799582929346
 10
-9.546398091024592
 20
4.578008522311315
 30
0.0
 41
1.0
  0
SPLINE
  5
100000D5
102
{ACAD_XDICTIONARY
360
100000D6
102
}
330
1F
100
AcDbEntity
  8
VISIBLE
100
AcDbSpline
210
0.0
220
0.0
230
1.0
 70
    12
 71
     3
 72
     8
 73
     4
 74
     0
 42
0.000000001
 43
0.00000001
 40
0.0
 40
0.0
 40
0.0
 40
0.0
 40
1.0
 40
1.0
 40
1.0
 40
1.0
 10
-9.546398091024592
 20
4.578008522311314
 30
0.0
 41
1.0
 10
-9.373294203920656
 20
4.468167522675888
 30
0.0
 41
0.9998717506286079
 10
-9.197780956198857
 20
4.361342280811827
 30
0.0
 41
0.9998717506286079
 10
-9.019925876250277
 20
4.257573897529486
 30
0.0
 41
1.0
  0
SPLINE
  5
100000D8
102
{ACAD_XDICTIONARY
360
100000D9
102
}
330
1F
100
AcDbEntity
  8
VISIBLE
100
AcDbSpline
210
0.0
220
0.0
230
1.0
 70
    12
 71
     3
 72
     8
 73
     4
 74
     0
 42
0.000000001
 43
0.00000001
 40
0.0
 40
0.0
 40
0.0
 40
0.0
 40
1.0
 40
1.0
 40
1.0
 40
1.0
 10
-9.019925876250273
 20
4.257573897529486
 30
0.0
 41
1.0
 10
-8.995609458462289
 20
4.243386642592452
 30
0.0
 41
0.9205515701584807
 10
-8.981806289405721
 20
4.220736265843992
 30
0.0
 41
0.9205515701584807
 10
-8.981806289405721
 20
4.195021377888056
 30
0.0
 41
1.0
  0
LINE
  5
100000DB
102
{ACAD_XDICTIONARY
360
100000DC
102
}
330
1F
100
AcDbEntity
  8
VISIBLE
100
AcDbLine
 10
-8.981806289405727
 20
-2.022662699311943
 30
0.0
 11
-8.981806289405723
 21
4.195021377888056
 31
0.0
  0
LINE
  5
100000DE
102
{ACAD_XDICTIONARY
360
100000DF
102
}
330
1F
100
AcDbEntity
  8
VISIBLE
100
AcDbLine
 10
-9.681092004887143
 20
-2.022662699311943
 30
0.0
 11
-8.981806289405727
 21
-2.022662699311943
 31
0.0
  0
LINE
  5
100000E1
102
{ACAD_XDICTIONARY
360
100000E2
102
}
330
1F
100
AcDbEntity
  8
VISIBLE
100
AcDbLine
 10
-0.2906838256512608
 20
-2.022662699311947
 30
0.0
 11
-0.2906838256512608
 21
1.796535430910429
 31
0.0
  0
SPLINE
  5
100000E4
102
{ACAD_XDICTIONARY
360
100000E5
102
}
330
1F
100
AcDbEntity
  8
VISIBLE
100
AcDbSpline
210
0.0
220
0.0
230
1.0
 70
    12
 71
     3
 72
     8
 73
     4
 74
     0
 42
0.000000001
 43
0.00000001
 40
0.0
 40
0.0
 40
0.0
 40
0.0
 40
1.0
 40
1.0
 40
1.0
 40
1.0
 10
-0.2906838256512608
 20
1.796535430910429
 30
0.0
 41
1.0
 10
-0.290683825651261
 20
1.840857278829471
 30
0.0
 41
0.802112853173558
 10
-0.2549538594566406
 20
1.87202304070835
 30
0.0
 41
0.802112853173558
 10
-0.2047054302667766
 20
1.871530805456417
 30
0.0
 41
1.0
  0
SPLINE
  5
100000E7
102
{ACAD_XDICTIONARY
360
100000E8
102
}
330
1F
100
AcDbEntity
  8
VISIBLE
100
AcDbSpline
210
0.0
220
0.0
230
1.0
 70
    12
 71
     3
 72
     8
 73
     4
 74
     0
 42
0.000000001
 43
0.00000001
 40
0.0
 40
0.0
 40
0.0
 40
0.0
 40
1.0
 40
1.0
 40
1.0
 40
1.0
 10
-0.2047054302667777
 20
1.871530805456417
 30
0.0
 41
1.0
 10
-0.1285972103780586
 20
1.870785246851001
 30
0.0
 41
0.9999836594285189
 10
-0.052484937560565
 20
1.870509699893915
 30
0.0
 41
0.9999836594285189
 10
0.0236276570315914
 20
1.870704178092946
 30
0.0
 41
1.0
  0
SPLINE
  5
100000EA
102
{ACAD_XDICTIONARY
360
100000EB
102
}
330
1F
100
AcDbEntity
  8
VISIBLE
100
AcDbSpline
210
0.0
220
0.0
230
1.0
 70
    12
 71
     3
 72
     8
 73
     4
 74
     0
 42
0.000000001
 43
0.00000001
 40
0.0
 40
0.0
 40
0.0
 40
0.0
 40
1.0
 40
1.0
 40
1.0
 40
1.0
 10
0.0236276570315883
 20
1.870704178092951
 30
0.0
 41
1.0
 10
0.0735537122484334
 20
1.870831746064525
 30
0.0
 41
0.8040545365120506
 10
0.1089080117642272
 20
1.839739458216996
 30
0.0
 41
0.8040545365120506
 10
0.1089080117642275
 20
1.79570449280992
 30
0.0
 41
1.0
  0
LINE
  5
100000ED
102
{ACAD_XDICTIONARY
360
100000EE
102
}
330
1F
100
AcDbEntity
  8
VISIBLE
100
AcDbLine
 10
0.1089080117642278
 20
-2.022662699311943
 30
0.0
 11
0.1089080117642275
 21
1.79570449280992
 31
0.0
  0
LINE
  5
100000F0
102
{ACAD_XDICTIONARY
360
100000F1
102
}
330
1F
100
AcDbEntity
  8
VISIBLE
100
AcDbLine
 10
-0.2906838256512608
 20
-2.022662699311947
 30
0.0
 11
0.1089080117642278
 21
-2.022662699311943
 31
0.0
  0
LINE
  5
100000F3
102
{ACAD_XDICTIONARY
360
100000F4
102
}
330
1F
100
AcDbEntity
  8
VISIBLE
100
AcDbLine
 10
-1.289663419186259
 20
-2.022662699311948
 30
0.0
 11
-1.289663419186259
 21
1.833219527266802
 31
0.0
  0
SPLINE
  5
100000F6
102
{ACAD_XDICTIONARY
360
100000F7
102
}
330
1F
100
AcDbEntity
  8
VISIBLE
100
AcDbSpline
210
0.0
220
0.0
230
1.0
 70
    12
 71
     3
 72
     8
 73
     4
 74
     0
 42
0.000000001
 43
0.00000001
 40
0.0
 40
0.0
 40
0.0
 40
0.0
 40
1.0
 40
1.0
 40
1.0
 40
1.0
 10
-1.289663419186259
 20
1.833219527266802
 30
0.0
 41
1.0
 10
-1.289663419186259
 20
1.879708167753158
 30
0.0
 41
0.7874375428574965
 10
-1.251073735396059
 20
1.911374198763021
 30
0.0
 41
0.7874375428574965
 10
-1.198502521836051
 20
1.908024592218172
 30
0.0
 41
1.0
  0
SPLINE
  5
100000F9
102
{ACAD_XDICTIONARY
360
100000FA
102
}
330
1F
100
AcDbEntity
  8
VISIBLE
100
AcDbSpline
210
0.0
220
0.0
230
1.0
 70
    12
 71
     3
 72
     8
 73
     4
 74
     0
 42
0.000000001
 43
0.00000001
 40
0.0
 40
0.0
 40
0.0
 40
0.0
 40
1.0
 40
1.0
 40
1.0
 40
1.0
 10
-1.198502521836052
 20
1.908024592218169
 30
0.0
 41
1.0
 10
-1.089335098385053
 20
1.90106892406228
 30
0.0
 41
0.9999662100376124
 10
-0.9800938083080318
 20
1.895083025435564
 30
0.0
 41
0.9999662100376124
 10
-0.8707897253822373
 20
1.890067503127892
 30
0.0
 41
1.0
  0
SPLINE
  5
100000FC
102
{ACAD_XDICTIONARY
360
100000FD
102
}
330
1F
100
AcDbEntity
  8
VISIBLE
100
AcDbSpline
210
0.0
220
0.0
230
1.0
 70
    12
 71
     3
 72
     8
 73
     4
 74
     0
 42
0.000000001
 43
0.00000001
 40
0.0
 40
0.0
 40
0.0
 40
0.0
 40
1.0
 40
1.0
 40
1.0
 40
1.0
 10
-0.8707897253822406
 20
1.890067503127894
 30
0.0
 41
1.0
 10
-0.8230716300843443
 20
1.887877912720657
 30
0.0
 41
0.8168286236151505
 10
-0.7901736224187597
 20
1.857313072762136
 30
0.0
 41
0.8168286236151505
 10
-0.7901736224187594
 20
1.815168794664888
 30
0.0
 41
1.0
  0
LINE
  5
100000FF
102
{ACAD_XDICTIONARY
360
10000100
102
}
330
1F
100
AcDbEntity
  8
VISIBLE
100
AcDbLine
 10
-0.79017362241876
 20
-2.022662699311943
 30
0.0
 11
-0.79017362241876
 21
1.815168794664888
 31
0.0
  0
LINE
  5
10000102
102
{ACAD_XDICTIONARY
360
10000103
102
}
330
1F
100
AcDbEntity
  8
VISIBLE
100
AcDbLine
 10
-1.289663419186259
 20
-2.022662699311948
 30
0.0
 11
-0.79017362241876
 21
-2.022662699311943
 31
0.0
  0
LINE
  5
10000105
102
{ACAD_XDICTIONARY
360
10000106
102
}
330
1F
100
AcDbEntity
  8
VISIBLE
100
AcDbLine
 10
0.6083978085150409
 20
-2.022662699311943
 30
0.0
 11
1.007989645930529
 21
-2.022662699311943
 31
0.0
  0
LINE
  5
10000108
102
{ACAD_XDICTIONARY
360
10000109
102
}
330
1F
100
AcDbEntity
  8
VISIBLE
100
AcDbLine
 10
0.6083978085150414
 20
1.79570449280992
 30
0.0
 11
0.6083978085150409
 21
-2.022662699311943
 31
0.0
  0
SPLINE
  5
1000010B
102
{ACAD_XDICTIONARY
360
1000010C
102
}
330
1F
100
AcDbEntity
  8
VISIBLE
100
AcDbSpline
210
0.0
220
0.0
230
1.0
 70
    12
 71
     3
 72
     8
 73
     4
 74
     0
 42
0.000000001
 43
0.00000001
 40
0.0
 40
0.0
 40
0.0
 40
0.0
 40
1.0
 40
1.0
 40
1.0
 40
1.0
 10
0.6083978085150417
 20
1.79570449280992
 30
0.0
 41
1.0
 10
0.6083978085150417
 20
1.839739458216996
 30
0.0
 41
0.8040545365120506
 10
0.6437521080308354
 20
1.870831746064525
 30
0.0
 41
0.8040545365120506
 10
0.6936781632476808
 20
1.870704178092951
 30
0.0
 41
1.0
  0
SPLINE
  5
1000010E
102
{ACAD_XDICTIONARY
360
1000010F
102
}
330
1F
100
AcDbEntity
  8
VISIBLE
100
AcDbSpline
210
0.0
220
0.0
230
1.0
 70
    12
 71
     3
 72
     8
 73
     4
 74
     0
 42
0.000000001
 43
0.00000001
 40
0.0
 40
0.0
 40
0.0
 40
0.0
 40
1.0
 40
1.0
 40
1.0
 40
1.0
 10
0.92201125054605
 20
1.871530805456417
 30
0.0
 41
1.0
 10
0.8459030306573294
 20
1.870785246851001
 30
0.0
 41
0.9999836594285189
 10
0.7697907578398347
 20
1.870509699893915
 30
0.0
 41
0.9999836594285189
 10
0.6936781632476773
 20
1.870704178092946
 30
0.0
 41
1.0
  0
SPLINE
  5
10000111
102
{ACAD_XDICTIONARY
360
10000112
102
}
330
1F
100
AcDbEntity
  8
VISIBLE
100
AcDbSpline
210
0.0
220
0.0
230
1.0
 70
    12
 71
     3
 72
     8
 73
     4
 74
     0
 42
0.000000001
 43
0.00000001
 40
0.0
 40
0.0
 40
0.0
 40
0.0
 40
1.0
 40
1.0
 40
1.0
 40
1.0
 10
0.9220112505460446
 20
1.871530805456419
 30
0.0
 41
1.0
 10
0.972259679735909
 20
1.872023040708353
 30
0.0
 41
0.8021128531735577
 10
1.007989645930529
 20
1.840857278829473
 30
0.0
 41
0.8021128531735577
 10
1.007989645930529
 20
1.796535430910431
 30
0.0
 41
1.0
  0
LINE
  5
10000114
102
{ACAD_XDICTIONARY
360
10000115
102
}
330
1F
100
AcDbEntity
  8
VISIBLE
100
AcDbLine
 10
1.007989645930529
 20
-2.022662699311943
 30
0.0
 11
1.007989645930529
 21
1.796535430910431
 31
0.0
  0
LINE
  5
10000117
102
{ACAD_XDICTIONARY
360
10000118
102
}
330
1F
100
AcDbEntity
  8
VISIBLE
100
AcDbLine
 10
6.102785572959014
 20
-2.022662699311943
 30
0.0
 11
6.802071288433518
 21
-2.022662699311948
 31
0.0
  0
LINE
  5
1000011A
102
{ACAD_XDICTIONARY
360
1000011B
102
}
330
1F
100
AcDbEntity
  8
VISIBLE
100
AcDbLine
 10
6.102785572959014
 20
-2.022662699311943
 30
0.0
 11
6.102785572959015
 21
2.617218406770113
 31
0.0
  0
SPLINE
  5
1000011D
102
{ACAD_XDICTIONARY
360
1000011E
102
}
330
1F
100
AcDbEntity
  8
VISIBLE
100
AcDbSpline
210
0.0
220
0.0
230
1.0
 70
    12
 71
     3
 72
     8
 73
     4
 74
     0
 42
0.000000001
 43
0.00000001
 40
0.0
 40
0.0
 40
0.0
 40
0.0
 40
1.0
 40
1.0
 40
1.0
 40
1.0
 10
6.102785572959014
 20
2.617218406770113
 30
0.0
 41
1.0
 10
6.102785572959015
 20
2.650142856941225
 30
0.0
 41
0.8774548999426734
 10
6.124354238548879
 20
2.67701521205151
 30
0.0
 41
0.8774548999426734
 10
6.159562166880168
 20
2.687956245763671
 30
0.0
 41
1.0
  0
SPLINE
  5
10000120
102
{ACAD_XDICTIONARY
360
10000121
102
}
330
1F
100
AcDbEntity
  8
VISIBLE
100
AcDbSpline
210
0.0
220
0.0
230
1.0
 70
    12
 71
     3
 72
     8
 73
     4
 74
     0
 42
0.000000001
 43
0.00000001
 40
0.0
 40
0.0
 40
0.0
 40
0.0
 40
1.0
 40
1.0
 40
1.0
 40
1.0
 10
6.686034381647843
 20
2.860606588616329
 30
0.0
 41
1.0
 10
6.511676234338028
 20
2.80039321055415
 30
0.0
 41
0.9999011138522473
 10
6.336168140762864
 20
2.742837404798018
 30
0.0
 41
0.9999011138522473
 10
6.159562166880172
 20
2.68795624576367
 30
0.0
 41
1.0
  0
SPLINE
  5
10000123
102
{ACAD_XDICTIONARY
360
10000124
102
}
330
1F
100
AcDbEntity
  8
VISIBLE
100
AcDbSpline
210
0.0
220
0.0
230
1.0
 70
    12
 71
     3
 72
     8
 73
     4
 74
     0
 42
0.000000001
 43
0.00000001
 40
0.0
 40
0.0
 40
0.0
 40
0.0
 40
1.0
 40
1.0
 40
1.0
 40
1.0
 10
6.686034381647834
 20
2.86060658861633
 30
0.0
 41
1.0
 10
6.747524799697855
 20
2.881841878428559
 30
0.0
 41
0.7091009856932011
 10
6.802071288433515
 20
2.849012753992278
 30
0.0
 41
0.7091009856932011
 10
6.802071288433514
 20
2.790769095124694
 30
0.0
 41
1.0
  0
LINE
  5
10000126
102
{ACAD_XDICTIONARY
360
10000127
102
}
330
1F
100
AcDbEntity
  8
VISIBLE
100
AcDbLine
 10
6.802071288433518
 20
-2.022662699311948
 30
0.0
 11
6.802071288433518
 21
2.790769095124694
 31
0.0
  0
LINE
  5
10000129
102
{ACAD_XDICTIONARY
360
1000012A
102
}
330
1F
100
AcDbEntity
  8
VISIBLE
100
AcDbLine
 10
-3.687214443670252
 20
-2.022662699311948
 30
0.0
 11
-3.687214443670256
 21
2.144396804455265
 31
0.0
  0
SPLINE
  5
1000012C
102
{ACAD_XDICTIONARY
360
1000012D
102
}
330
1F
100
AcDbEntity
  8
VISIBLE
100
AcDbSpline
210
0.0
220
0.0
230
1.0
 70
    12
 71
     3
 72
     8
 73
     4
 74
     0
 42
0.000000001
 43
0.00000001
 40
0.0
 40
0.0
 40
0.0
 40
0.0
 40
1.0
 40
1.0
 40
1.0
 40
1.0
 10
-3.687214443670255
 20
2.144396804455265
 30
0.0
 41
1.0
 10
-3.687214443670255
 20
2.196421443033114
 30
0.0
 41
0.7501138281190214
 10
-3.641177474264456
 20
2.228945724944397
 30
0.0
 41
0.7501138281190214
 10
-3.58361554160231
 20
2.21758754528915
 30
0.0
 41
1.0
  0
SPLINE
  5
1000012F
102
{ACAD_XDICTIONARY
360
10000130
102
}
330
1F
100
AcDbEntity
  8
VISIBLE
100
AcDbSpline
210
0.0
220
0.0
230
1.0
 70
    12
 71
     3
 72
     8
 73
     4
 74
     0
 42
0.000000001
 43
0.00000001
 40
0.0
 40
0.0
 40
0.0
 40
0.0
 40
1.0
 40
1.0
 40
1.0
 40
1.0
 10
-3.583615541602309
 20
2.217587545289148
 30
0.0
 41
1.0
 10
-3.408730083163484
 20
2.18307896706442
 30
0.0
 41
0.9999094209255448
 10
-3.233223447678993
 20
2.151117701218536
 30
0.0
 41
0.9999094209255448
 10
-3.057143326834645
 20
2.121712432817133
 30
0.0
 41
1.0
  0
SPLINE
  5
10000132
102
{ACAD_XDICTIONARY
360
10000133
102
}
330
1F
100
AcDbEntity
  8
VISIBLE
100
AcDbSpline
210
0.0
220
0.0
230
1.0
 70
    12
 71
     3
 72
     8
 73
     4
 74
     0
 42
0.000000001
 43
0.00000001
 40
0.0
 40
0.0
 40
0.0
 40
0.0
 40
1.0
 40
1.0
 40
1.0
 40
1.0
 10
-3.057143326834646
 20
2.121712432817138
 30
0.0
 41
1.0
 10
-3.015176924047366
 20
2.114704070192874
 30
0.0
 41
0.8467178159344801
 10
-2.987928728195757
 20
2.085693730226613
 30
0.0
 41
0.8467178159344801
 10
-2.987928728195758
 20
2.048021717729891
 30
0.0
 41
1.0
  0
LINE
  5
10000135
102
{ACAD_XDICTIONARY
360
10000136
102
}
330
1F
100
AcDbEntity
  8
VISIBLE
100
AcDbLine
 10
-2.987928728195758
 20
-2.022662699311943
 30
0.0
 11
-2.987928728195758
 21
2.048021717729891
 31
0.0
  0
LINE
  5
10000138
102
{ACAD_XDICTIONARY
360
10000139
102
}
330
1F
100
AcDbEntity
  8
VISIBLE
100
AcDbLine
 10
-3.687214443670252
 20
-2.022662699311948
 30
0.0
 11
-2.987928728195758
 21
-2.022662699311943
 31
0.0
  0
LINE
  5
1000013B
102
{ACAD_XDICTIONARY
360
1000013C
102
}
330
1F
100
AcDbEntity
  8
VISIBLE
100
AcDbLine
 10
-4.885989955912253
 20
-2.022662699311948
 30
0.0
 11
-4.885989955912253
 21
2.423317104563353
 31
0.0
  0
SPLINE
  5
1000013E
102
{ACAD_XDICTIONARY
360
1000013F
102
}
330
1F
100
AcDbEntity
  8
VISIBLE
100
AcDbSpline
210
0.0
220
0.0
230
1.0
 70
    12
 71
     3
 72
     8
 73
     4
 74
     0
 42
0.000000001
 43
0.00000001
 40
0.0
 40
0.0
 40
0.0
 40
0.0
 40
1.0
 40
1.0
 40
1.0
 40
1.0
 10
-4.885989955912252
 20
2.423317104563353
 30
0.0
 41
1.0
 10
-4.88598995591225
 20
2.478345963520647
 30
0.0
 41
0.7301376361035088
 10
-4.835854246790855
 20
2.511099495536827
 30
0.0
 41
0.7301376361035088
 10
-4.776172051485439
 20
2.495060863884358
 30
0.0
 41
1.0
  0
SPLINE
  5
10000141
102
{ACAD_XDICTIONARY
360
10000142
102
}
330
1F
100
AcDbEntity
  8
VISIBLE
100
AcDbSpline
210
0.0
220
0.0
230
1.0
 70
    12
 71
     3
 72
     8
 73
     4
 74
     0
 42
0.000000001
 43
0.00000001
 40
0.0
 40
0.0
 40
0.0
 40
0.0
 40
1.0
 40
1.0
 40
1.0
 40
1.0
 10
-4.776172051485447
 20
2.495060863884357
 30
0.0
 41
1.0
 10
-4.601533721422514
 20
2.44812961690277
 30
0.0
 41
0.999905996984206
 10
-4.426026484957106
 20
2.403791558207445
 30
0.0
 41
0.999905996984206
 10
-4.249699836717779
 20
2.362059191532079
 30
0.0
 41
1.0
  0
SPLINE
  5
10000144
102
{ACAD_XDICTIONARY
360
10000145
102
}
330
1F
100
AcDbEntity
  8
VISIBLE
100
AcDbSpline
210
0.0
220
0.0
230
1.0
 70
    12
 71
     3
 72
     8
 73
     4
 74
     0
 42
0.000000001
 43
0.00000001
 40
0.0
 40
0.0
 40
0.0
 40
0.0
 40
1.0
 40
1.0
 40
1.0
 40
1.0
 10
-4.249699836717774
 20
2.36205919153208
 30
0.0
 41
1.0
 10
-4.211055738619701
 20
2.352913043245529
 30
0.0
 41
0.8623096589968953
 10
-4.186704240437753
 20
2.324911755374983
 30
0.0
 41
0.8623096589968953
 10
-4.186704240437752
 20
2.289621848546706
 30
0.0
 41
1.0
  0
LINE
  5
10000147
102
{ACAD_XDICTIONARY
360
10000148
102
}
330
1F
100
AcDbEntity
  8
VISIBLE
100
AcDbLine
 10
-4.186704240437753
 20
-2.022662699311943
 30
0.0
 11
-4.186704240437753
 21
2.289621848546706
 31
0.0
  0
LINE
  5
1000014A
102
{ACAD_XDICTIONARY
360
1000014B
102
}
330
1F
100
AcDbEntity
  8
VISIBLE
100
AcDbLine
 10
-4.885989955912253
 20
-2.022662699311948
 30
0.0
 11
-4.186704240437753
 21
-2.022662699311943
 31
0.0
  0
LINE
  5
1000014D
102
{ACAD_XDICTIONARY
360
1000014E
102
}
330
1F
100
AcDbEntity
  8
VISIBLE
100
AcDbLine
 10
15.79288763025539
 20
-2.022662699311939
 30
0.0
 11
16.29237742702289
 21
-2.022662699311939
 31
0.0
  0
LINE
  5
10000150
102
{ACAD_XDICTIONARY
360
10000151
102
}
330
1F
100
AcDbEntity
  8
VISIBLE
100
AcDbLine
 10
15.79288763025539
 20
-2.022662699311939
 30
0.0
 11
15.79288763025539
 21
1.639207955707873
 31
0.0
  0
SPLINE
  5
10000153
102
{ACAD_XDICTIONARY
360
10000154
102
}
330
1F
100
AcDbEntity
  8
VISIBLE
100
AcDbSpline
210
0.0
220
0.0
230
1.0
 70
    12
 71
     3
 72
     8
 73
     4
 74
     0
 42
0.000000001
 43
0.00000001
 40
0.0
 40
0.0
 40
0.0
 40
0.0
 40
1.0
 40
1.0
 40
1.0
 40
1.0
 10
15.79288763025539
 20
1.639207955707873
 30
0.0
 41
1.0
 10
15.79288763025539
 20
1.734479980989247
 30
0.0
 41
0.5067469578003695
 10
15.89718740161645
 20
1.759262181810784
 30
0.0
 41
0.5067469578003695
 10
15.95144840576486
 20
1.676882870329609
 30
0.0
 41
1.0
  0
SPLINE
  5
10000156
102
{ACAD_XDICTIONARY
360
10000157
102
}
330
1F
100
AcDbEntity
  8
VISIBLE
100
AcDbSpline
210
0.0
220
0.0
230
1.0
 70
    12
 71
     3
 72
     8
 73
     4
 74
     0
 42
0.000000001
 43
0.00000001
 40
0.0
 40
0.0
 40
0.0
 40
0.0
 40
1.0
 40
1.0
 40
1.0
 40
1.0
 10
15.95144840576486
 20
1.676882870329609
 30
0.0
 41
1.0
 10
16.05397324402803
 20
1.521229179094236
 30
0.0
 41
0.9995732325535905
 10
16.16274605861627
 20
1.368910205336381
 30
0.0
 41
0.9995732325535905
 10
16.27762758744061
 20
1.220120963394455
 30
0.0
 41
1.0
  0
SPLINE
  5
10000159
102
{ACAD_XDICTIONARY
360
1000015A
102
}
330
1F
100
AcDbEntity
  8
VISIBLE
100
AcDbSpline
210
0.0
220
0.0
230
1.0
 70
    12
 71
     3
 72
     8
 73
     4
 74
     0
 42
0.000000001
 43
0.00000001
 40
0.0
 40
0.0
 40
0.0
 40
0.0
 40
1.0
 40
1.0
 40
1.0
 40
1.0
 10
16.27762758744061
 20
1.220120963394452
 30
0.0
 41
1.0
 10
16.28731102429374
 20
1.207579423918841
 30
0.0
 41
0.9704347358339787
 10
16.29237742702289
 20
1.193078829604813
 30
0.0
 41
0.9704347358339787
 10
16.29237742702289
 20
1.177905322156745
 30
0.0
 41
1.0
  0
LINE
  5
1000015C
102
{ACAD_XDICTIONARY
360
1000015D
102
}
330
1F
100
AcDbEntity
  8
VISIBLE
100
AcDbLine
 10
16.29237742702289
 20
-2.022662699311939
 30
0.0
 11
16.29237742702289
 21
1.177905322156745
 31
0.0
  0
LINE
  5
1000015F
102
{ACAD_XDICTIONARY
360
10000160
102
}
330
1F
100
AcDbEntity
  8
VISIBLE
100
AcDbLine
 10
15.29339783348789
 20
-2.022662699311943
 30
0.0
 11
15.29339783348789
 21
2.913378553566988
 31
0.0
  0
LINE
  5
10000162
102
{ACAD_XDICTIONARY
360
10000163
102
}
330
1F
100
AcDbEntity
  8
VISIBLE
100
AcDbLine
 10
14.7939080367005
 20
-2.022662699311943
 30
0.0
 11
15.29339783348789
 21
-2.022662699311943
 31
0.0
  0
LINE
  5
10000165
102
{ACAD_XDICTIONARY
360
10000166
102
}
330
1F
100
AcDbEntity
  8
VISIBLE
100
AcDbLine
 10
14.7939080367005
 20
-2.022662699311943
 30
0.0
 11
14.7939080367005
 21
4.598101165214919
 31
0.0
  0
SPLINE
  5
10000168
102
{ACAD_XDICTIONARY
360
10000169
102
}
330
1F
100
AcDbEntity
  8
VISIBLE
100
AcDbSpline
210
0.0
220
0.0
230
1.0
 70
    12
 71
     3
 72
     8
 73
     4
 74
     0
 42
0.000000001
 43
0.00000001
 40
0.0
 40
0.0
 40
0.0
 40
0.0
 40
1.0
 40
1.0
 40
1.0
 40
1.0
 10
14.7939080367005
 20
4.598101165214919
 30
0.0
 41
1.0
 10
14.7939080367005
 20
4.642872535653109
 30
0.0
 41
0.3716464497623673
 10
14.8445853323262
 20
4.645445531745538
 30
0.0
 41
0.3716464497623673
 10
14.85041014770905
 20
4.600969899803929
 30
0.0
 41
1.0
  0
SPLINE
  5
1000016B
102
{ACAD_XDICTIONARY
360
1000016C
102
}
330
1F
100
AcDbEntity
  8
VISIBLE
100
AcDbSpline
210
0.0
220
0.0
230
1.0
 70
    12
 71
     3
 72
     8
 73
     4
 74
     0
 42
0.000000001
 43
0.00000001
 40
0.0
 40
0.0
 40
0.0
 40
0.0
 40
1.0
 40
1.0
 40
1.0
 40
1.0
 10
14.85041014770905
 20
4.600969899803935
 30
0.0
 41
1.0
 10
14.92474580444733
 20
4.03337675016254
 30
0.0
 41
0.9957212983899311
 10
15.07139697189519
 20
3.476842694500849
 30
0.0
 41
0.9957212983899311
 10
15.2884812202938
 20
2.938511462298917
 30
0.0
 41
1.0
  0
SPLINE
  5
1000016E
102
{ACAD_XDICTIONARY
360
1000016F
102
}
330
1F
100
AcDbEntity
  8
VISIBLE
100
AcDbSpline
210
0.0
220
0.0
230
1.0
 70
    12
 71
     3
 72
     8
 73
     4
 74
     0
 42
0.000000001
 43
0.00000001
 40
0.0
 40
0.0
 40
0.0
 40
0.0
 40
1.0
 40
1.0
 40
1.0
 40
1.0
 10
15.2884812202938
 20
2.938511462298914
 30
0.0
 41
1.0
 10
15.29174289757193
 20
2.930423069146788
 30
0.0
 41
0.9902927653525873
 10
15.29339783348789
 20
2.921963312055669
 30
0.0
 41
0.9902927653525873
 10
15.29339783348789
 20
2.913378553566988
 30
0.0
 41
1.0
  0
LINE
  5
10000171
102
{ACAD_XDICTIONARY
360
10000172
102
}
330
1F
100
AcDbEntity
  8
VISIBLE
100
AcDbLine
 10
-10.87986751712079
 20
-2.022662699311943
 30
0.0
 11
-10.87986751712079
 21
5.3553620209348
 31
0.0
  0
SPLINE
  5
10000174
102
{ACAD_XDICTIONARY
360
10000175
102
}
330
1F
100
AcDbEntity
  8
VISIBLE
100
AcDbSpline
210
0.0
220
0.0
230
1.0
 70
    12
 71
     3
 72
     8
 73
     4
 74
     0
 42
0.000000001
 43
0.00000001
 40
0.0
 40
0.0
 40
0.0
 40
0.0
 40
1.0
 40
1.0
 40
1.0
 40
1.0
 10
-10.87986751712079
 20
5.3553620209348
 30
0.0
 41
1.0
 10
-10.87986751712079
 20
5.430051330235206
 30
0.0
 41
0.6093623608151304
 10
-10.80278534878521
 20
5.460975956349424
 30
0.0
 41
0.6093623608151304
 10
-10.73895460089964
 20
5.411894930463655
 30
0.0
 41
1.0
  0
SPLINE
  5
10000177
102
{ACAD_XDICTIONARY
360
10000178
102
}
330
1F
100
AcDbEntity
  8
VISIBLE
100
AcDbSpline
210
0.0
220
0.0
230
1.0
 70
    12
 71
     3
 72
     8
 73
     4
 74
     0
 42
0.000000001
 43
0.00000001
 40
0.0
 40
0.0
 40
0.0
 40
0.0
 40
1.0
 40
1.0
 40
1.0
 40
1.0
 10
-10.73895460089965
 20
5.411894930463657
 30
0.0
 41
1.0
 10
-10.5665613161921
 20
5.279337510261846
 30
0.0
 41
0.9998524837492389
 10
-10.39104468638381
 20
5.150007915053832
 30
0.0
 41
0.9998524837492389
 10
-10.21248238614027
 20
5.023963379490608
 30
0.0
 41
1.0
  0
SPLINE
  5
1000017A
102
{ACAD_XDICTIONARY
360
1000017B
102
}
330
1F
100
AcDbEntity
  8
VISIBLE
100
AcDbSpline
210
0.0
220
0.0
230
1.0
 70
    12
 71
     3
 72
     8
 73
     4
 74
     0
 42
0.000000001
 43
0.00000001
 40
0.0
 40
0.0
 40
0.0
 40
0.0
 40
1.0
 40
1.0
 40
1.0
 40
1.0
 10
-10.21248238614027
 20
5.023963379490607
 30
0.0
 41
1.0
 10
-10.19196392466135
 20
5.009479695397967
 30
0.0
 41
0.9342306488515648
 10
-10.18058180165463
 20
4.988586955424093
 30
0.0
 41
0.9342306488515648
 10
-10.18058180165463
 20
4.965407465424368
 30
0.0
 41
1.0
  0
LINE
  5
1000017D
102
{ACAD_XDICTIONARY
360
1000017E
102
}
330
1F
100
AcDbEntity
  8
VISIBLE
100
AcDbLine
 10
-10.18058180165463
 20
-2.022662699311943
 30
0.0
 11
-10.18058180165463
 21
4.965407465424368
 31
0.0
  0
LINE
  5
10000180
102
{ACAD_XDICTIONARY
360
10000181
102
}
330
1F
100
AcDbEntity
  8
VISIBLE
100
AcDbLine
 10
-10.87986751712079
 20
-2.022662699311943
 30
0.0
 11
-10.18058180165463
 21
-2.022662699311943
 31
0.0
  0
SPLINE
  5
10000183
102
{ACAD_XDICTIONARY
360
10000184
102
}
330
1F
100
AcDbEntity
  8
VISIBLE
100
AcDbSpline
210
0.0
220
0.0
230
1.0
 70
    12
 71
     3
 72
     8
 73
     4
 74
     0
 42
0.000000001
 43
0.00000001
 40
0.0
 40
0.0
 40
0.0
 40
0.0
 40
1.0
 40
1.0
 40
1.0
 40
1.0
 10
3.10836485199846
 20
2.02303354249698
 30
0.0
 41
1.0
 10
2.933253725351874
 20
2.000369457790702
 30
0.0
 41
0.9999116530650562
 10
2.75774748165729
 20
1.980222718299578
 30
0.0
 41
0.9999116530650562
 10
2.581892637230791
 20
1.962598663731659
 30
0.0
 41
1.0
  0
SPLINE
  5
10000186
102
{ACAD_XDICTIONARY
360
10000187
102
}
330
1F
100
AcDbEntity
  8
VISIBLE
100
AcDbSpline
210
0.0
220
0.0
230
1.0
 70
    12
 71
     3
 72
     8
 73
     4
 74
     0
 42
0.000000001
 43
0.00000001
 40
0.0
 40
0.0
 40
0.0
 40
0.0
 40
1.0
 40
1.0
 40
1.0
 40
1.0
 10
3.10836485199845
 20
2.02303354249698
 30
0.0
 41
1.0
 10
3.163543757532721
 20
2.030175175430176
 30
0.0
 41
0.7691753998788722
 10
3.205744751707527
 20
1.998017226094235
 30
0.0
 41
0.7691753998788722
 10
3.205744751707526
 20
1.948828231877709
 30
0.0
 41
1.0
  0
LINE
  5
10000189
102
{ACAD_XDICTIONARY
360
1000018A
102
}
330
1F
100
AcDbEntity
  8
VISIBLE
100
AcDbLine
 10
3.205744751707527
 20
-2.022662699311943
 30
0.0
 11
3.205744751707527
 21
1.948828231877709
 31
0.0
  0
LINE
  5
1000018C
102
{ACAD_XDICTIONARY
360
1000018D
102
}
330
1F
100
AcDbEntity
  8
VISIBLE
100
AcDbLine
 10
2.506459036233028
 20
-2.022662699311948
 30
0.0
 11
3.205744751707527
 21
-2.022662699311943
 31
0.0
  0
LINE
  5
1000018F
102
{ACAD_XDICTIONARY
360
10000190
102
}
330
1F
100
AcDbEntity
  8
VISIBLE
100
AcDbLine
 10
2.506459036233028
 20
-2.022662699311948
 30
0.0
 11
2.506459036233028
 21
1.888078194333343
 31
0.0
  0
SPLINE
  5
10000192
102
{ACAD_XDICTIONARY
360
10000193
102
}
330
1F
100
AcDbEntity
  8
VISIBLE
100
AcDbSpline
210
0.0
220
0.0
230
1.0
 70
    12
 71
     3
 72
     8
 73
     4
 74
     0
 42
0.000000001
 43
0.00000001
 40
0.0
 40
0.0
 40
0.0
 40
0.0
 40
1.0
 40
1.0
 40
1.0
 40
1.0
 10
2.506459036233027
 20
1.888078194333343
 30
0.0
 41
1.0
 10
2.506459036233027
 20
1.928167600511511
 30
0.0
 41
0.8306373659318691
 10
2.53673040939442
 20
1.958072535546836
 30
0.0
 41
0.8306373659318691
 10
2.581892637230785
 20
1.962598663731661
 30
0.0
 41
1.0
  0
LINE
  5
10000195
102
{ACAD_XDICTIONARY
360
10000196
102
}
330
1F
100
AcDbEntity
  8
VISIBLE
100
AcDbLine
 10
16.79186722377051
 20
-3.784862699311943
 30
0.0
 11
16.79186722379039
 21
0.9730773006880626
 31
0.0
  0
SPLINE
  5
10000198
102
{ACAD_XDICTIONARY
360
10000199
102
}
330
1F
100
AcDbEntity
  8
VISIBLE
100
AcDbSpline
210
0.0
220
0.0
230
1.0
 70
    12
 71
     3
 72
     8
 73
     4
 74
     0
 42
0.000000001
 43
0.00000001
 40
0.0
 40
0.0
 40
0.0
 40
0.0
 40
1.0
 40
1.0
 40
1.0
 40
1.0
 10
16.79186722379038
 20
0.9730773006880583
 30
0.0
 41
1.0
 10
15.48275043394835
 20
2.544619424940894
 30
0.0
 41
0.9668196939823315
 10
14.79390803672038
 20
4.39767435457366
 30
0.0
 41
0.9668196939823315
 10
14.79390803672038
 20
6.347787300688065
 30
0.0
 41
1.0
  0
LINE
  5
1000019B
102
{ACAD_XDICTIONARY
360
1000019C
102
}
330
1F
100
AcDbEntity
  8
VISIBLE
100
AcDbLine
 10
14.79390803672038
 20
6.347787300688065
 30
0.0
 11
14.7939080367005
 21
6.788337300702722
 31
0.0
  0
LINE
  5
1000019E
102
{ACAD_XDICTIONARY
360
1000019F
102
}
330
1F
100
AcDbEntity
  8
VISIBLE
100
AcDbLine
 10
14.7939080367005
 20
6.788337300702722
 30
0.0
 11
12.7959488496305
 21
6.788337300702722
 31
0.0
  0
LINE
  5
100001A1
102
{ACAD_XDICTIONARY
360
100001A2
102
}
330
1F
100
AcDbEntity
  8
VISIBLE
100
AcDbLine
 10
12.7959488496305
 20
6.788337300702722
 30
0.0
 11
12.7959488496305
 21
6.668062300693932
 31
0.0
  0
SPLINE
  5
100001A4
102
{ACAD_XDICTIONARY
360
100001A5
102
}
330
1F
100
AcDbEntity
  8
VISIBLE
100
AcDbSpline
210
0.0
220
0.0
230
1.0
 70
    12
 71
     3
 72
     8
 73
     4
 74
     0
 42
0.000000001
 43
0.00000001
 40
0.0
 40
0.0
 40
0.0
 40
0.0
 40
1.0
 40
1.0
 40
1.0
 40
1.0
 10
12.79594884963051
 20
6.668062300693936
 30
0.0
 41
1.0
 10
9.577771255319488
 20
3.670363226426345
 30
0.0
 41
0.9471833729161141
 10
5.288721077846678
 20
2.017412081843163
 30
0.0
 41
0.9471833729161141
 10
0.6083978085150461
 20
1.971118779518386
 30
0.0
 41
1.0
  0
LINE
  5
100001A7
102
{ACAD_XDICTIONARY
360
100001A8
102
}
330
1F
100
AcDbEntity
  8
VISIBLE
100
AcDbLine
 10
0.6083978085150411
 20
1.971118779518386
 30
0.0
 11
0.1089080117642275
 21
1.971118779518386
 31
0.0
  0
SPLINE
  5
100001AA
102
{ACAD_XDICTIONARY
360
100001AB
102
}
330
1F
100
AcDbEntity
  8
VISIBLE
100
AcDbSpline
210
0.0
220
0.0
230
1.0
 70
    12
 71
     3
 72
     8
 73
     4
 74
     0
 42
0.000000001
 43
0.00000001
 40
0.0
 40
0.0
 40
0.0
 40
0.0
 40
1.0
 40
1.0
 40
1.0
 40
1.0
 10
-12.07864302935124
 20
6.668062300693936
 30
0.0
 41
1.0
 10
-8.860465435040222
 20
3.670363226426345
 30
0.0
 41
0.9471833729161141
 10
-4.571415257567412
 20
2.017412081843163
 30
0.0
 41
0.9471833729161141
 10
0.1089080117642207
 20
1.971118779518386
 30
0.0
 41
1.0
  0
LINE
  5
100001AD
102
{ACAD_XDICTIONARY
360
100001AE
102
}
330
1F
100
AcDbEntity
  8
VISIBLE
100
AcDbLine
 10
-12.07864302935123
 20
6.788337300702722
 30
0.0
 11
-12.07864302935123
 21
6.668062300693932
 31
0.0
  0
LINE
  5
100001B0
102
{ACAD_XDICTIONARY
360
100001B1
102
}
330
1F
100
AcDbEntity
  8
VISIBLE
100
AcDbLine
 10
-14.07660221642123
 20
6.788337300702722
 30
0.0
 11
-12.07864302935123
 21
6.788337300702722
 31
0.0
  0
LINE
  5
100001B3
102
{ACAD_XDICTIONARY
360
100001B4
102
}
330
1F
100
AcDbEntity
  8
VISIBLE
100
AcDbLine
 10
-14.07660221644111
 20
6.347787300688065
 30
0.0
 11
-14.07660221642123
 21
6.788337300702722
 31
0.0
  0
SPLINE
  5
100001B6
102
{ACAD_XDICTIONARY
360
100001B7
102
}
330
1F
100
AcDbEntity
  8
VISIBLE
100
AcDbSpline
210
0.0
220
0.0
230
1.0
 70
    12
 71
     3
 72
     8
 73
     4
 74
     0
 42
0.000000001
 43
0.00000001
 40
0.0
 40
0.0
 40
0.0
 40
0.0
 40
1.0
 40
1.0
 40
1.0
 40
1.0
 10
-16.07456140351111
 20
0.9730773006880593
 30
0.0
 41
1.0
 10
-14.76544461366908
 20
2.544619424940894
 30
0.0
 41
0.9668196939823315
 10
-14.07660221644111
 20
4.397674354573661
 30
0.0
 41
0.9668196939823315
 10
-14.07660221644112
 20
6.347787300688065
 30
0.0
 41
1.0
  0
LINE
  5
100001B9
102
{ACAD_XDICTIONARY
360
100001BA
102
}
330
1F
100
AcDbEntity
  8
VISIBLE
100
AcDbLine
 10
-16.07456140349124
 20
-3.784862699311943
 30
0.0
 11
-16.07456140351112
 21
0.9730773006880626
 31
0.0
  0
LINE
  5
100001BC
102
{ACAD_XDICTIONARY
360
100001BD
102
}
330
1F
100
AcDbEntity
  8
VISIBLE
100
AcDbLine
 10
-16.07456140349124
 20
-3.784862699311943
 30
0.0
 11
-14.07660221642124
 21
-3.784862699311943
 31
0.0
  0
LINE
  5
100001BF
102
{ACAD_XDICTIONARY
360
100001C0
102
}
330
1F
100
AcDbEntity
  8
VISIBLE
100
AcDbLine
 10
-14.07660221642124
 20
-5.106512699311947
 30
0.0
 11
-14.07660221642124
 21
-3.784862699311943
 31
0.0
  0
LINE
  5
100001C2
102
{ACAD_XDICTIONARY
360
100001C3
102
}
330
1F
100
AcDbEntity
  8
VISIBLE
100
AcDbLine
 10
-14.07660221642124
 20
-5.106512699311947
 30
0.0
 11
-12.07864302935124
 21
-5.106512699311947
 31
0.0
  0
LINE
  5
100001C5
102
{ACAD_XDICTIONARY
360
100001C6
102
}
330
1F
100
AcDbEntity
  8
VISIBLE
100
AcDbLine
 10
-12.07864302935124
 20
-5.106512699311947
 30
0.0
 11
-12.07864302935124
 21
-3.784862699311943
 31
0.0
  0
LINE
  5
100001C8
102
{ACAD_XDICTIONARY
360
100001C9
102
}
330
1F
100
AcDbEntity
  8
VISIBLE
100
AcDbLine
 10
-12.07864302935124
 20
-3.784862699311943
 30
0.0
 11
-0.6402133046904895
 21
-3.784862699311943
 31
0.0
  0
LINE
  5
100001CB
102
{ACAD_XDICTIONARY
360
100001CC
102
}
330
1F
100
AcDbEntity
  8
VISIBLE
100
AcDbLine
 10
-0.6402133046904895
 20
-5.106512699311947
 30
0.0
 11
-0.6402133046904895
 21
-3.784862699311943
 31
0.0
  0
LINE
  5
100001CE
102
{ACAD_XDICTIONARY
360
100001CF
102
}
330
1F
100
AcDbEntity
  8
VISIBLE
100
AcDbLine
 10
1.35751912500951
 20
-5.106512699311947
 30
0.0
 11
-0.6402133046904895
 21
-5.106512699311947
 31
0.0
  0
LINE
  5
100001D1
102
{ACAD_XDICTIONARY
360
100001D2
102
}
330
1F
100
AcDbEntity
  8
VISIBLE
100
AcDbLine
 10
1.35751912500951
 20
-5.106512699311947
 30
0.0
 11
1.35751912500951
 21
-3.784862699311943
 31
0.0
  0
LINE
  5
100001D4
102
{ACAD_XDICTIONARY
360
100001D5
102
}
330
1F
100
AcDbEntity
  8
VISIBLE
100
AcDbLine
 10
12.79594884963051
 20
-3.784862699311943
 30
0.0
 11
1.35751912500951
 21
-3.784862699311943
 31
0.0
  0
LINE
  5
100001D7
102
{ACAD_XDICTIONARY
360
100001D8
102
}
330
1F
100
AcDbEntity
  8
VISIBLE
100
AcDbLine
 10
12.79594884963051
 20
-5.106512699311947
 30
0.0
 11
12.79594884963051
 21
-3.784862699311943
 31
0.0
  0
LINE
  5
100001DA
102
{ACAD_XDICTIONARY
360
100001DB
102
}
330
1F
100
AcDbEntity
  8
VISIBLE
100
AcDbLine
 10
14.79390803670051
 20
-5.106512699311947
 30
0.0
 11
12.79594884963051
 21
-5.106512699311947
 31
0.0
  0
LINE
  5
100001DD
102
{ACAD_XDICTIONARY
360
100001DE
102
}
330
1F
100
AcDbEntity
  8
VISIBLE
100
AcDbLine
 10
14.79390803670051
 20
-5.106512699311947
 30
0.0
 11
14.79390803670051
 21
-3.784862699311943
 31
0.0
  0
LINE
  5
100001E0
102
{ACAD_XDICTIONARY
360
100001E1
102
}
330
1F
100
AcDbEntity
  8
VISIBLE
100
AcDbLine
 10
16.79186722377051
 20
-3.784862699311943
 30
0.0
 11
14.79390803670051
 21
-3.784862699311943
 31
0.0
  0
LINE
  5
100001E3
102
{ACAD_XDICTIONARY
360
100001E4
102
}
330
1F
100
AcDbEntity
  8
VISIBLE
100
AcDbLine
 10
12.09666313416755
 20
-2.022662699311943
 30
0.0
 11
12.7959488496305
 21
-2.022662699311943
 31
0.0
  0
LINE
  5
100001E6
102
{ACAD_XDICTIONARY
360
100001E7
102
}
330
1F
100
AcDbEntity
  8
VISIBLE
100
AcDbLine
 10
12.09666313416755
 20
-2.022662699311943
 30
0.0
 11
12.09666313416755
 21
5.899803563695328
 31
0.0
  0
SPLINE
  5
100001E9
102
{ACAD_XDICTIONARY
360
100001EA
102
}
330
1F
100
AcDbEntity
  8
VISIBLE
100
AcDbSpline
210
0.0
220
0.0
230
1.0
 70
    12
 71
     3
 72
     8
 73
     4
 74
     0
 42
0.000000001
 43
0.00000001
 40
0.0
 40
0.0
 40
0.0
 40
0.0
 40
1.0
 40
1.0
 40
1.0
 40
1.0
 10
12.09666313416754
 20
5.899803563695328
 30
0.0
 41
1.0
 10
12.09666313416754
 20
5.920307730459366
 30
0.0
 41
0.9476051867775391
 10
12.10569698866207
 20
5.93920042924158
 30
0.0
 41
0.9476051867775391
 10
12.12234471629437
 20
5.953512021770081
 30
0.0
 41
1.0
  0
SPLINE
  5
100001EC
102
{ACAD_XDICTIONARY
360
100001ED
102
}
330
1F
100
AcDbEntity
  8
VISIBLE
100
AcDbSpline
210
0.0
220
0.0
230
1.0
 70
    12
 71
     3
 72
     8
 73
     4
 74
     0
 42
0.000000001
 43
0.00000001
 40
0.0
 40
0.0
 40
0.0
 40
0.0
 40
1.0
 40
1.0
 40
1.0
 40
1.0
 10
12.64881693105055
 20
6.427479531993291
 30
0.0
 41
1.0
 10
12.47747455041499
 20
6.265933234695047
 30
0.0
 41
0.9998226009007565
 10
12.30195267474029
 20
6.107916032511315
 30
0.0
 41
0.9998226009007565
 10
12.12234471629437
 20
5.953512021770084
 30
0.0
 41
1.0
  0
SPLINE
  5
100001EF
102
{ACAD_XDICTIONARY
360
100001F0
102
}
330
1F
100
AcDbEntity
  8
VISIBLE
100
AcDbSpline
210
0.0
220
0.0
230
1.0
 70
    12
 71
     3
 72
     8
 73
     4
 74
     0
 42
0.000000001
 43
0.00000001
 40
0.0
 40
0.0
 40
0.0
 40
0.0
 40
1.0
 40
1.0
 40
1.0
 40
1.0
 10
12.64881693105055
 20
6.427479531993294
 30
0.0
 41
1.0
 10
12.71112104771661
 20
6.486221562520162
 30
0.0
 41
0.5781591854728224
 10
12.7959488496305
 20
6.456681376892109
 30
0.0
 41
0.5781591854728224
 10
12.7959488496305
 20
6.376242743009001
 30
0.0
 41
1.0
  0
LINE
  5
100001F2
102
{ACAD_XDICTIONARY
360
100001F3
102
}
330
1F
100
AcDbEntity
  8
VISIBLE
100
AcDbLine
 10
12.7959488496305
 20
-2.022662699311943
 30
0.0
 11
12.7959488496305
 21
6.376242743009001
 31
0.0
  0
LINE
  5
100001F5
102
{ACAD_XDICTIONARY
360
100001F6
102
}
330
1F
100
AcDbEntity
  8
VISIBLE
100
AcDbLine
 10
8.500336597443004
 20
-2.022662699311948
 30
0.0
 11
9.1996223129175
 21
-2.022662699311948
 31
0.0
  0
LINE
  5
100001F8
102
{ACAD_XDICTIONARY
360
100001F9
102
}
330
1F
100
AcDbEntity
  8
VISIBLE
100
AcDbLine
 10
8.500336597443004
 20
-2.022662699311948
 30
0.0
 11
8.500336597442999
 21
3.558749058192996
 31
0.0
  0
SPLINE
  5
100001FB
102
{ACAD_XDICTIONARY
360
100001FC
102
}
330
1F
100
AcDbEntity
  8
VISIBLE
100
AcDbSpline
210
0.0
220
0.0
230
1.0
 70
    12
 71
     3
 72
     8
 73
     4
 74
     0
 42
0.000000001
 43
0.00000001
 40
0.0
 40
0.0
 40
0.0
 40
0.0
 40
1.0
 40
1.0
 40
1.0
 40
1.0
 10
8.500336597442997
 20
3.558749058192996
 30
0.0
 41
1.0
 10
8.500336597442997
 20
3.586910811188977
 30
0.0
 41
0.9065461485452426
 10
8.516639716438306
 20
3.61112482776317
 30
0.0
 41
0.9065461485452426
 10
8.544675186646414
 20
3.624602428591432
 30
0.0
 41
1.0
  0
SPLINE
  5
100001FE
102
{ACAD_XDICTIONARY
360
100001FF
102
}
330
1F
100
AcDbEntity
  8
VISIBLE
100
AcDbSpline
210
0.0
220
0.0
230
1.0
 70
    12
 71
     3
 72
     8
 73
     4
 74
     0
 42
0.000000001
 43
0.00000001
 40
0.0
 40
0.0
 40
0.0
 40
0.0
 40
1.0
 40
1.0
 40
1.0
 40
1.0
 10
9.071147401414084
 20
3.88900069664824
 30
0.0
 41
1.0
 10
8.897523246386216
 20
3.797997294389571
 30
0.0
 41
0.9998849563055995
 10
8.722012316704571
 20
3.709854398086208
 30
0.0
 41
0.9998849563055995
 10
8.54467518664642
 20
3.624602428591431
 30
0.0
 41
1.0
  0
SPLINE
  5
10000201
102
{ACAD_XDICTIONARY
360
10000202
102
}
330
1F
100
AcDbEntity
  8
VISIBLE
100
AcDbSpline
210
0.0
220
0.0
230
1.0
 70
    12
 71
     3
 72
     8
 73
     4
 74
     0
 42
0.000000001
 43
0.00000001
 40
0.0
 40
0.0
 40
0.0
 40
0.0
 40
1.0
 40
1.0
 40
1.0
 40
1.0
 10
9.071147401414077
 20
3.88900069664824
 30
0.0
 41
1.0
 10
9.135032044759432
 20
3.922485207461704
 30
0.0
 41
0.663025123170884
 10
9.199622312917493
 20
3.890070863445085
 30
0.0
 41
0.663025123170884
 10
9.199622312917493
 20
3.824526123345874
 30
0.0
 41
1.0
  0
LINE
  5
10000204
102
{ACAD_XDICTIONARY
360
10000205
102
}
330
1F
100
AcDbEntity
  8
VISIBLE
100
AcDbLine
 10
9.1996223129175
 20
-2.022662699311948
 30
0.0
 11
9.199622312917494
 21
3.824526123345874
 31
0.0
  0
LINE
  5
10000207
102
{ACAD_XDICTIONARY
360
10000208
102
}
330
1F
100
AcDbEntity
  8
VISIBLE
100
AcDbLine
 10
7.301561085201012
 20
-2.022662699311948
 30
0.0
 11
8.000846800675507
 21
-2.022662699311948
 31
0.0
  0
LINE
  5
1000020A
102
{ACAD_XDICTIONARY
360
1000020B
102
}
330
1F
100
AcDbEntity
  8
VISIBLE
100
AcDbLine
 10
7.301561085201012
 20
-2.022662699311948
 30
0.0
 11
7.301561085201012
 21
3.037205119864453
 31
0.0
  0
SPLINE
  5
1000020D
102
{ACAD_XDICTIONARY
360
1000020E
102
}
330
1F
100
AcDbEntity
  8
VISIBLE
100
AcDbSpline
210
0.0
220
0.0
230
1.0
 70
    12
 71
     3
 72
     8
 73
     4
 74
     0
 42
0.000000001
 43
0.00000001
 40
0.0
 40
0.0
 40
0.0
 40
0.0
 40
1.0
 40
1.0
 40
1.0
 40
1.0
 10
7.30156108520101
 20
3.037205119864453
 30
0.0
 41
1.0
 10
7.30156108520101
 20
3.067760984521778
 30
0.0
 41
0.8921898492533713
 10
7.320450036397737
 20
3.093375500616752
 30
0.0
 41
0.8921898492533713
 10
7.352118676763295
 20
3.105764153624874
 30
0.0
 41
1.0
  0
SPLINE
  5
10000210
102
{ACAD_XDICTIONARY
360
10000211
102
}
330
1F
100
AcDbEntity
  8
VISIBLE
100
AcDbSpline
210
0.0
220
0.0
230
1.0
 70
    12
 71
     3
 72
     8
 73
     4
 74
     0
 42
0.000000001
 43
0.00000001
 40
0.0
 40
0.0
 40
0.0
 40
0.0
 40
1.0
 40
1.0
 40
1.0
 40
1.0
 10
7.878590891530961
 20
3.321691728884342
 30
0.0
 41
1.0
 10
7.704562432391091
 20
3.246963718252209
 30
0.0
 41
0.9998943376873968
 10
7.52905314941848
 20
3.174980253893072
 30
0.0
 41
0.9998943376873968
 10
7.352118676763298
 20
3.105764153624873
 30
0.0
 41
1.0
  0
SPLINE
  5
10000213
102
{ACAD_XDICTIONARY
360
10000214
102
}
330
1F
100
AcDbEntity
  8
VISIBLE
100
AcDbSpline
210
0.0
220
0.0
230
1.0
 70
    12
 71
     3
 72
     8
 73
     4
 74
     0
 42
0.000000001
 43
0.00000001
 40
0.0
 40
0.0
 40
0.0
 40
0.0
 40
1.0
 40
1.0
 40
1.0
 40
1.0
 10
7.878590891530958
 20
3.321691728884344
 30
0.0
 41
1.0
 10
7.941512054434908
 20
3.348710145031403
 30
0.0
 41
0.6868145951042646
 10
8.000846800675506
 20
3.31598272752141
 30
0.0
 41
0.6868145951042646
 10
8.000846800675506
 20
3.254258724866542
 30
0.0
 41
1.0
  0
LINE
  5
10000216
102
{ACAD_XDICTIONARY
360
10000217
102
}
330
1F
100
AcDbEntity
  8
VISIBLE
100
AcDbLine
 10
8.000846800675507
 20
-2.022662699311948
 30
0.0
 11
8.000846800675507
 21
3.254258724866542
 31
0.0
  0
LINE
  5
10000219
102
{ACAD_XDICTIONARY
360
1000021A
102
}
330
1F
100
AcDbEntity
  8
VISIBLE
100
AcDbLine
 10
1.507479442698028
 20
-2.022662699311948
 30
0.0
 11
2.006969239465528
 21
-2.022662699311948
 31
0.0
  0
LINE
  5
1000021C
102
{ACAD_XDICTIONARY
360
1000021D
102
}
330
1F
100
AcDbEntity
  8
VISIBLE
100
AcDbLine
 10
1.507479442698028
 20
-2.022662699311948
 30
0.0
 11
1.507479442698029
 21
1.815168794664888
 31
0.0
  0
SPLINE
  5
1000021F
102
{ACAD_XDICTIONARY
360
10000220
102
}
330
1F
100
AcDbEntity
  8
VISIBLE
100
AcDbSpline
210
0.0
220
0.0
230
1.0
 70
    12
 71
     3
 72
     8
 73
     4
 74
     0
 42
0.000000001
 43
0.00000001
 40
0.0
 40
0.0
 40
0.0
 40
0.0
 40
1.0
 40
1.0
 40
1.0
 40
1.0
 10
1.507479442698028
 20
1.815168794664888
 30
0.0
 41
1.0
 10
1.507479442698028
 20
1.857313072762136
 30
0.0
 41
0.816828623615151
 10
1.540377450363613
 20
1.887877912720657
 30
0.0
 41
0.816828623615151
 10
1.588095545661509
 20
1.890067503127894
 30
0.0
 41
1.0
  0
SPLINE
  5
10000222
102
{ACAD_XDICTIONARY
360
10000223
102
}
330
1F
100
AcDbEntity
  8
VISIBLE
100
AcDbSpline
210
0.0
220
0.0
230
1.0
 70
    12
 71
     3
 72
     8
 73
     4
 74
     0
 42
0.000000001
 43
0.00000001
 40
0.0
 40
0.0
 40
0.0
 40
0.0
 40
1.0
 40
1.0
 40
1.0
 40
1.0
 10
1.915808342115331
 20
1.908024592218169
 30
0.0
 41
1.0
 10
1.806640918664331
 20
1.90106892406228
 30
0.0
 41
0.9999662100376124
 10
1.69739962858731
 20
1.895083025435564
 30
0.0
 41
0.9999662100376124
 10
1.588095545661515
 20
1.890067503127892
 30
0.0
 41
1.0
  0
SPLINE
  5
10000225
102
{ACAD_XDICTIONARY
360
10000226
102
}
330
1F
100
AcDbEntity
  8
VISIBLE
100
AcDbSpline
210
0.0
220
0.0
230
1.0
 70
    12
 71
     3
 72
     8
 73
     4
 74
     0
 42
0.000000001
 43
0.00000001
 40
0.0
 40
0.0
 40
0.0
 40
0.0
 40
1.0
 40
1.0
 40
1.0
 40
1.0
 10
1.91580834211532
 20
1.908024592218172
 30
0.0
 41
1.0
 10
1.968379555675328
 20
1.911374198763021
 30
0.0
 41
0.7874375428574965
 10
2.006969239465527
 20
1.879708167753158
 30
0.0
 41
0.7874375428574965
 10
2.006969239465527
 20
1.833219527266802
 30
0.0
 41
1.0
  0
LINE
  5
10000228
102
{ACAD_XDICTIONARY
360
10000229
102
}
330
1F
100
AcDbEntity
  8
VISIBLE
100
AcDbLine
 10
2.006969239465528
 20
-2.022662699311948
 30
0.0
 11
2.006969239465528
 21
1.833219527266802
 31
0.0
  0
LINE
  5
1000022B
102
{ACAD_XDICTIONARY
360
1000022C
102
}
330
1F
100
AcDbEntity
  8
VISIBLE
100
AcDbLine
 10
-2.488438931428258
 20
-2.022662699311948
 30
0.0
 11
-1.78915321595376
 21
-2.022662699311943
 31
0.0
  0
LINE
  5
1000022E
102
{ACAD_XDICTIONARY
360
1000022F
102
}
330
1F
100
AcDbEntity
  8
VISIBLE
100
AcDbLine
 10
-2.488438931428258
 20
-2.022662699311948
 30
0.0
 11
-2.488438931428258
 21
1.948828231877711
 31
0.0
  0
SPLINE
  5
10000231
102
{ACAD_XDICTIONARY
360
10000232
102
}
330
1F
100
AcDbEntity
  8
VISIBLE
100
AcDbSpline
210
0.0
220
0.0
230
1.0
 70
    12
 71
     3
 72
     8
 73
     4
 74
     0
 42
0.000000001
 43
0.00000001
 40
0.0
 40
0.0
 40
0.0
 40
0.0
 40
1.0
 40
1.0
 40
1.0
 40
1.0
 10
-2.488438931428258
 20
1.948828231877711
 30
0.0
 41
1.0
 10
-2.488438931428258
 20
1.998017226094237
 30
0.0
 41
0.7691753998788722
 10
-2.446237937253452
 20
2.030175175430179
 30
0.0
 41
0.7691753998788722
 10
-2.391059031719182
 20
2.023033542496982
 30
0.0
 41
1.0
  0
SPLINE
  5
10000234
102
{ACAD_XDICTIONARY
360
10000235
102
}
330
1F
100
AcDbEntity
  8
VISIBLE
100
AcDbSpline
210
0.0
220
0.0
230
1.0
 70
    12
 71
     3
 72
     8
 73
     4
 74
     0
 42
0.000000001
 43
0.00000001
 40
0.0
 40
0.0
 40
0.0
 40
0.0
 40
1.0
 40
1.0
 40
1.0
 40
1.0
 10
-2.391059031719184
 20
2.02303354249698
 30
0.0
 41
1.0
 10
-2.215947905072602
 20
2.000369457790703
 30
0.0
 41
0.9999116530650562
 10
-2.040441661378023
 20
1.98022271829958
 30
0.0
 41
0.9999116530650562
 10
-1.864586816951527
 20
1.962598663731661
 30
0.0
 41
1.0
  0
SPLINE
  5
10000237
102
{ACAD_XDICTIONARY
360
10000238
102
}
330
1F
100
AcDbEntity
  8
VISIBLE
100
AcDbSpline
210
0.0
220
0.0
230
1.0
 70
    12
 71
     3
 72
     8
 73
     4
 74
     0
 42
0.000000001
 43
0.00000001
 40
0.0
 40
0.0
 40
0.0
 40
0.0
 40
1.0
 40
1.0
 40
1.0
 40
1.0
 10
-1.864586816951516
 20
1.962598663731663
 30
0.0
 41
1.0
 10
-1.819424589115151
 20
1.958072535546838
 30
0.0
 41
0.8306373659318691
 10
-1.789153215953759
 20
1.928167600511513
 30
0.0
 41
0.8306373659318691
 10
-1.789153215953759
 20
1.888078194333346
 30
0.0
 41
1.0
  0
LINE
  5
1000023A
102
{ACAD_XDICTIONARY
360
1000023B
102
}
330
1F
100
AcDbEntity
  8
VISIBLE
100
AcDbLine
 10
-1.78915321595376
 20
-2.022662699311943
 30
0.0
 11
-1.78915321595376
 21
1.888078194333346
 31
0.0
  0
LINE
  5
1000023D
102
{ACAD_XDICTIONARY
360
1000023E
102
}
330
1F
100
AcDbEntity
  8
VISIBLE
100
AcDbLine
 10
-12.07864302935124
 20
-2.022662699311943
 30
0.0
 11
-11.37935731388828
 21
-2.022662699311943
 31
0.0
  0
LINE
  5
10000240
102
{ACAD_XDICTIONARY
360
10000241
102
}
330
1F
100
AcDbEntity
  8
VISIBLE
100
AcDbLine
 10
-12.07864302935124
 20
-2.022662699311943
 30
0.0
 11
-12.07864302935124
 21
6.376242743009005
 31
0.0
  0
SPLINE
  5
10000243
102
{ACAD_XDICTIONARY
360
10000244
102
}
330
1F
100
AcDbEntity
  8
VISIBLE
100
AcDbSpline
210
0.0
220
0.0
230
1.0
 70
    12
 71
     3
 72
     8
 73
     4
 74
     0
 42
0.000000001
 43
0.00000001
 40
0.0
 40
0.0
 40
0.0
 40
0.0
 40
1.0
 40
1.0
 40
1.0
 40
1.0
 10
-12.07864302935123
 20
6.376242743009005
 30
0.0
 41
1.0
 10
-12.07864302935123
 20
6.456681376892114
 30
0.0
 41
0.5781591854728224
 10
-11.99381522743734
 20
6.486221562520167
 30
0.0
 41
0.5781591854728224
 10
-11.93151111077128
 20
6.427479531993298
 30
0.0
 41
1.0
  0
SPLINE
  5
10000246
102
{ACAD_XDICTIONARY
360
10000247
102
}
330
1F
100
AcDbEntity
  8
VISIBLE
100
AcDbSpline
210
0.0
220
0.0
230
1.0
 70
    12
 71
     3
 72
     8
 73
     4
 74
     0
 42
0.000000001
 43
0.00000001
 40
0.0
 40
0.0
 40
0.0
 40
0.0
 40
1.0
 40
1.0
 40
1.0
 40
1.0
 10
-11.93151111077129
 20
6.427479531993304
 30
0.0
 41
1.0
 10
-11.76016873013573
 20
6.265933234695054
 30
0.0
 41
0.9998226009007565
 10
-11.58464685446102
 20
6.107916032511315
 30
0.0
 41
0.9998226009007565
 10
-11.4050388960151
 20
5.95351202177008
 30
0.0
 41
1.0
  0
SPLINE
  5
10000249
102
{ACAD_XDICTIONARY
360
1000024A
102
}
330
1F
100
AcDbEntity
  8
VISIBLE
100
AcDbSpline
210
0.0
220
0.0
230
1.0
 70
    12
 71
     3
 72
     8
 73
     4
 74
     0
 42
0.000000001
 43
0.00000001
 40
0.0
 40
0.0
 40
0.0
 40
0.0
 40
1.0
 40
1.0
 40
1.0
 40
1.0
 10
-11.4050388960151
 20
5.95351202177008
 30
0.0
 41
1.0
 10
-11.3883911683828
 20
5.939200429241578
 30
0.0
 41
0.9476051867775418
 10
-11.37935731388828
 20
5.920307730459366
 30
0.0
 41
0.9476051867775418
 10
-11.37935731388828
 20
5.899803563695328
 30
0.0
 41
1.0
  0
LINE
  5
1000024C
102
{ACAD_XDICTIONARY
360
1000024D
102
}
330
1F
100
AcDbEntity
  8
VISIBLE
100
AcDbLine
 10
-11.37935731388828
 20
-2.022662699311943
 30
0.0
 11
-11.37935731388828
 21
5.899803563695328
 31
0.0
  0
LINE
  5
1000024F
102
{ACAD_XDICTIONARY
360
10000250
102
}
330
1F
100
AcDbEntity
  8
VISIBLE
100
AcDbLine
 10
-14.57609201320862
 20
-2.022662699311939
 30
0.0
 11
-14.07660221642123
 21
-2.022662699311943
 31
0.0
  0
LINE
  5
10000252
102
{ACAD_XDICTIONARY
360
10000253
102
}
330
1F
100
AcDbEntity
  8
VISIBLE
100
AcDbLine
 10
-14.57609201320862
 20
-2.022662699311939
 30
0.0
 11
-14.57609201320862
 21
2.913378553566993
 31
0.0
  0
SPLINE
  5
10000255
102
{ACAD_XDICTIONARY
360
10000256
102
}
330
1F
100
AcDbEntity
  8
VISIBLE
100
AcDbSpline
210
0.0
220
0.0
230
1.0
 70
    12
 71
     3
 72
     8
 73
     4
 74
     0
 42
0.000000001
 43
0.00000001
 40
0.0
 40
0.0
 40
0.0
 40
0.0
 40
1.0
 40
1.0
 40
1.0
 40
1.0
 10
-14.57609201320862
 20
2.913378553566993
 30
0.0
 41
1.0
 10
-14.57609201320862
 20
2.921963312055673
 30
0.0
 41
0.9902927653525873
 10
-14.57443707729266
 20
2.930423069146793
 30
0.0
 41
0.9902927653525873
 10
-14.57117540001453
 20
2.938511462298919
 30
0.0
 41
1.0
  0
SPLINE
  5
10000258
102
{ACAD_XDICTIONARY
360
10000259
102
}
330
1F
100
AcDbEntity
  8
VISIBLE
100
AcDbSpline
210
0.0
220
0.0
230
1.0
 70
    12
 71
     3
 72
     8
 73
     4
 74
     0
 42
0.000000001
 43
0.00000001
 40
0.0
 40
0.0
 40
0.0
 40
0.0
 40
1.0
 40
1.0
 40
1.0
 40
1.0
 10
-14.13310432742978
 20
4.600969899803923
 30
0.0
 41
1.0
 10
-14.20743998416806
 20
4.033376750162532
 30
0.0
 41
0.9957212983899311
 10
-14.35409115161593
 20
3.476842694500845
 30
0.0
 41
0.9957212983899311
 10
-14.57117540001453
 20
2.938511462298917
 30
0.0
 41
1.0
  0
SPLINE
  5
1000025B
102
{ACAD_XDICTIONARY
360
1000025C
102
}
330
1F
100
AcDbEntity
  8
VISIBLE
100
AcDbSpline
210
0.0
220
0.0
230
1.0
 70
    12
 71
     3
 72
     8
 73
     4
 74
     0
 42
0.000000001
 43
0.00000001
 40
0.0
 40
0.0
 40
0.0
 40
0.0
 40
1.0
 40
1.0
 40
1.0
 40
1.0
 10
-14.13310432742978
 20
4.600969899803923
 30
0.0
 41
1.0
 10
-14.12727951204693
 20
4.645445531745533
 30
0.0
 41
0.3716464497623639
 10
-14.07660221642123
 20
4.642872535653104
 30
0.0
 41
0.3716464497623639
 10
-14.07660221642123
 20
4.598101165214913
 30
0.0
 41
1.0
  0
LINE
  5
1000025E
102
{ACAD_XDICTIONARY
360
1000025F
102
}
330
1F
100
AcDbEntity
  8
VISIBLE
100
AcDbLine
 10
-14.07660221642123
 20
-2.022662699311943
 30
0.0
 11
-14.07660221642123
 21
4.598101165214913
 31
0.0
  0
LINE
  5
10000261
102
{ACAD_XDICTIONARY
360
10000262
102
}
330
1F
100
AcDbEntity
  8
VISIBLE
100
AcDbLine
 10
-15.07558180997612
 20
-2.022662699311939
 30
0.0
 11
-15.07558180997612
 21
1.639207955707873
 31
0.0
  0
LINE
  5
10000264
102
{ACAD_XDICTIONARY
360
10000265
102
}
330
1F
100
AcDbEntity
  8
VISIBLE
100
AcDbLine
 10
-15.57507160674362
 20
-2.022662699311943
 30
0.0
 11
-15.07558180997612
 21
-2.022662699311939
 31
0.0
  0
LINE
  5
10000267
102
{ACAD_XDICTIONARY
360
10000268
102
}
330
1F
100
AcDbEntity
  8
VISIBLE
100
AcDbLine
 10
-15.57507160674362
 20
-2.022662699311943
 30
0.0
 11
-15.57507160674362
 21
1.177905322156746
 31
0.0
  0
SPLINE
  5
1000026A
102
{ACAD_XDICTIONARY
360
1000026B
102
}
330
1F
100
AcDbEntity
  8
VISIBLE
100
AcDbSpline
210
0.0
220
0.0
230
1.0
 70
    12
 71
     3
 72
     8
 73
     4
 74
     0
 42
0.000000001
 43
0.00000001
 40
0.0
 40
0.0
 40
0.0
 40
0.0
 40
1.0
 40
1.0
 40
1.0
 40
1.0
 10
-15.57507160674362
 20
1.177905322156746
 30
0.0
 41
1.0
 10
-15.57507160674362
 20
1.193078829604814
 30
0.0
 41
0.9704347358339813
 10
-15.57000520401447
 20
1.207579423918841
 30
0.0
 41
0.9704347358339813
 10
-15.56032176716135
 20
1.220120963394451
 30
0.0
 41
1.0
  0
SPLINE
  5
1000026D
102
{ACAD_XDICTIONARY
360
1000026E
102
}
330
1F
100
AcDbEntity
  8
VISIBLE
100
AcDbSpline
210
0.0
220
0.0
230
1.0
 70
    12
 71
     3
 72
     8
 73
     4
 74
     0
 42
0.000000001
 43
0.00000001
 40
0.0
 40
0.0
 40
0.0
 40
0.0
 40
1.0
 40
1.0
 40
1.0
 40
1.0
 10
-15.23414258548559
 20
1.676882870329615
 30
0.0
 41
1.0
 10
-15.33666742374876
 20
1.521229179094238
 30
0.0
 41
0.9995732325535905
 10
-15.445440238337
 20
1.368910205336381
 30
0.0
 41
0.9995732325535905
 10
-15.56032176716135
 20
1.220120963394452
 30
0.0
 41
1.0
  0
SPLINE
  5
10000270
102
{ACAD_XDICTIONARY
360
10000271
102
}
330
1F
100
AcDbEntity
  8
VISIBLE
100
AcDbSpline
210
0.0
220
0.0
230
1.0
 70
    12
 71
     3
 72
     8
 73
     4
 74
     0
 42
0.000000001
 43
0.00000001
 40
0.0
 40
0.0
 40
0.0
 40
0.0
 40
1.0
 40
1.0
 40
1.0
 40
1.0
 10
-15.23414258548559
 20
1.676882870329611
 30
0.0
 41
1.0
 10
-15.17988158133718
 20
1.759262181810782
 30
0.0
 41
0.5067469578003843
 10
-15.07558180997612
 20
1.734479980989244
 30
0.0
 41
0.5067469578003843
 10
-15.07558180997612
 20
1.639207955707873
 30
0.0
 41
1.0
  0
ENDSEC
  0
SECTION
  2
OBJECTS
  0
DICTIONARY
  5
C
330
0
100
AcDbDictionary
  3
ACAD_GROUP
350
D
  3
ACAD_LAYOUT
350
1A
  3
ACAD_MATERIAL
350
43
  3
ACAD_MLEADERSTYLE
350
6B
  3
ACAD_MLINESTYLE
350
17
  3
ACAD_PLOTSETTINGS
350
19
  3
ACAD_SCALELIST
350
47
  3
ACAD_VISUALSTYLE
350
2A
  3
ACDBHEADERROUNDTRIPXREC
350
10000275
  3
ACDBVARIABLEDICTIONARY
350
10000296
  3
DWGPROPS
350
1000029D
  3
ONSHAPE_DATA
350
10000001
  0
DICTIONARY
  5
1000029E
330
8
100
AcDbDictionary
280
     1
  3
ACAD_XREC_ROUNDTRIP
360
1000029F
  0
DICTIONARY
  5
10000273
330
1F
100
AcDbDictionary
280
     1
  3
ACAD_SORTENTS
360
10000274
  0
DICTIONARY
  5
10000052
330
10000051
100
AcDbDictionary
280
     1
  3
BTDETID
360
10000053
  0
DICTIONARY
  5
10000055
330
10000054
100
AcDbDictionary
280
     1
  3
BTDETID
360
10000056
  0
DICTIONARY
  5
10000058
330
10000057
100
AcDbDictionary
280
     1
  3
BTDETID
360
10000059
  0
DICTIONARY
  5
1000005B
330
1000005A
100
AcDbDictionary
280
     1
  3
BTDETID
360
1000005C
  0
DICTIONARY
  5
1000005E
330
1000005D
100
AcDbDictionary
280
     1
  3
BTDETID
360
1000005F
  0
DICTIONARY
  5
10000061
330
10000060
100
AcDbDictionary
280
     1
  3
BTDETID
360
10000062
  0
DICTIONARY
  5
10000064
330
10000063
100
AcDbDictionary
280
     1
  3
BTDETID
360
10000065
  0
DICTIONARY
  5
10000067
330
10000066
100
AcDbDictionary
280
     1
  3
BTDETID
360
10000068
  0
DICTIONARY
  5
1000006A
330
10000069
100
AcDbDictionary
280
     1
  3
BTDETID
360
1000006B
  0
DICTIONARY
  5
1000006D
330
1000006C
100
AcDbDictionary
280
     1
  3
BTDETID
360
1000006E
  0
DICTIONARY
  5
10000070
330
1000006F
100
AcDbDictionary
280
     1
  3
BTDETID
360
10000071
  0
DICTIONARY
  5
10000073
330
10000072
100
AcDbDictionary
280
     1
  3
BTDETID
360
10000074
  0
DICTIONARY
  5
10000076
330
10000075
100
AcDbDictionary
280
     1
  3
BTDETID
360
10000077
  0
DICTIONARY
  5
10000079
330
10000078
100
AcDbDictionary
280
     1
  3
BTDETID
360
1000007A
  0
DICTIONARY
  5
1000007C
330
1000007B
100
AcDbDictionary
280
     1
  3
BTDETID
360
1000007D
  0
DICTIONARY
  5
1000007F
330
1000007E
100
AcDbDictionary
280
     1
  3
BTDETID
360
10000080
  0
DICTIONARY
  5
10000082
330
10000081
100
AcDbDictionary
280
     1
  3
BTDETID
360
10000083
  0
DICTIONARY
  5
10000085
330
10000084
100
AcDbDictionary
280
     1
  3
BTDETID
360
10000086
  0
DICTIONARY
  5
10000088
330
10000087
100
AcDbDictionary
280
     1
  3
BTDETID
360
10000089
  0
DICTIONARY
  5
1000008B
330
1000008A
100
AcDbDictionary
280
     1
  3
BTDETID
360
1000008C
  0
DICTIONARY
  5
1000008E
330
1000008D
100
AcDbDictionary
280
     1
  3
BTDETID
360
1000008F
  0
DICTIONARY
  5
10000091
330
10000090
100
AcDbDictionary
280
     1
  3
BTDETID
360
10000092
  0
DICTIONARY
  5
10000094
330
10000093
100
AcDbDictionary
280
     1
  3
BTDETID
360
10000095
  0
DICTIONARY
  5
10000097
330
10000096
100
AcDbDictionary
280
     1
  3
BTDETID
360
10000098
  0
DICTIONARY
  5
1000009A
330
10000099
100
AcDbDictionary
280
     1
  3
BTDETID
360
1000009B
  0
DICTIONARY
  5
1000009D
330
1000009C
100
AcDbDictionary
280
     1
  3
BTDETID
360
1000009E
  0
DICTIONARY
  5
100000A0
330
1000009F
100
AcDbDictionary
280
     1
  3
BTDETID
360
100000A1
  0
DICTIONARY
  5
100000A3
330
100000A2
100
AcDbDictionary
280
     1
  3
BTDETID
360
100000A4
  0
DICTIONARY
  5
100000A6
330
100000A5
100
AcDbDictionary
280
     1
  3
BTDETID
360
100000A7
  0
DICTIONARY
  5
100000A9
330
100000A8
100
AcDbDictionary
280
     1
  3
BTDETID
360
100000AA
  0
DICTIONARY
  5
100000AC
330
100000AB
100
AcDbDictionary
280
     1
  3
BTDETID
360
100000AD
  0
DICTIONARY
  5
100000AF
330
100000AE
100
AcDbDictionary
280
     1
  3
BTDETID
360
100000B0
  0
DICTIONARY
  5
100000B2
330
100000B1
100
AcDbDictionary
280
     1
  3
BTDETID
360
100000B3
  0
DICTIONARY
  5
100000B5
330
100000B4
100
AcDbDictionary
280
     1
  3
BTDETID
360
100000B6
  0
DICTIONARY
  5
100000B8
330
100000B7
100
AcDbDictionary
280
     1
  3
BTDETID
360
100000B9
  0
DICTIONARY
  5
100000BB
330
100000BA
100
AcDbDictionary
280
     1
  3
BTDETID
360
100000BC
  0
DICTIONARY
  5
100000BE
330
100000BD
100
AcDbDictionary
280
     1
  3
BTDETID
360
100000BF
  0
DICTIONARY
  5
100000C1
330
100000C0
100
AcDbDictionary
280
     1
  3
BTDETID
360
100000C2
  0
DICTIONARY
  5
100000C4
330
100000C3
100
AcDbDictionary
280
     1
  3
BTDETID
360
100000C5
  0
DICTIONARY
  5
100000C7
330
100000C6
100
AcDbDictionary
280
     1
  3
BTDETID
360
100000C8
  0
DICTIONARY
  5
100000CA
330
100000C9
100
AcDbDictionary
280
     1
  3
BTDETID
360
100000CB
  0
DICTIONARY
  5
100000CD
330
100000CC
100
AcDbDictionary
280
     1
  3
BTDETID
360
100000CE
  0
DICTIONARY
  5
100000D0
330
100000CF
100
AcDbDictionary
280
     1
  3
BTDETID
360
100000D1
  0
DICTIONARY
  5
100000D3
330
100000D2
100
AcDbDictionary
280
     1
  3
BTDETID
360
100000D4
  0
DICTIONARY
  5
100000D6
330
100000D5
100
AcDbDictionary
280
     1
  3
BTDETID
360
100000D7
  0
DICTIONARY
  5
100000D9
330
100000D8
100
AcDbDictionary
280
     1
  3
BTDETID
360
100000DA
  0
DICTIONARY
  5
100000DC
330
100000DB
100
AcDbDictionary
280
     1
  3
BTDETID
360
100000DD
  0
DICTIONARY
  5
100000DF
330
100000DE
100
AcDbDictionary
280
     1
  3
BTDETID
360
100000E0
  0
DICTIONARY
  5
100000E2
330
100000E1
100
AcDbDictionary
280
     1
  3
BTDETID
360
100000E3
  0
DICTIONARY
  5
100000E5
330
100000E4
100
AcDbDictionary
280
     1
  3
BTDETID
360
100000E6
  0
DICTIONARY
  5
100000E8
330
100000E7
100
AcDbDictionary
280
     1
  3
BTDETID
360
100000E9
  0
DICTIONARY
  5
100000EB
330
100000EA
100
AcDbDictionary
280
     1
  3
BTDETID
360
100000EC
  0
DICTIONARY
  5
100000EE
330
100000ED
100
AcDbDictionary
280
     1
  3
BTDETID
360
100000EF
  0
DICTIONARY
  5
100000F1
330
100000F0
100
AcDbDictionary
280
     1
  3
BTDETID
360
100000F2
  0
DICTIONARY
  5
100000F4
330
100000F3
100
AcDbDictionary
280
     1
  3
BTDETID
360
100000F5
  0
DICTIONARY
  5
100000F7
330
100000F6
100
AcDbDictionary
280
     1
  3
BTDETID
360
100000F8
  0
DICTIONARY
  5
100000FA
330
100000F9
100
AcDbDictionary
280
     1
  3
BTDETID
360
100000FB
  0
DICTIONARY
  5
100000FD
330
100000FC
100
AcDbDictionary
280
     1
  3
BTDETID
360
100000FE
  0
DICTIONARY
  5
10000100
330
100000FF
100
AcDbDictionary
280
     1
  3
BTDETID
360
10000101
  0
DICTIONARY
  5
10000103
330
10000102
100
AcDbDictionary
280
     1
  3
BTDETID
360
10000104
  0
DICTIONARY
  5
10000106
330
10000105
100
AcDbDictionary
280
     1
  3
BTDETID
360
10000107
  0
DICTIONARY
  5
10000109
330
10000108
100
AcDbDictionary
280
     1
  3
BTDETID
360
1000010A
  0
DICTIONARY
  5
1000010C
330
1000010B
100
AcDbDictionary
280
     1
  3
BTDETID
360
1000010D
  0
DICTIONARY
  5
1000010F
330
1000010E
100
AcDbDictionary
280
     1
  3
BTDETID
360
10000110
  0
DICTIONARY
  5
10000112
330
10000111
100
AcDbDictionary
280
     1
  3
BTDETID
360
10000113
  0
DICTIONARY
  5
10000115
330
10000114
100
AcDbDictionary
280
     1
  3
BTDETID
360
10000116
  0
DICTIONARY
  5
10000118
330
10000117
100
AcDbDictionary
280
     1
  3
BTDETID
360
10000119
  0
DICTIONARY
  5
1000011B
330
1000011A
100
AcDbDictionary
280
     1
  3
BTDETID
360
1000011C
  0
DICTIONARY
  5
1000011E
330
1000011D
100
AcDbDictionary
280
     1
  3
BTDETID
360
1000011F
  0
DICTIONARY
  5
10000121
330
10000120
100
AcDbDictionary
280
     1
  3
BTDETID
360
10000122
  0
DICTIONARY
  5
10000124
330
10000123
100
AcDbDictionary
280
     1
  3
BTDETID
360
10000125
  0
DICTIONARY
  5
10000127
330
10000126
100
AcDbDictionary
280
     1
  3
BTDETID
360
10000128
  0
DICTIONARY
  5
1000012A
330
10000129
100
AcDbDictionary
280
     1
  3
BTDETID
360
1000012B
  0
DICTIONARY
  5
1000012D
330
1000012C
100
AcDbDictionary
280
     1
  3
BTDETID
360
1000012E
  0
DICTIONARY
  5
10000130
330
1000012F
100
AcDbDictionary
280
     1
  3
BTDETID
360
10000131
  0
DICTIONARY
  5
10000133
330
10000132
100
AcDbDictionary
280
     1
  3
BTDETID
360
10000134
  0
DICTIONARY
  5
10000136
330
10000135
100
AcDbDictionary
280
     1
  3
BTDETID
360
10000137
  0
DICTIONARY
  5
10000139
330
10000138
100
AcDbDictionary
280
     1
  3
BTDETID
360
1000013A
  0
DICTIONARY
  5
1000013C
330
1000013B
100
AcDbDictionary
280
     1
  3
BTDETID
360
1000013D
  0
DICTIONARY
  5
1000013F
330
1000013E
100
AcDbDictionary
280
     1
  3
BTDETID
360
10000140
  0
DICTIONARY
  5
10000142
330
10000141
100
AcDbDictionary
280
     1
  3
BTDETID
360
10000143
  0
DICTIONARY
  5
10000145
330
10000144
100
AcDbDictionary
280
     1
  3
BTDETID
360
10000146
  0
DICTIONARY
  5
10000148
330
10000147
100
AcDbDictionary
280
     1
  3
BTDETID
360
10000149
  0
DICTIONARY
  5
1000014B
330
1000014A
100
AcDbDictionary
280
     1
  3
BTDETID
360
1000014C
  0
DICTIONARY
  5
1000014E
330
1000014D
100
AcDbDictionary
280
     1
  3
BTDETID
360
1000014F
  0
DICTIONARY
  5
10000151
330
10000150
100
AcDbDictionary
280
     1
  3
BTDETID
360
10000152
  0
DICTIONARY
  5
10000154
330
10000153
100
AcDbDictionary
280
     1
  3
BTDETID
360
10000155
  0
DICTIONARY
  5
10000157
330
10000156
100
AcDbDictionary
280
     1
  3
BTDETID
360
10000158
  0
DICTIONARY
  5
1000015A
330
10000159
100
AcDbDictionary
280
     1
  3
BTDETID
360
1000015B
  0
DICTIONARY
  5
1000015D
330
1000015C
100
AcDbDictionary
280
     1
  3
BTDETID
360
1000015E
  0
DICTIONARY
  5
10000160
330
1000015F
100
AcDbDictionary
280
     1
  3
BTDETID
360
10000161
  0
DICTIONARY
  5
10000163
330
10000162
100
AcDbDictionary
280
     1
  3
BTDETID
360
10000164
  0
DICTIONARY
  5
10000166
330
10000165
100
AcDbDictionary
280
     1
  3
BTDETID
360
10000167
  0
DICTIONARY
  5
10000169
330
10000168
100
AcDbDictionary
280
     1
  3
BTDETID
360
1000016A
  0
DICTIONARY
  5
1000016C
330
1000016B
100
AcDbDictionary
280
     1
  3
BTDETID
360
1000016D
  0
DICTIONARY
  5
1000016F
330
1000016E
100
AcDbDictionary
280
     1
  3
BTDETID
360
10000170
  0
DICTIONARY
  5
10000172
330
10000171
100
AcDbDictionary
280
     1
  3
BTDETID
360
10000173
  0
DICTIONARY
  5
10000175
330
10000174
100
AcDbDictionary
280
     1
  3
BTDETID
360
10000176
  0
DICTIONARY
  5
10000178
330
10000177
100
AcDbDictionary
280
     1
  3
BTDETID
360
10000179
  0
DICTIONARY
  5
1000017B
330
1000017A
100
AcDbDictionary
280
     1
  3
BTDETID
360
1000017C
  0
DICTIONARY
  5
1000017E
330
1000017D
100
AcDbDictionary
280
     1
  3
BTDETID
360
1000017F
  0
DICTIONARY
  5
10000181
330
10000180
100
AcDbDictionary
280
     1
  3
BTDETID
360
10000182
  0
DICTIONARY
  5
10000184
330
10000183
100
AcDbDictionary
280
     1
  3
BTDETID
360
10000185
  0
DICTIONARY
  5
10000187
330
10000186
100
AcDbDictionary
280
     1
  3
BTDETID
360
10000188
  0
DICTIONARY
  5
1000018A
330
10000189
100
AcDbDictionary
280
     1
  3
BTDETID
360
1000018B
  0
DICTIONARY
  5
1000018D
330
1000018C
100
AcDbDictionary
280
     1
  3
BTDETID
360
1000018E
  0
DICTIONARY
  5
10000190
330
1000018F
100
AcDbDictionary
280
     1
  3
BTDETID
360
10000191
  0
DICTIONARY
  5
10000193
330
10000192
100
AcDbDictionary
280
     1
  3
BTDETID
360
10000194
  0
DICTIONARY
  5
10000196
330
10000195
100
AcDbDictionary
280
     1
  3
BTDETID
360
10000197
  0
DICTIONARY
  5
10000199
330
10000198
100
AcDbDictionary
280
     1
  3
BTDETID
360
1000019A
  0
DICTIONARY
  5
1000019C
330
1000019B
100
AcDbDictionary
280
     1
  3
BTDETID
360
1000019D
  0
DICTIONARY
  5
1000019F
330
1000019E
100
AcDbDictionary
280
     1
  3
BTDETID
360
100001A0
  0
DICTIONARY
  5
100001A2
330
100001A1
100
AcDbDictionary
280
     1
  3
BTDETID
360
100001A3
  0
DICTIONARY
  5
100001A5
330
100001A4
100
AcDbDictionary
280
     1
  3
BTDETID
360
100001A6
  0
DICTIONARY
  5
100001A8
330
100001A7
100
AcDbDictionary
280
     1
  3
BTDETID
360
100001A9
  0
DICTIONARY
  5
100001AB
330
100001AA
100
AcDbDictionary
280
     1
  3
BTDETID
360
100001AC
  0
DICTIONARY
  5
100001AE
330
100001AD
100
AcDbDictionary
280
     1
  3
BTDETID
360
100001AF
  0
DICTIONARY
  5
100001B1
330
100001B0
100
AcDbDictionary
280
     1
  3
BTDETID
360
100001B2
  0
DICTIONARY
  5
100001B4
330
100001B3
100
AcDbDictionary
280
     1
  3
BTDETID
360
100001B5
  0
DICTIONARY
  5
100001B7
330
100001B6
100
AcDbDictionary
280
     1
  3
BTDETID
360
100001B8
  0
DICTIONARY
  5
100001BA
330
100001B9
100
AcDbDictionary
280
     1
  3
BTDETID
360
100001BB
  0
DICTIONARY
  5
100001BD
330
100001BC
100
AcDbDictionary
280
     1
  3
BTDETID
360
100001BE
  0
DICTIONARY
  5
100001C0
330
100001BF
100
AcDbDictionary
280
     1
  3
BTDETID
360
100001C1
  0
DICTIONARY
  5
100001C3
330
100001C2
100
AcDbDictionary
280
     1
  3
BTDETID
360
100001C4
  0
DICTIONARY
  5
100001C6
330
100001C5
100
AcDbDictionary
280
     1
  3
BTDETID
360
100001C7
  0
DICTIONARY
  5
100001C9
330
100001C8
100
AcDbDictionary
280
     1
  3
BTDETID
360
100001CA
  0
DICTIONARY
  5
100001CC
330
100001CB
100
AcDbDictionary
280
     1
  3
BTDETID
360
100001CD
  0
DICTIONARY
  5
100001CF
330
100001CE
100
AcDbDictionary
280
     1
  3
BTDETID
360
100001D0
  0
DICTIONARY
  5
100001D2
330
100001D1
100
AcDbDictionary
280
     1
  3
BTDETID
360
100001D3
  0
DICTIONARY
  5
100001D5
330
100001D4
100
AcDbDictionary
280
     1
  3
BTDETID
360
100001D6
  0
DICTIONARY
  5
100001D8
330
100001D7
100
AcDbDictionary
280
     1
  3
BTDETID
360
100001D9
  0
DICTIONARY
  5
100001DB
330
100001DA
100
AcDbDictionary
280
     1
  3
BTDETID
360
100001DC
  0
DICTIONARY
  5
100001DE
330
100001DD
100
AcDbDictionary
280
     1
  3
BTDETID
360
100001DF
  0
DICTIONARY
  5
100001E1
330
100001E0
100
AcDbDictionary
280
     1
  3
BTDETID
360
100001E2
  0
DICTIONARY
  5
100001E4
330
100001E3
100
AcDbDictionary
280
     1
  3
BTDETID
360
100001E5
  0
DICTIONARY
  5
100001E7
330
100001E6
100
AcDbDictionary
280
     1
  3
BTDETID
360
100001E8
  0
DICTIONARY
  5
100001EA
330
100001E9
100
AcDbDictionary
280
     1
  3
BTDETID
360
100001EB
  0
DICTIONARY
  5
100001ED
330
100001EC
100
AcDbDictionary
280
     1
  3
BTDETID
360
100001EE
  0
DICTIONARY
  5
100001F0
330
100001EF
100
AcDbDictionary
280
     1
  3
BTDETID
360
100001F1
  0
DICTIONARY
  5
100001F3
330
100001F2
100
AcDbDictionary
280
     1
  3
BTDETID
360
100001F4
  0
DICTIONARY
  5
100001F6
330
100001F5
100
AcDbDictionary
280
     1
  3
BTDETID
360
100001F7
  0
DICTIONARY
  5
100001F9
330
100001F8
100
AcDbDictionary
280
     1
  3
BTDETID
360
100001FA
  0
DICTIONARY
  5
100001FC
330
100001FB
100
AcDbDictionary
280
     1
  3
BTDETID
360
100001FD
  0
DICTIONARY
  5
100001FF
330
100001FE
100
AcDbDictionary
280
     1
  3
BTDETID
360
10000200
  0
DICTIONARY
  5
10000202
330
10000201
100
AcDbDictionary
280
     1
  3
BTDETID
360
10000203
  0
DICTIONARY
  5
10000205
330
10000204
100
AcDbDictionary
280
     1
  3
BTDETID
360
10000206
  0
DICTIONARY
  5
10000208
330
10000207
100
AcDbDictionary
280
     1
  3
BTDETID
360
10000209
  0
DICTIONARY
  5
1000020B
330
1000020A
100
AcDbDictionary
280
     1
  3
BTDETID
360
1000020C
  0
DICTIONARY
  5
1000020E
330
1000020D
100
AcDbDictionary
280
     1
  3
BTDETID
360
1000020F
  0
DICTIONARY
  5
10000211
330
10000210
100
AcDbDictionary
280
     1
  3
BTDETID
360
10000212
  0
DICTIONARY
  5
10000214
330
10000213
100
AcDbDictionary
280
     1
  3
BTDETID
360
10000215
  0
DICTIONARY
  5
10000217
330
10000216
100
AcDbDictionary
280
     1
  3
BTDETID
360
10000218
  0
DICTIONARY
  5
1000021A
330
10000219
100
AcDbDictionary
280
     1
  3
BTDETID
360
1000021B
  0
DICTIONARY
  5
1000021D
330
1000021C
100
AcDbDictionary
280
     1
  3
BTDETID
360
1000021E
  0
DICTIONARY
  5
10000220
330
1000021F
100
AcDbDictionary
280
     1
  3
BTDETID
360
10000221
  0
DICTIONARY
  5
10000223
330
10000222
100
AcDbDictionary
280
     1
  3
BTDETID
360
10000224
  0
DICTIONARY
  5
10000226
330
10000225
100
AcDbDictionary
280
     1
  3
BTDETID
360
10000227
  0
DICTIONARY
  5
10000229
330
10000228
100
AcDbDictionary
280
     1
  3
BTDETID
360
1000022A
  0
DICTIONARY
  5
1000022C
330
1000022B
100
AcDbDictionary
280
     1
  3
BTDETID
360
1000022D
  0
DICTIONARY
  5
1000022F
330
1000022E
100
AcDbDictionary
280
     1
  3
BTDETID
360
10000230
  0
DICTIONARY
  5
10000232
330
10000231
100
AcDbDictionary
280
     1
  3
BTDETID
360
10000233
  0
DICTIONARY
  5
10000235
330
10000234
100
AcDbDictionary
280
     1
  3
BTDETID
360
10000236
  0
DICTIONARY
  5
10000238
330
10000237
100
AcDbDictionary
280
     1
  3
BTDETID
360
10000239
  0
DICTIONARY
  5
1000023B
330
1000023A
100
AcDbDictionary
280
     1
  3
BTDETID
360
1000023C
  0
DICTIONARY
  5
1000023E
330
1000023D
100
AcDbDictionary
280
     1
  3
BTDETID
360
1000023F
  0
DICTIONARY
  5
10000241
330
10000240
100
AcDbDictionary
280
     1
  3
BTDETID
360
10000242
  0
DICTIONARY
  5
10000244
330
10000243
100
AcDbDictionary
280
     1
  3
BTDETID
360
10000245
  0
DICTIONARY
  5
10000247
330
10000246
100
AcDbDictionary
280
     1
  3
BTDETID
360
10000248
  0
DICTIONARY
  5
1000024A
330
10000249
100
AcDbDictionary
280
     1
  3
BTDETID
360
1000024B
  0
DICTIONARY
  5
1000024D
330
1000024C
100
AcDbDictionary
280
     1
  3
BTDETID
360
1000024E
  0
DICTIONARY
  5
10000250
330
1000024F
100
AcDbDictionary
280
     1
  3
BTDETID
360
10000251
  0
DICTIONARY
  5
10000253
330
10000252
100
AcDbDictionary
280
     1
  3
BTDETID
360
10000254
  0
DICTIONARY
  5
10000256
330
10000255
100
AcDbDictionary
280
     1
  3
BTDETID
360
10000257
  0
DICTIONARY
  5
10000259
330
10000258
100
AcDbDictionary
280
     1
  3
BTDETID
360
1000025A
  0
DICTIONARY
  5
1000025C
330
1000025B
100
AcDbDictionary
280
     1
  3
BTDETID
360
1000025D
  0
DICTIONARY
  5
1000025F
330
1000025E
100
AcDbDictionary
280
     1
  3
BTDETID
360
10000260
  0
DICTIONARY
  5
10000262
330
10000261
100
AcDbDictionary
280
     1
  3
BTDETID
360
10000263
  0
DICTIONARY
  5
10000265
330
10000264
100
AcDbDictionary
280
     1
  3
BTDETID
360
10000266
  0
DICTIONARY
  5
10000268
330
10000267
100
AcDbDictionary
280
     1
  3
BTDETID
360
10000269
  0
DICTIONARY
  5
1000026B
330
1000026A
100
AcDbDictionary
280
     1
  3
BTDETID
360
1000026C
  0
DICTIONARY
  5
1000026E
330
1000026D
100
AcDbDictionary
280
     1
  3
BTDETID
360
1000026F
  0
DICTIONARY
  5
10000271
330
10000270
100
AcDbDictionary
280
     1
  3
BTDETID
360
10000272
  0
DICTIONARY
  5
D
102
{ACAD_REACTORS
330
C
102
}
330
C
100
AcDbDictionary
  0
DICTIONARY
  5
1A
102
{ACAD_REACTORS
330
C
102
}
330
C
100
AcDbDictionary
  0
DICTIONARY
  5
43
102
{ACAD_REACTORS
330
C
102
}
330
C
100
AcDbDictionary
  3
BYBLOCK
350
45
  3
BYLAYER
350
44
  3
GLOBAL
350
46
  0
DICTIONARY
  5
6B
102
{ACAD_REACTORS
330
C
102
}
330
C
100
AcDbDictionary
  3
STANDARD
350
6C
  0
DICTIONARY
  5
17
102
{ACAD_REACTORS
330
C
102
}
330
C
100
AcDbDictionary
  3
STANDARD
350
18
  0
DICTIONARY
  5
19
102
{ACAD_REACTORS
330
C
102
}
330
C
100
AcDbDictionary
  0
DICTIONARY
  5
47
102
{ACAD_REACTORS
330
C
102
}
330
C
100
AcDbDictionary
  3
SCALE100_1
350
10000023
  3
SCALE10_1
350
1000001D
  3
SCALE12_1
350
1000001E
  3
SCALE16_1
350
1000001F
  3
SCALE1_1
350
10000006
  3
SCALE1_10
350
1000000D
  3
SCALE1_100
350
10000016
  3
SCALE1_12
350
1000000E
  3
SCALE1_16
350
1000000F
  3
SCALE1_2
350
10000007
  3
SCALE1_20
350
10000010
  3
SCALE1_25
350
10000011
  3
SCALE1_3
350
10000008
  3
SCALE1_32
350
10000012
  3
SCALE1_4
350
10000009
  3
SCALE1_40
350
10000013
  3
SCALE1_5
350
1000000A
  3
SCALE1_50
350
10000014
  3
SCALE1_6
350
1000000B
  3
SCALE1_8
350
1000000C
  3
SCALE1_80
350
10000015
  3
SCALE20_1
350
10000020
  3
SCALE2_1
350
10000017
  3
SCALE32_1
350
10000021
  3
SCALE3_1
350
10000018
  3
SCALE4_1
350
10000019
  3
SCALE50_1
350
10000022
  3
SCALE5_1
350
1000001A
  3
SCALE6_1
350
1000001B
  3
SCALE8_1
350
1000001C
  0
DICTIONARY
  5
2A
102
{ACAD_REACTORS
330
C
102
}
330
C
100
AcDbDictionary
  3
2DWIREFRAME
350
2F
  3
BASIC
350
32
  3
BRIGHTEN
350
36
  3
COLORCHANGE
350
3A
  3
CONCEPTUAL
350
34
  3
DIM
350
35
  3
EDGECOLOROFF
350
3D
  3
FACEPATTERN
350
39
  3
FLAT
350
2B
  3
FLATWITHEDGES
350
2C
  3
GOURAUD
350
2D
  3
GOURAUDWITHEDGES
350
2E
  3
HIDDEN
350
31
  3
JITTEROFF
350
3B
  3
LINEPATTERN
350
38
  3
OVERHANGOFF
350
3C
  3
REALISTIC
350
33
  3
SHADED
350
42
  3
SHADED_WITH_EDGES
350
41
  3
SHADES_OF_GRAY
350
3E
  3
SKETCHY
350
3F
  3
THICKEN
350
37
  3
WIREFRAME
350
30
  3
X-RAY
350
40
  0
DICTIONARY
  5
10000275
102
{ACAD_REACTORS
330
C
102
}
330
C
100
AcDbDictionary
  3
CEPSNID
350
1000027F
  3
CEPSNTYPE
350
1000027E
  3
DIMSTYLEDATA
350
10000295
  3
FINGERPRINTGUID
350
10000280
  3
HYPERLINKBASE
350
10000278
  3
INSUNITS
350
1000027D
  3
LAYOUTDICT
350
1000027A
  3
LWETCUNION
350
1000027C
  3
PLOTSETDICT
350
1000027B
  3
PSVPSCALE
350
10000282
  3
PUCSBASE
350
10000285
  3
PUCSORGBACK
350
1000028B
  3
PUCSORGBOTTOM
350
10000287
  3
PUCSORGFRONT
350
1000028A
  3
PUCSORGLEFT
350
10000288
  3
PUCSORGRIGHT
350
10000289
  3
PUCSORGTOP
350
10000286
  3
PUCSORTHOREF
350
10000283
  3
PUCSORTHOVIEW
350
10000284
  3
STYLESHEET
350
10000279
  3
TSTACKALIGN
350
10000276
  3
TSTACKSIZE
350
10000277
  3
UCSBASE
350
1000028E
  3
UCSORGBACK
350
10000294
  3
UCSORGBOTTOM
350
10000290
  3
UCSORGFRONT
350
10000293
  3
UCSORGLEFT
350
10000291
  3
UCSORGRIGHT
350
10000292
  3
UCSORGTOP
350
1000028F
  3
UCSORTHOREF
350
1000028C
  3
UCSORTHOVIEW
350
1000028D
  3
VERSIONGUID
350
10000281
  0
DICTIONARY
  5
10000296
102
{ACAD_REACTORS
330
C
102
}
330
C
100
AcDbDictionary
  3
CANNOSCALE
350
100002A0
  3
CMLEADERSTYLE
350
10000298
  3
CTABLESTYLE
350
10000297
  3
DIMASSOC
350
1000029B
  3
HIDETEXT
350
1000029C
  3
MSLTSCALE
350
100002A1
  0
XRECORD
  5
1000029D
102
{ACAD_REACTORS
330
C
102
}
330
C
100
AcDbXrecord
  1
DWGPROPS COOKIE
  2

  3

  4

  6
File was created by BTDwgCreate
  7

  8

  9

300
=
301
=
302
=
303
=
304
=
305
=
306
=
307
=
308
=
309
=
 40
0.0
 41
2460396.922376123
 42
2460396.922376157
  1

 90
        0
  0
DICTIONARY
  5
10000001
102
{ACAD_REACTORS
330
C
102
}
330
C
100
AcDbDictionary
280
     1
  3
DIM_UNITS
360
10000003
  3
DWGGEN_VERSION
360
10000002
  3
FIRST_ANGLE
360
10000005
  0
XRECORD
  5
1000029F
102
{ACAD_REACTORS
330
1000029E
102
}
330
1000029E
100
AcDbXrecord
102
VTR_0.000_0.000_1.000_1.000_VISUALSTYLE
340
2F
102
VTR_0.000_0.000_1.000_1.000_GRIDDISPLAY
 70
     3
102
VTR_0.000_0.000_1.000_1.000_GRIDMAJOR
 70
     5
102
VTR_0.000_0.000_1.000_1.000_DEFAULTLIGHTING
280
     1
102
VTR_0.000_0.000_1.000_1.000_DEFAULTLIGHTINGTYPE
 70
     1
102
VTR_0.000_0.000_1.000_1.000_BRIGHTNESS
141
0.0
102
VTR_0.000_0.000_1.000_1.000_CONTRAST
142
0.0
  0
SORTENTSTABLE
  5
10000274
102
{ACAD_REACTORS
330
10000273
102
}
330
10000273
100
AcDbSortentsTable
330
1F
  0
XRECORD
  5
10000053
102
{ACAD_REACTORS
330
10000052
102
}
330
10000052
100
AcDbXrecord
1000
KLNZ
  0
XRECORD
  5
10000056
102
{ACAD_REACTORS
330
10000055
102
}
330
10000055
100
AcDbXrecord
1000
KLdO
  0
XRECORD
  5
10000059
102
{ACAD_REACTORS
330
10000058
102
}
330
10000058
100
AcDbXrecord
1000
KLtb
  0
XRECORD
  5
1000005C
102
{ACAD_REACTORS
330
1000005B
102
}
330
1000005B
100
AcDbXrecord
1000
KLtO
  0
XRECORD
  5
1000005F
102
{ACAD_REACTORS
330
1000005E
102
}
330
1000005E
100
AcDbXrecord
1000
KLVZ
  0
XRECORD
  5
10000062
102
{ACAD_REACTORS
330
10000061
102
}
330
10000061
100
AcDbXrecord
1000
KLlG
  0
XRECORD
  5
10000065
102
{ACAD_REACTORS
330
10000064
102
}
330
10000064
100
AcDbXrecord
1000
KL9Y
  0
XRECORD
  5
10000068
102
{ACAD_REACTORS
330
10000067
102
}
330
10000067
100
AcDbXrecord
1000
KL9N
  0
XRECORD
  5
1000006B
102
{ACAD_REACTORS
330
1000006A
102
}
330
1000006A
100
AcDbXrecord
1000
KLlb
  0
XRECORD
  5
1000006E
102
{ACAD_REACTORS
330
1000006D
102
}
330
1000006D
100
AcDbXrecord
1000
KLNO
  0
XRECORD
  5
10000071
102
{ACAD_REACTORS
330
10000070
102
}
330
10000070
100
AcDbXrecord
1000
KLFZ
  0
XRECORD
  5
10000074
102
{ACAD_REACTORS
330
10000073
102
}
330
10000073
100
AcDbXrecord
1000
KLdG
  0
XRECORD
  5
10000077
102
{ACAD_REACTORS
330
10000076
102
}
330
10000076
100
AcDbXrecord
1000
KL1H
  0
XRECORD
  5
1000007A
102
{ACAD_REACTORS
330
10000079
102
}
330
10000079
100
AcDbXrecord
1000
KLVd
  0
XRECORD
  5
1000007D
102
{ACAD_REACTORS
330
1000007C
102
}
330
1000007C
100
AcDbXrecord
1000
KLtW
  0
XRECORD
  5
10000080
102
{ACAD_REACTORS
330
1000007F
102
}
330
1000007F
100
AcDbXrecord
1000
KLVe
  0
XRECORD
  5
10000083
102
{ACAD_REACTORS
330
10000082
102
}
330
10000082
100
AcDbXrecord
1000
KL9W
  0
XRECORD
  5
10000086
102
{ACAD_REACTORS
330
10000085
102
}
330
10000085
100
AcDbXrecord
1000
KLld
  0
XRECORD
  5
10000089
102
{ACAD_REACTORS
330
10000088
102
}
330
10000088
100
AcDbXrecord
1000
KLlf
  0
XRECORD
  5
1000008C
102
{ACAD_REACTORS
330
1000008B
102
}
330
1000008B
100
AcDbXrecord
1000
KLtH
  0
XRECORD
  5
1000008F
102
{ACAD_REACTORS
330
1000008E
102
}
330
1000008E
100
AcDbXrecord
1000
KL9e
  0
XRECORD
  5
10000092
102
{ACAD_REACTORS
330
10000091
102
}
330
10000091
100
AcDbXrecord
1000
KLdX
  0
XRECORD
  5
10000095
102
{ACAD_REACTORS
330
10000094
102
}
330
10000094
100
AcDbXrecord
1000
KLde
  0
XRECORD
  5
10000098
102
{ACAD_REACTORS
330
10000097
102
}
330
10000097
100
AcDbXrecord
1000
KLNU
  0
XRECORD
  5
1000009B
102
{ACAD_REACTORS
330
1000009A
102
}
330
1000009A
100
AcDbXrecord
1000
KL1d
  0
XRECORD
  5
1000009E
102
{ACAD_REACTORS
330
1000009D
102
}
330
1000009D
100
AcDbXrecord
1000
KL9S
  0
XRECORD
  5
100000A1
102
{ACAD_REACTORS
330
100000A0
102
}
330
100000A0
100
AcDbXrecord
1000
KLlc
  0
XRECORD
  5
100000A4
102
{ACAD_REACTORS
330
100000A3
102
}
330
100000A3
100
AcDbXrecord
1000
KLVI
  0
XRECORD
  5
100000A7
102
{ACAD_REACTORS
330
100000A6
102
}
330
100000A6
100
AcDbXrecord
1000
KLFf
  0
XRECORD
  5
100000AA
102
{ACAD_REACTORS
330
100000A9
102
}
330
100000A9
100
AcDbXrecord
1000
KLtS
  0
XRECORD
  5
100000AD
102
{ACAD_REACTORS
330
100000AC
102
}
330
100000AC
100
AcDbXrecord
1000
KLdd
  0
XRECORD
  5
100000B0
102
{ACAD_REACTORS
330
100000AF
102
}
330
100000AF
100
AcDbXrecord
1000
KLdT
  0
XRECORD
  5
100000B3
102
{ACAD_REACTORS
330
100000B2
102
}
330
100000B2
100
AcDbXrecord
1000
KLtd
  0
XRECORD
  5
100000B6
102
{ACAD_REACTORS
330
100000B5
102
}
330
100000B5
100
AcDbXrecord
1000
KLNS
  0
XRECORD
  5
100000B9
102
{ACAD_REACTORS
330
100000B8
102
}
330
100000B8
100
AcDbXrecord
1000
KL1c
  0
XRECORD
  5
100000BC
102
{ACAD_REACTORS
330
100000BB
102
}
330
100000BB
100
AcDbXrecord
1000
KLdI
  0
XRECORD
  5
100000BF
102
{ACAD_REACTORS
330
100000BE
102
}
330
100000BE
100
AcDbXrecord
1000
KLtY
  0
XRECORD
  5
100000C2
102
{ACAD_REACTORS
330
100000C1
102
}
330
100000C1
100
AcDbXrecord
1000
KLdN
  0
XRECORD
  5
100000C5
102
{ACAD_REACTORS
330
100000C4
102
}
330
100000C4
100
AcDbXrecord
1000
KLdb
  0
XRECORD
  5
100000C8
102
{ACAD_REACTORS
330
100000C7
102
}
330
100000C7
100
AcDbXrecord
1000
KLtN
  0
XRECORD
  5
100000CB
102
{ACAD_REACTORS
330
100000CA
102
}
330
100000CA
100
AcDbXrecord
1000
KL1Y
  0
XRECORD
  5
100000CE
102
{ACAD_REACTORS
330
100000CD
102
}
330
100000CD
100
AcDbXrecord
1000
KLVG
  0
XRECORD
  5
100000D1
102
{ACAD_REACTORS
330
100000D0
102
}
330
100000D0
100
AcDbXrecord
1000
KLdY
  0
XRECORD
  5
100000D4
102
{ACAD_REACTORS
330
100000D3
102
}
330
100000D3
100
AcDbXrecord
1000
KL9M
  0
XRECORD
  5
100000D7
102
{ACAD_REACTORS
330
100000D6
102
}
330
100000D6
100
AcDbXrecord
1000
KLVb
  0
XRECORD
  5
100000DA
102
{ACAD_REACTORS
330
100000D9
102
}
330
100000D9
100
AcDbXrecord
1000
KLNN
  0
XRECORD
  5
100000DD
102
{ACAD_REACTORS
330
100000DC
102
}
330
100000DC
100
AcDbXrecord
1000
KLlY
  0
XRECORD
  5
100000E0
102
{ACAD_REACTORS
330
100000DF
102
}
330
100000DF
100
AcDbXrecord
1000
KLNG
  0
XRECORD
  5
100000E3
102
{ACAD_REACTORS
330
100000E2
102
}
330
100000E2
100
AcDbXrecord
1000
KLda
  0
XRECORD
  5
100000E6
102
{ACAD_REACTORS
330
100000E5
102
}
330
100000E5
100
AcDbXrecord
1000
KL9Q
  0
XRECORD
  5
100000E9
102
{ACAD_REACTORS
330
100000E8
102
}
330
100000E8
100
AcDbXrecord
1000
KLVc
  0
XRECORD
  5
100000EC
102
{ACAD_REACTORS
330
100000EB
102
}
330
100000EB
100
AcDbXrecord
1000
KLNR
  0
XRECORD
  5
100000EF
102
{ACAD_REACTORS
330
100000EE
102
}
330
100000EE
100
AcDbXrecord
1000
KLla
  0
XRECORD
  5
100000F2
102
{ACAD_REACTORS
330
100000F1
102
}
330
100000F1
100
AcDbXrecord
1000
KLNH
  0
XRECORD
  5
100000F5
102
{ACAD_REACTORS
330
100000F4
102
}
330
100000F4
100
AcDbXrecord
1000
KLNa
  0
XRECORD
  5
100000F8
102
{ACAD_REACTORS
330
100000F7
102
}
330
100000F7
100
AcDbXrecord
1000
KLdQ
  0
XRECORD
  5
100000FB
102
{ACAD_REACTORS
330
100000FA
102
}
330
100000FA
100
AcDbXrecord
1000
KLNc
  0
XRECORD
  5
100000FE
102
{ACAD_REACTORS
330
100000FD
102
}
330
100000FD
100
AcDbXrecord
1000
KLtQ
  0
XRECORD
  5
10000101
102
{ACAD_REACTORS
330
10000100
102
}
330
10000100
100
AcDbXrecord
1000
KLVa
  0
XRECORD
  5
10000104
102
{ACAD_REACTORS
330
10000103
102
}
330
10000103
100
AcDbXrecord
1000
KLFH
  0
XRECORD
  5
10000107
102
{ACAD_REACTORS
330
10000106
102
}
330
10000106
100
AcDbXrecord
1000
KLVH
  0
XRECORD
  5
1000010A
102
{ACAD_REACTORS
330
10000109
102
}
330
10000109
100
AcDbXrecord
1000
KLlg
  0
XRECORD
  5
1000010D
102
{ACAD_REACTORS
330
1000010C
102
}
330
1000010C
100
AcDbXrecord
1000
KLtR
  0
XRECORD
  5
10000110
102
{ACAD_REACTORS
330
1000010F
102
}
330
1000010F
100
AcDbXrecord
1000
KL1e
  0
XRECORD
  5
10000113
102
{ACAD_REACTORS
330
10000112
102
}
330
10000112
100
AcDbXrecord
1000
KLNX
  0
XRECORD
  5
10000116
102
{ACAD_REACTORS
330
10000115
102
}
330
10000115
100
AcDbXrecord
1000
KLtg
  0
XRECORD
  5
10000119
102
{ACAD_REACTORS
330
10000118
102
}
330
10000118
100
AcDbXrecord
1000
KL9H
  0
XRECORD
  5
1000011C
102
{ACAD_REACTORS
330
1000011B
102
}
330
1000011B
100
AcDbXrecord
1000
KLVf
  0
XRECORD
  5
1000011F
102
{ACAD_REACTORS
330
1000011E
102
}
330
1000011E
100
AcDbXrecord
1000
KLtU
  0
XRECORD
  5
10000122
102
{ACAD_REACTORS
330
10000121
102
}
330
10000121
100
AcDbXrecord
1000
KLNe
  0
XRECORD
  5
10000125
102
{ACAD_REACTORS
330
10000124
102
}
330
10000124
100
AcDbXrecord
1000
KLtX
  0
XRECORD
  5
10000128
102
{ACAD_REACTORS
330
10000127
102
}
330
10000127
100
AcDbXrecord
1000
KL1f
  0
XRECORD
  5
1000012B
102
{ACAD_REACTORS
330
1000012A
102
}
330
1000012A
100
AcDbXrecord
1000
KLtZ
  0
XRECORD
  5
1000012E
102
{ACAD_REACTORS
330
1000012D
102
}
330
1000012D
100
AcDbXrecord
1000
KLdP
  0
XRECORD
  5
10000131
102
{ACAD_REACTORS
330
10000130
102
}
330
10000130
100
AcDbXrecord
1000
KL9b
  0
XRECORD
  5
10000134
102
{ACAD_REACTORS
330
10000133
102
}
330
10000133
100
AcDbXrecord
1000
KLtP
  0
XRECORD
  5
10000137
102
{ACAD_REACTORS
330
10000136
102
}
330
10000136
100
AcDbXrecord
1000
KL1Z
  0
XRECORD
  5
1000013A
102
{ACAD_REACTORS
330
10000139
102
}
330
10000139
100
AcDbXrecord
1000
KL1G
  0
XRECORD
  5
1000013D
102
{ACAD_REACTORS
330
1000013C
102
}
330
1000013C
100
AcDbXrecord
1000
KLdZ
  0
XRECORD
  5
10000140
102
{ACAD_REACTORS
330
1000013F
102
}
330
1000013F
100
AcDbXrecord
1000
KL9O
  0
XRECORD
  5
10000143
102
{ACAD_REACTORS
330
10000142
102
}
330
10000142
100
AcDbXrecord
1000
KL1b
  0
XRECORD
  5
10000146
102
{ACAD_REACTORS
330
10000145
102
}
330
10000145
100
AcDbXrecord
1000
KLNP
  0
XRECORD
  5
10000149
102
{ACAD_REACTORS
330
10000148
102
}
330
10000148
100
AcDbXrecord
1000
KLlZ
  0
XRECORD
  5
1000014C
102
{ACAD_REACTORS
330
1000014B
102
}
330
1000014B
100
AcDbXrecord
1000
KLtG
  0
XRECORD
  5
1000014F
102
{ACAD_REACTORS
330
1000014E
102
}
330
1000014E
100
AcDbXrecord
1000
KL1I
  0
XRECORD
  5
10000152
102
{ACAD_REACTORS
330
10000151
102
}
330
10000151
100
AcDbXrecord
1000
KL9g
  0
XRECORD
  5
10000155
102
{ACAD_REACTORS
330
10000154
102
}
330
10000154
100
AcDbXrecord
1000
KLNW
  0
XRECORD
  5
10000158
102
{ACAD_REACTORS
330
10000157
102
}
330
10000157
100
AcDbXrecord
1000
KLFh
  0
XRECORD
  5
1000015B
102
{ACAD_REACTORS
330
1000015A
102
}
330
1000015A
100
AcDbXrecord
1000
KLtT
  0
XRECORD
  5
1000015E
102
{ACAD_REACTORS
330
1000015D
102
}
330
1000015D
100
AcDbXrecord
1000
KLdg
  0
XRECORD
  5
10000161
102
{ACAD_REACTORS
330
10000160
102
}
330
10000160
100
AcDbXrecord
1000
KL1g
  0
XRECORD
  5
10000164
102
{ACAD_REACTORS
330
10000163
102
}
330
10000163
100
AcDbXrecord
1000
KLtI
  0
XRECORD
  5
10000167
102
{ACAD_REACTORS
330
10000166
102
}
330
10000166
100
AcDbXrecord
1000
KL1h
  0
XRECORD
  5
1000016A
102
{ACAD_REACTORS
330
10000169
102
}
330
10000169
100
AcDbXrecord
1000
KLhh
  0
XRECORD
  5
1000016D
102
{ACAD_REACTORS
330
1000016C
102
}
330
1000016C
100
AcDbXrecord
1000
KLFi
  0
XRECORD
  5
10000170
102
{ACAD_REACTORS
330
1000016F
102
}
330
1000016F
100
AcDbXrecord
1000
KLdU
  0
XRECORD
  5
10000173
102
{ACAD_REACTORS
330
10000172
102
}
330
10000172
100
AcDbXrecord
1000
KLNY
  0
XRECORD
  5
10000176
102
{ACAD_REACTORS
330
10000175
102
}
330
10000175
100
AcDbXrecord
1000
KLdM
  0
XRECORD
  5
10000179
102
{ACAD_REACTORS
330
10000178
102
}
330
10000178
100
AcDbXrecord
1000
KLNb
  0
XRECORD
  5
1000017C
102
{ACAD_REACTORS
330
1000017B
102
}
330
1000017B
100
AcDbXrecord
1000
KLtM
  0
XRECORD
  5
1000017F
102
{ACAD_REACTORS
330
1000017E
102
}
330
1000017E
100
AcDbXrecord
1000
KLVY
  0
XRECORD
  5
10000182
102
{ACAD_REACTORS
330
10000181
102
}
330
10000181
100
AcDbXrecord
1000
KLFG
  0
XRECORD
  5
10000185
102
{ACAD_REACTORS
330
10000184
102
}
330
10000184
100
AcDbXrecord
1000
KLle
  0
XRECORD
  5
10000188
102
{ACAD_REACTORS
330
10000187
102
}
330
10000187
100
AcDbXrecord
1000
KLdW
  0
XRECORD
  5
1000018B
102
{ACAD_REACTORS
330
1000018A
102
}
330
1000018A
100
AcDbXrecord
1000
KL9f
  0
XRECORD
  5
1000018E
102
{ACAD_REACTORS
330
1000018D
102
}
330
1000018D
100
AcDbXrecord
1000
KLlH
  0
XRECORD
  5
10000191
102
{ACAD_REACTORS
330
10000190
102
}
330
10000190
100
AcDbXrecord
1000
KLdf
  0
XRECORD
  5
10000194
102
{ACAD_REACTORS
330
10000193
102
}
330
10000193
100
AcDbXrecord
1000
KL9V
  0
XRECORD
  5
10000197
102
{ACAD_REACTORS
330
10000196
102
}
330
10000196
100
AcDbXrecord
1000
KLlJ
  0
XRECORD
  5
1000019A
102
{ACAD_REACTORS
330
10000199
102
}
330
10000199
100
AcDbXrecord
1000
KLtK
  0
XRECORD
  5
1000019D
102
{ACAD_REACTORS
330
1000019C
102
}
330
1000019C
100
AcDbXrecord
1000
KL1J
  0
XRECORD
  5
100001A0
102
{ACAD_REACTORS
330
1000019F
102
}
330
1000019F
100
AcDbXrecord
1000
KLlK
  0
XRECORD
  5
100001A3
102
{ACAD_REACTORS
330
100001A2
102
}
330
100001A2
100
AcDbXrecord
1000
KLtJ
  0
XRECORD
  5
100001A6
102
{ACAD_REACTORS
330
100001A5
102
}
330
100001A5
100
AcDbXrecord
1000
KLVK
  0
XRECORD
  5
100001A9
102
{ACAD_REACTORS
330
100001A8
102
}
330
100001A8
100
AcDbXrecord
1000
KL9K
  0
XRECORD
  5
100001AC
102
{ACAD_REACTORS
330
100001AB
102
}
330
100001AB
100
AcDbXrecord
1000
KLdJ
  0
XRECORD
  5
100001AF
102
{ACAD_REACTORS
330
100001AE
102
}
330
100001AE
100
AcDbXrecord
1000
KLVJ
  0
XRECORD
  5
100001B2
102
{ACAD_REACTORS
330
100001B1
102
}
330
100001B1
100
AcDbXrecord
1000
KLFJ
  0
XRECORD
  5
100001B5
102
{ACAD_REACTORS
330
100001B4
102
}
330
100001B4
100
AcDbXrecord
1000
KLNJ
  0
XRECORD
  5
100001B8
102
{ACAD_REACTORS
330
100001B7
102
}
330
100001B7
100
AcDbXrecord
1000
KL9I
  0
XRECORD
  5
100001BB
102
{ACAD_REACTORS
330
100001BA
102
}
330
100001BA
100
AcDbXrecord
1000
KLFF
  0
XRECORD
  5
100001BE
102
{ACAD_REACTORS
330
100001BD
102
}
330
100001BD
100
AcDbXrecord
1000
KLNF
  0
XRECORD
  5
100001C1
102
{ACAD_REACTORS
330
100001C0
102
}
330
100001C0
100
AcDbXrecord
1000
KLVF
  0
XRECORD
  5
100001C4
102
{ACAD_REACTORS
330
100001C3
102
}
330
100001C3
100
AcDbXrecord
1000
KL9E
  0
XRECORD
  5
100001C7
102
{ACAD_REACTORS
330
100001C6
102
}
330
100001C6
100
AcDbXrecord
1000
KLdF
  0
XRECORD
  5
100001CA
102
{ACAD_REACTORS
330
100001C9
102
}
330
100001C9
100
AcDbXrecord
1000
KLlF
  0
XRECORD
  5
100001CD
102
{ACAD_REACTORS
330
100001CC
102
}
330
100001CC
100
AcDbXrecord
1000
KLVL
  0
XRECORD
  5
100001D0
102
{ACAD_REACTORS
330
100001CF
102
}
330
100001CF
100
AcDbXrecord
1000
KLFL
  0
XRECORD
  5
100001D3
102
{ACAD_REACTORS
330
100001D2
102
}
330
100001D2
100
AcDbXrecord
1000
KLNL
  0
XRECORD
  5
100001D6
102
{ACAD_REACTORS
330
100001D5
102
}
330
100001D5
100
AcDbXrecord
1000
KL1K
  0
XRECORD
  5
100001D9
102
{ACAD_REACTORS
330
100001D8
102
}
330
100001D8
100
AcDbXrecord
1000
KLFK
  0
XRECORD
  5
100001DC
102
{ACAD_REACTORS
330
100001DB
102
}
330
100001DB
100
AcDbXrecord
1000
KL9J
  0
XRECORD
  5
100001DF
102
{ACAD_REACTORS
330
100001DE
102
}
330
100001DE
100
AcDbXrecord
1000
KLNK
  0
XRECORD
  5
100001E2
102
{ACAD_REACTORS
330
100001E1
102
}
330
100001E1
100
AcDbXrecord
1000
KLdK
  0
XRECORD
  5
100001E5
102
{ACAD_REACTORS
330
100001E4
102
}
330
100001E4
100
AcDbXrecord
1000
KLlI
  0
XRECORD
  5
100001E8
102
{ACAD_REACTORS
330
100001E7
102
}
330
100001E7
100
AcDbXrecord
1000
KL9c
  0
XRECORD
  5
100001EB
102
{ACAD_REACTORS
330
100001EA
102
}
330
100001EA
100
AcDbXrecord
1000
KLdS
  0
XRECORD
  5
100001EE
102
{ACAD_REACTORS
330
100001ED
102
}
330
100001ED
100
AcDbXrecord
1000
KLNg
  0
XRECORD
  5
100001F1
102
{ACAD_REACTORS
330
100001F0
102
}
330
100001F0
100
AcDbXrecord
1000
KL9R
  0
XRECORD
  5
100001F4
102
{ACAD_REACTORS
330
100001F3
102
}
330
100001F3
100
AcDbXrecord
1000
KLtc
  0
XRECORD
  5
100001F7
102
{ACAD_REACTORS
330
100001F6
102
}
330
100001F6
100
AcDbXrecord
1000
KLNI
  0
XRECORD
  5
100001FA
102
{ACAD_REACTORS
330
100001F9
102
}
330
100001F9
100
AcDbXrecord
1000
KLVg
  0
XRECORD
  5
100001FD
102
{ACAD_REACTORS
330
100001FC
102
}
330
100001FC
100
AcDbXrecord
1000
KLtV
  0
XRECORD
  5
10000200
102
{ACAD_REACTORS
330
100001FF
102
}
330
100001FF
100
AcDbXrecord
1000
KL9d
  0
XRECORD
  5
10000203
102
{ACAD_REACTORS
330
10000202
102
}
330
10000202
100
AcDbXrecord
1000
KLNT
  0
XRECORD
  5
10000206
102
{ACAD_REACTORS
330
10000205
102
}
330
10000205
100
AcDbXrecord
1000
KLNf
  0
XRECORD
  5
10000209
102
{ACAD_REACTORS
330
10000208
102
}
330
10000208
100
AcDbXrecord
1000
KLFI
  0
XRECORD
  5
1000020C
102
{ACAD_REACTORS
330
1000020B
102
}
330
1000020B
100
AcDbXrecord
1000
KLFg
  0
XRECORD
  5
1000020F
102
{ACAD_REACTORS
330
1000020E
102
}
330
1000020E
100
AcDbXrecord
1000
KL9T
  0
XRECORD
  5
10000212
102
{ACAD_REACTORS
330
10000211
102
}
330
10000211
100
AcDbXrecord
1000
KLFe
  0
XRECORD
  5
10000215
102
{ACAD_REACTORS
330
10000214
102
}
330
10000214
100
AcDbXrecord
1000
KLdV
  0
XRECORD
  5
10000218
102
{ACAD_REACTORS
330
10000217
102
}
330
10000217
100
AcDbXrecord
1000
KLNd
  0
XRECORD
  5
1000021B
102
{ACAD_REACTORS
330
1000021A
102
}
330
1000021A
100
AcDbXrecord
1000
KLdH
  0
XRECORD
  5
1000021E
102
{ACAD_REACTORS
330
1000021D
102
}
330
1000021D
100
AcDbXrecord
1000
KLFd
  0
XRECORD
  5
10000221
102
{ACAD_REACTORS
330
10000220
102
}
330
10000220
100
AcDbXrecord
1000
KLNV
  0
XRECORD
  5
10000224
102
{ACAD_REACTORS
330
10000223
102
}
330
10000223
100
AcDbXrecord
1000
KLte
  0
XRECORD
  5
10000227
102
{ACAD_REACTORS
330
10000226
102
}
330
10000226
100
AcDbXrecord
1000
KL9U
  0
XRECORD
  5
1000022A
102
{ACAD_REACTORS
330
10000229
102
}
330
10000229
100
AcDbXrecord
1000
KLtf
  0
XRECORD
  5
1000022D
102
{ACAD_REACTORS
330
1000022C
102
}
330
1000022C
100
AcDbXrecord
1000
KL9G
  0
XRECORD
  5
10000230
102
{ACAD_REACTORS
330
1000022F
102
}
330
1000022F
100
AcDbXrecord
1000
KL9Z
  0
XRECORD
  5
10000233
102
{ACAD_REACTORS
330
10000232
102
}
330
10000232
100
AcDbXrecord
1000
KL9P
  0
XRECORD
  5
10000236
102
{ACAD_REACTORS
330
10000235
102
}
330
10000235
100
AcDbXrecord
1000
KLFc
  0
XRECORD
  5
10000239
102
{ACAD_REACTORS
330
10000238
102
}
330
10000238
100
AcDbXrecord
1000
KLNQ
  0
XRECORD
  5
1000023C
102
{ACAD_REACTORS
330
1000023B
102
}
330
1000023B
100
AcDbXrecord
1000
KLFa
  0
XRECORD
  5
1000023F
102
{ACAD_REACTORS
330
1000023E
102
}
330
1000023E
100
AcDbXrecord
1000
KL9F
  0
XRECORD
  5
10000242
102
{ACAD_REACTORS
330
10000241
102
}
330
10000241
100
AcDbXrecord
1000
KL9X
  0
XRECORD
  5
10000245
102
{ACAD_REACTORS
330
10000244
102
}
330
10000244
100
AcDbXrecord
1000
KLdR
  0
XRECORD
  5
10000248
102
{ACAD_REACTORS
330
10000247
102
}
330
10000247
100
AcDbXrecord
1000
KLdc
  0
XRECORD
  5
1000024B
102
{ACAD_REACTORS
330
1000024A
102
}
330
1000024A
100
AcDbXrecord
1000
KLNM
  0
XRECORD
  5
1000024E
102
{ACAD_REACTORS
330
1000024D
102
}
330
1000024D
100
AcDbXrecord
1000
KLFY
  0
XRECORD
  5
10000251
102
{ACAD_REACTORS
330
10000250
102
}
330
10000250
100
AcDbXrecord
1000
KL1F
  0
XRECORD
  5
10000254
102
{ACAD_REACTORS
330
10000253
102
}
330
10000253
100
AcDbXrecord
1000
KLta
  0
XRECORD
  5
10000257
102
{ACAD_REACTORS
330
10000256
102
}
330
10000256
100
AcDbXrecord
1000
KLdL
  0
XRECORD
  5
1000025A
102
{ACAD_REACTORS
330
10000259
102
}
330
10000259
100
AcDbXrecord
1000
KL9h
  0
XRECORD
  5
1000025D
102
{ACAD_REACTORS
330
1000025C
102
}
330
1000025C
100
AcDbXrecord
1000
KLRh
  0
XRECORD
  5
10000260
102
{ACAD_REACTORS
330
1000025F
102
}
330
1000025F
100
AcDbXrecord
1000
KLth
  0
XRECORD
  5
10000263
102
{ACAD_REACTORS
330
10000262
102
}
330
10000262
100
AcDbXrecord
1000
KLFb
  0
XRECORD
  5
10000266
102
{ACAD_REACTORS
330
10000265
102
}
330
10000265
100
AcDbXrecord
1000
KLtF
  0
XRECORD
  5
10000269
102
{ACAD_REACTORS
330
10000268
102
}
330
10000268
100
AcDbXrecord
1000
KL9a
  0
XRECORD
  5
1000026C
102
{ACAD_REACTORS
330
1000026B
102
}
330
1000026B
100
AcDbXrecord
1000
KLtL
  0
XRECORD
  5
1000026F
102
{ACAD_REACTORS
330
1000026E
102
}
330
1000026E
100
AcDbXrecord
1000
KL1a
  0
XRECORD
  5
10000272
102
{ACAD_REACTORS
330
10000271
102
}
330
10000271
100
AcDbXrecord
1000
KL9L
  0
MATERIAL
  5
45
102
{ACAD_REACTORS
330
43
102
}
102
{ACAD_XDICTIONARY
360
100002A4
102
}
330
43
100
AcDbMaterial
  1
BYBLOCK
  0
MATERIAL
  5
44
102
{ACAD_REACTORS
330
43
102
}
102
{ACAD_XDICTIONARY
360
100002A2
102
}
330
43
100
AcDbMaterial
  1
BYLAYER
  0
MATERIAL
  5
46
102
{ACAD_REACTORS
330
43
102
}
102
{ACAD_XDICTIONARY
360
100002A6
102
}
330
43
100
AcDbMaterial
  1
GLOBAL
  0
ACAD_PROXY_OBJECT
  5
6C
102
{ACAD_REACTORS
330
6B
102
}
330
6B
100
AcDbProxyObject
 90
      499
 91
      505
 93
      610
310
40901902A4063FBFFFFFE056BD1B81E855B9FC0AD7A3703D0AD73F4214DD185B99185C9900AD7A3703D0AC73F90141901A02B5E8DC0F42B1CFC02B5E8DC0F42B1CFE5764000000000000300FC0
340
14
340
0
340
11
340
0
 94
        0
1001
ACAD_MLEADERVER
1070
     2
  0
MLINESTYLE
  5
18
102
{ACAD_REACTORS
330
17
102
}
330
17
100
AcDbMlineStyle
  2
Standard
 70
     0
  3

 62
   256
 51
90.0
 52
90.0
 71
     2
 49
0.5
 62
   256
  6
BYLAYER
 49
-0.5
 62
   256
  6
BYLAYER
  0
ACAD_PROXY_OBJECT
  5
10000023
102
{ACAD_REACTORS
330
47
102
}
330
47
100
AcDbProxyObject
 90
      499
 91
      503
 93
      121
310
9053130303A310000000000001650100
  0
ACAD_PROXY_OBJECT
  5
1000001D
102
{ACAD_REACTORS
330
47
102
}
330
47
100
AcDbProxyObject
 90
      499
 91
      503
 93
      113
310
90431303A310000000000000910100
  0
ACAD_PROXY_OBJECT
  5
1000001E
102
{ACAD_REACTORS
330
47
102
}
330
47
100
AcDbProxyObject
 90
      499
 91
      503
 93
      113
310
90431323A310000000000000A10100
  0
ACAD_PROXY_OBJECT
  5
1000001F
102
{ACAD_REACTORS
330
47
102
}
330
47
100
AcDbProxyObject
 90
      499
 91
      503
 93
      113
310
90431363A310000000000000C10100
  0
ACAD_PROXY_OBJECT
  5
10000006
102
{ACAD_REACTORS
330
47
102
}
330
47
100
AcDbProxyObject
 90
      499
 91
      503
 93
       41
310
903313A31500
  0
ACAD_PROXY_OBJECT
  5
1000000D
102
{ACAD_REACTORS
330
47
102
}
330
47
100
AcDbProxyObject
 90
      499
 91
      503
 93
      113
310
904313A31304000000000000244000
  0
ACAD_PROXY_OBJECT
  5
10000016
102
{ACAD_REACTORS
330
47
102
}
330
47
100
AcDbProxyObject
 90
      499
 91
      503
 93
      121
310
905313A3130304000000000000594000
  0
ACAD_PROXY_OBJECT
  5
1000000E
102
{ACAD_REACTORS
330
47
102
}
330
47
100
AcDbProxyObject
 90
      499
 91
      503
 93
      113
310
904313A31324000000000000284000
  0
ACAD_PROXY_OBJECT
  5
1000000F
102
{ACAD_REACTORS
330
47
102
}
330
47
100
AcDbProxyObject
 90
      499
 91
      503
 93
      113
310
904313A31364000000000000304000
  0
ACAD_PROXY_OBJECT
  5
10000007
102
{ACAD_REACTORS
330
47
102
}
330
47
100
AcDbProxyObject
 90
      499
 91
      503
 93
      105
310
903313A324000000000000004000
  0
ACAD_PROXY_OBJECT
  5
10000010
102
{ACAD_REACTORS
330
47
102
}
330
47
100
AcDbProxyObject
 90
      499
 91
      503
 93
      113
310
904313A32304000000000000344000
  0
ACAD_PROXY_OBJECT
  5
10000011
102
{ACAD_REACTORS
330
47
102
}
330
47
100
AcDbProxyObject
 90
      499
 91
      503
 93
      113
310
904313A32354000000000000394000
  0
ACAD_PROXY_OBJECT
  5
10000008
102
{ACAD_REACTORS
330
47
102
}
330
47
100
AcDbProxyObject
 90
      499
 91
      503
 93
      105
310
903313A334000000000000084000
  0
ACAD_PROXY_OBJECT
  5
10000012
102
{ACAD_REACTORS
330
47
102
}
330
47
100
AcDbProxyObject
 90
      499
 91
      503
 93
      113
310
904313A33324000000000000404000
  0
ACAD_PROXY_OBJECT
  5
10000009
102
{ACAD_REACTORS
330
47
102
}
330
47
100
AcDbProxyObject
 90
      499
 91
      503
 93
      105
310
903313A344000000000000104000
  0
ACAD_PROXY_OBJECT
  5
10000013
102
{ACAD_REACTORS
330
47
102
}
330
47
100
AcDbProxyObject
 90
      499
 91
      503
 93
      113
310
904313A34304000000000000444000
  0
ACAD_PROXY_OBJECT
  5
1000000A
102
{ACAD_REACTORS
330
47
102
}
330
47
100
AcDbProxyObject
 90
      499
 91
      503
 93
      105
310
903313A354000000000000144000
  0
ACAD_PROXY_OBJECT
  5
10000014
102
{ACAD_REACTORS
330
47
102
}
330
47
100
AcDbProxyObject
 90
      499
 91
      503
 93
      113
310
904313A35304000000000000494000
  0
ACAD_PROXY_OBJECT
  5
1000000B
102
{ACAD_REACTORS
330
47
102
}
330
47
100
AcDbProxyObject
 90
      499
 91
      503
 93
      105
310
903313A364000000000000184000
  0
ACAD_PROXY_OBJECT
  5
1000000C
102
{ACAD_REACTORS
330
47
102
}
330
47
100
AcDbProxyObject
 90
      499
 91
      503
 93
      105
310
903313A384000000000000204000
  0
ACAD_PROXY_OBJECT
  5
10000015
102
{ACAD_REACTORS
330
47
102
}
330
47
100
AcDbProxyObject
 90
      499
 91
      503
 93
      113
310
904313A38304000000000000544000
  0
ACAD_PROXY_OBJECT
  5
10000020
102
{ACAD_REACTORS
330
47
102
}
330
47
100
AcDbProxyObject
 90
      499
 91
      503
 93
      113
310
90432303A310000000000000D10100
  0
ACAD_PROXY_OBJECT
  5
10000017
102
{ACAD_REACTORS
330
47
102
}
330
47
100
AcDbProxyObject
 90
      499
 91
      503
 93
      105
310
903323A310000000000000010100
  0
ACAD_PROXY_OBJECT
  5
10000021
102
{ACAD_REACTORS
330
47
102
}
330
47
100
AcDbProxyObject
 90
      499
 91
      503
 93
      113
310
90433323A310000000000001010100
  0
ACAD_PROXY_OBJECT
  5
10000018
102
{ACAD_REACTORS
330
47
102
}
330
47
100
AcDbProxyObject
 90
      499
 91
      503
 93
      105
310
903333A310000000000000210100
  0
ACAD_PROXY_OBJECT
  5
10000019
102
{ACAD_REACTORS
330
47
102
}
330
47
100
AcDbProxyObject
 90
      499
 91
      503
 93
      105
310
903343A310000000000000410100
  0
ACAD_PROXY_OBJECT
  5
10000022
102
{ACAD_REACTORS
330
47
102
}
330
47
100
AcDbProxyObject
 90
      499
 91
      503
 93
      113
310
90435303A310000000000001250100
  0
ACAD_PROXY_OBJECT
  5
1000001A
102
{ACAD_REACTORS
330
47
102
}
330
47
100
AcDbProxyObject
 90
      499
 91
      503
 93
      105
310
903353A310000000000000510100
  0
ACAD_PROXY_OBJECT
  5
1000001B
102
{ACAD_REACTORS
330
47
102
}
330
47
100
AcDbProxyObject
 90
      499
 91
      503
 93
      105
310
903363A310000000000000610100
  0
ACAD_PROXY_OBJECT
  5
1000001C
102
{ACAD_REACTORS
330
47
102
}
330
47
100
AcDbProxyObject
 90
      499
 91
      503
 93
      105
310
903383A310000000000000810100
  0
ACAD_PROXY_OBJECT
  5
2F
102
{ACAD_REACTORS
330
2A
102
}
330
2A
100
AcDbProxyObject
 90
      499
 91
      501
 93
      436
310
42CC9915DA5C99599C985B595049028333333333333E33F0000000000000F90107901411070040501600405405064090741402480A0340
1001
ACAD
1000
AcDbSavedByObjectVersion
1070
     0
  0
ACAD_PROXY_OBJECT
  5
32
102
{ACAD_REACTORS
330
2A
102
}
330
2A
100
AcDbProxyObject
 90
      499
 91
      501
 93
      388
310
4150985CDA58D07406404333333333333E33F0000000000000F90107A41107004050150841D405064090741402480A0350
1001
ACAD
1000
AcDbSavedByObjectVersion
1070
     0
  0
ACAD_PROXY_OBJECT
  5
36
102
{ACAD_REACTORS
330
2A
102
}
330
2A
100
AcDbProxyObject
 90
      499
 91
      501
 93
      428
310
42109C9A59DA1D195B90C409028333333333333E33F0000000000000F9010790141107004050150841D405064090741402480A029950
1001
ACAD
1000
AcDbSavedByObjectVersion
1070
     0
  0
ACAD_PROXY_OBJECT
  5
3A
102
{ACAD_REACTORS
330
2A
102
}
330
2A
100
AcDbProxyObject
 90
      499
 91
      501
 93
      452
310
42D0DBDB1BDC90DA185B99D95104090240C333333333333E33F0000000000000F90108901411070040501508421405064090741402480A0350
1001
ACAD
1000
AcDbSavedByObjectVersion
1070
     0
  0
ACAD_PROXY_OBJECT
  5
34
102
{ACAD_REACTORS
330
2A
102
}
330
2A
100
AcDbProxyObject
 90
      499
 91
      501
 93
      500
310
4290DBDB98D95C1D1D585B10940D028333333333333E33F0000000000000F90107902409070040501000000000018199010841D405064090740C02480A0340
1001
ACAD
1000
AcDbSavedByObjectVersion
1070
     0
  0
ACAD_PROXY_OBJECT
  5
35
102
{ACAD_REACTORS
330
2A
102
}
330
2A
100
AcDbProxyObject
 90
      499
 91
      501
 93
      412
310
40D11A5B50B409028333333333333E33F0000000000000F9010790141107004050150841D405064090741402480A02677FFFFFD0
1001
ACAD
1000
AcDbSavedByObjectVersion
1070
     0
  0
ACAD_PROXY_OBJECT
  5
3D
102
{ACAD_REACTORS
330
2A
102
}
330
2A
100
AcDbProxyObject
 90
      499
 91
      501
 93
      452
310
43115919D950DBDB1BDC93D999916409028333333333333E33F0000000000000F9010790141107004050150841D405064090741402480A0350
1001
ACAD
1000
AcDbSavedByObjectVersion
1070
     0
  0
ACAD_PROXY_OBJECT
  5
39
102
{ACAD_REACTORS
330
2A
102
}
330
2A
100
AcDbProxyObject
 90
      499
 91
      501
 93
      444
310
42D19858D95C185D1D195C9B90F409028333333333333E33F0000000000000F9010790141107004050150841D405064090741402480A0350
1001
ACAD
1000
AcDbSavedByObjectVersion
1070
     0
  0
ACAD_PROXY_OBJECT
  5
2B
102
{ACAD_REACTORS
330
2A
102
}
330
2A
100
AcDbProxyObject
 90
      499
 91
      501
 93
      380
310
41119B185D240901404333333333333E33F0000000000000F9010740A907004050150841D405064090741402480A1B50
1001
ACAD
1000
AcDbSavedByObjectVersion
1070
     0
  0
ACAD_PROXY_OBJECT
  5
2C
102
{ACAD_REACTORS
330
2A
102
}
330
2A
100
AcDbProxyObject
 90
      499
 91
      501
 93
      468
310
43519B185D15DA5D1A115919D95CD0140901404333333333333E33F0000000000000F90107409019070040501600405405064090741402480A1B50
1001
ACAD
1000
AcDbSavedByObjectVersion
1070
     0
  0
ACAD_PROXY_OBJECT
  5
2D
102
{ACAD_REACTORS
330
2A
102
}
330
2A
100
AcDbProxyObject
 90
      499
 91
      501
 93
      404
310
41D1DBDD5C985D5910240902404333333333333E33F0000000000000F9010740A9070040501641D405064090741402480A1B50
1001
ACAD
1000
AcDbSavedByObjectVersion
1070
     0
  0
ACAD_PROXY_OBJECT
  5
2E
102
{ACAD_REACTORS
330
2A
102
}
330
2A
100
AcDbProxyObject
 90
      499
 91
      501
 93
      492
310
4411DBDD5C985D5915DA5D1A115919D95CD0340902404333333333333E33F0000000000000F90107409019070040501600405405064090741402480A1B50
1001
ACAD
1000
AcDbSavedByObjectVersion
1070
     0
  0
ACAD_PROXY_OBJECT
  5
31
102
{ACAD_REACTORS
330
2A
102
}
330
2A
100
AcDbProxyObject
 90
      499
 91
      501
 93
      476
310
41921A5919195B90640502408333333333333E33F0000000000000F901079024090700405020000000000001110200405405064090740C02480A0340
1001
ACAD
1000
AcDbSavedByObjectVersion
1070
     0
  0
ACAD_PROXY_OBJECT
  5
3B
102
{ACAD_REACTORS
330
2A
102
}
330
2A
100
AcDbProxyObject
 90
      499
 91
      501
 93
      428
310
42529A5D1D195C93D999914409028333333333333E33F0000000000000F9010790141107004050150A41D405064090741402480A0350
1001
ACAD
1000
AcDbSavedByObjectVersion
1070
     0
  0
ACAD_PROXY_OBJECT
  5
38
102
{ACAD_REACTORS
330
2A
102
}
330
2A
100
AcDbProxyObject
 90
      499
 91
      501
 93
      444
310
42D31A5B995C185D1D195C9B90E409028333333333333E33F0000000000000F9010790141107004050750841D405064090741402483A0350
1001
ACAD
1000
AcDbSavedByObjectVersion
1070
     0
  0
ACAD_PROXY_OBJECT
  5
3C
102
{ACAD_REACTORS
330
2A
102
}
330
2A
100
AcDbProxyObject
 90
      499
 91
      501
 93
      444
310
42D3DD995C9A185B99D3D999915409028333333333333E33F0000000000000F9010790141107004050150941D405064090741402480A0350
1001
ACAD
1000
AcDbSavedByObjectVersion
1070
     0
  0
ACAD_PROXY_OBJECT
  5
33
102
{ACAD_REACTORS
330
2A
102
}
330
2A
100
AcDbProxyObject
 90
      499
 91
      501
 93
      428
310
425499585B1A5CDD1A58D08409038333333333333E33F0000000000000F9010740A907004050150800405405064090740C02480A1B40
1001
ACAD
1000
AcDbSavedByObjectVersion
1070
     0
  0
ACAD_PROXY_OBJECT
  5
42
102
{ACAD_REACTORS
330
2A
102
}
330
2A
100
AcDbProxyObject
 90
      499
 91
      501
 93
      420
310
4194DA1859195911B40902404333333333333E33F0000000000000F9010740A41107004050150800405405064090840C02480A0B40
1001
ACAD
1000
AcDbSavedByObjectVersion
1070
     0
  0
ACAD_PROXY_OBJECT
  5
41
102
{ACAD_REACTORS
330
2A
102
}
330
2A
100
AcDbProxyObject
 90
      499
 91
      501
 93
      516
310
4454DA18591959081DDA5D1A08195919D95CD1A40902404333333333333E33F0000000000000F901074090142907004050250800405405064090740C02480A0B40
1001
ACAD
1000
AcDbSavedByObjectVersion
1070
     0
  0
ACAD_PROXY_OBJECT
  5
3E
102
{ACAD_REACTORS
330
2A
102
}
330
2A
100
AcDbProxyObject
 90
      499
 91
      501
 93
      532
310
4394DA1859195CC81BD98811DC985E5174090240C333333333333E33F0000000000000F901079024090741D01000000000000111010841D405064090740C02480A0340
1001
ACAD
1000
AcDbSavedByObjectVersion
1070
     0
  0
ACAD_PROXY_OBJECT
  5
3F
102
{ACAD_REACTORS
330
2A
102
}
330
2A
100
AcDbProxyObject
 90
      499
 91
      501
 93
      476
310
41D4DAD95D18DA1E51840502408333333333333E33F0000000000000F901079024090741D01000000000000111010B41D405064090741802480A0340
1001
ACAD
1000
AcDbSavedByObjectVersion
1070
     0
  0
ACAD_PROXY_OBJECT
  5
37
102
{ACAD_REACTORS
330
2A
102
}
330
2A
100
AcDbProxyObject
 90
      499
 91
      501
 93
      412
310
41D51A1A58DAD95B90D409028333333333333E33F0000000000000F9010790141107004050150C41D405064090741402480A0350
1001
ACAD
1000
AcDbSavedByObjectVersion
1070
     0
  0
ACAD_PROXY_OBJECT
  5
30
102
{ACAD_REACTORS
330
2A
102
}
330
2A
100
AcDbProxyObject
 90
      499
 91
      501
 93
      420
310
4255DA5C99599C985B595059028333333333333E33F0000000000000F90107901411070040501600405405064090740C02480A0340
1001
ACAD
1000
AcDbSavedByObjectVersion
1070
     0
  0
ACAD_PROXY_OBJECT
  5
40
102
{ACAD_REACTORS
330
2A
102
}
330
2A
100
AcDbProxyObject
 90
      499
 91
      501
 93
      404
310
41560B54985E51940902404000000000000E03F0000000000000F9010740501907004050150841D405064090740C02480A1B40
1001
ACAD
1000
AcDbSavedByObjectVersion
1070
     0
  0
XRECORD
  5
1000027F
102
{ACAD_REACTORS
330
10000275
102
}
330
10000275
100
AcDbXrecord
340
0
  0
XRECORD
  5
1000027E
102
{ACAD_REACTORS
330
10000275
102
}
330
10000275
100
AcDbXrecord
 90
        0
  0
XRECORD
  5
10000295
102
{ACAD_REACTORS
330
10000275
102
}
330
10000275
100
AcDbXrecord
1000
DSTYLE
1002
{
1070
   340
340
11
1002
}
  0
XRECORD
  5
10000280
102
{ACAD_REACTORS
330
10000275
102
}
330
10000275
100
AcDbXrecord
  1
{72326432-7364-b979-3961-797176787161}
  0
XRECORD
  5
10000278
102
{ACAD_REACTORS
330
10000275
102
}
330
10000275
100
AcDbXrecord
  1

  0
XRECORD
  5
1000027D
102
{ACAD_REACTORS
330
10000275
102
}
330
10000275
100
AcDbXrecord
 90
        1
  0
XRECORD
  5
1000027A
102
{ACAD_REACTORS
330
10000275
102
}
330
10000275
100
AcDbXrecord
340
1A
  0
XRECORD
  5
1000027C
102
{ACAD_REACTORS
330
10000275
102
}
330
10000275
100
AcDbXrecord
 90
    10781
  0
XRECORD
  5
1000027B
102
{ACAD_REACTORS
330
10000275
102
}
330
10000275
100
AcDbXrecord
340
19
  0
XRECORD
  5
10000282
102
{ACAD_REACTORS
330
10000275
102
}
330
10000275
100
AcDbXrecord
 40
0.0
  0
XRECORD
  5
10000285
102
{ACAD_REACTORS
330
10000275
102
}
330
10000275
100
AcDbXrecord
340
0
  0
XRECORD
  5
1000028B
102
{ACAD_REACTORS
330
10000275
102
}
330
10000275
100
AcDbXrecord
 10
0.0
 20
0.0
 30
0.0
  0
XRECORD
  5
10000287
102
{ACAD_REACTORS
330
10000275
102
}
330
10000275
100
AcDbXrecord
 10
0.0
 20
0.0
 30
0.0
  0
XRECORD
  5
1000028A
102
{ACAD_REACTORS
330
10000275
102
}
330
10000275
100
AcDbXrecord
 10
0.0
 20
0.0
 30
0.0
  0
XRECORD
  5
10000288
102
{ACAD_REACTORS
330
10000275
102
}
330
10000275
100
AcDbXrecord
 10
0.0
 20
0.0
 30
0.0
  0
XRECORD
  5
10000289
102
{ACAD_REACTORS
330
10000275
102
}
330
10000275
100
AcDbXrecord
 10
0.0
 20
0.0
 30
0.0
  0
XRECORD
  5
10000286
102
{ACAD_REACTORS
330
10000275
102
}
330
10000275
100
AcDbXrecord
 10
0.0
 20
0.0
 30
0.0
  0
XRECORD
  5
10000283
102
{ACAD_REACTORS
330
10000275
102
}
330
10000275
100
AcDbXrecord
340
0
  0
XRECORD
  5
10000284
102
{ACAD_REACTORS
330
10000275
102
}
330
10000275
100
AcDbXrecord
 70
     0
  0
XRECORD
  5
10000279
102
{ACAD_REACTORS
330
10000275
102
}
330
10000275
100
AcDbXrecord
  1

  0
XRECORD
  5
10000276
102
{ACAD_REACTORS
330
10000275
102
}
330
10000275
100
AcDbXrecord
 90
        1
  0
XRECORD
  5
10000277
102
{ACAD_REACTORS
330
10000275
102
}
330
10000275
100
AcDbXrecord
 90
       70
  0
XRECORD
  5
1000028E
102
{ACAD_REACTORS
330
10000275
102
}
330
10000275
100
AcDbXrecord
340
0
  0
XRECORD
  5
10000294
102
{ACAD_REACTORS
330
10000275
102
}
330
10000275
100
AcDbXrecord
 10
0.0
 20
0.0
 30
0.0
  0
XRECORD
  5
10000290
102
{ACAD_REACTORS
330
10000275
102
}
330
10000275
100
AcDbXrecord
 10
0.0
 20
0.0
 30
0.0
  0
XRECORD
  5
10000293
102
{ACAD_REACTORS
330
10000275
102
}
330
10000275
100
AcDbXrecord
 10
0.0
 20
0.0
 30
0.0
  0
XRECORD
  5
10000291
102
{ACAD_REACTORS
330
10000275
102
}
330
10000275
100
AcDbXrecord
 10
0.0
 20
0.0
 30
0.0
  0
XRECORD
  5
10000292
102
{ACAD_REACTORS
330
10000275
102
}
330
10000275
100
AcDbXrecord
 10
0.0
 20
0.0
 30
0.0
  0
XRECORD
  5
1000028F
102
{ACAD_REACTORS
330
10000275
102
}
330
10000275
100
AcDbXrecord
 10
0.0
 20
0.0
 30
0.0
  0
XRECORD
  5
1000028C
102
{ACAD_REACTORS
330
10000275
102
}
330
10000275
100
AcDbXrecord
340
0
  0
XRECORD
  5
1000028D
102
{ACAD_REACTORS
330
10000275
102
}
330
10000275
100
AcDbXrecord
 70
     0
  0
XRECORD
  5
10000281
102
{ACAD_REACTORS
330
10000275
102
}
330
10000275
100
AcDbXrecord
  1
{FAEB1C32-E019-11D5-929B-00C0DF256EC4}
  0
DICTIONARYVAR
  5
100002A0
102
{ACAD_REACTORS
330
10000296
102
}
330
10000296
100
DictionaryVariables
280
     0
  1
1:1
  0
DICTIONARYVAR
  5
10000298
102
{ACAD_REACTORS
330
10000296
102
}
330
10000296
100
DictionaryVariables
280
     0
  1
Standard
  0
DICTIONARYVAR
  5
10000297
102
{ACAD_REACTORS
330
10000296
102
}
330
10000296
100
DictionaryVariables
280
     0
  1
Standard
  0
DICTIONARYVAR
  5
1000029B
102
{ACAD_REACTORS
330
10000296
102
}
330
10000296
100
DictionaryVariables
280
     0
  1
2
  0
DICTIONARYVAR
  5
1000029C
102
{ACAD_REACTORS
330
10000296
102
}
330
10000296
100
DictionaryVariables
280
     0
  1
1
  0
DICTIONARYVAR
  5
100002A1
102
{ACAD_REACTORS
330
10000296
102
}
330
10000296
100
DictionaryVariables
280
     0
  1
1
  0
XRECORD
  5
10000003
102
{ACAD_REACTORS
330
10000001
102
}
330
10000001
100
AcDbXrecord
 70
     1
  0
XRECORD
  5
10000002
102
{ACAD_REACTORS
330
10000001
102
}
330
10000001
100
AcDbXrecord
1040
89.0
  0
ACAD_PROXY_OBJECT
  5
10000005
102
{ACAD_REACTORS
330
10000001
102
}
330
10000001
100
AcDbProxyObject
 90
      499
 91
      509
 93
       34
310
40C8804000
  0
DICTIONARY
  5
100002A4
330
45
100
AcDbDictionary
280
     1
  3
ACAD_XREC_ROUNDTRIP
360
100002A5
  0
DICTIONARY
  5
100002A2
330
44
100
AcDbDictionary
280
     1
  3
ACAD_XREC_ROUNDTRIP
360
100002A3
  0
DICTIONARY
  5
100002A6
330
46
100
AcDbDictionary
280
     1
  3
ACAD_XREC_ROUNDTRIP
360
100002A7
  0
XRECORD
  5
100002A5
102
{ACAD_REACTORS
330
100002A4
102
}
330
100002A4
100
AcDbXrecord
102
MATERIAL
148
0.0
149
0.0
149
0.0
 93
        0
 94
      127
282
     0
 72
     1
 77
     1
171
     1
175
     1
179
     1
273
     0
  0
XRECORD
  5
100002A3
102
{ACAD_REACTORS
330
100002A2
102
}
330
100002A2
100
AcDbXrecord
102
MATERIAL
148
0.0
149
0.0
149
0.0
 93
        0
 94
      127
282
     0
 72
     1
 77
     1
171
     1
175
     1
179
     1
273
     0
  0
XRECORD
  5
100002A7
102
{ACAD_REACTORS
330
100002A6
102
}
330
100002A6
100
AcDbXrecord
102
MATERIAL
148
0.0
149
0.0
149
0.0
 93
        0
 94
      127
282
     0
 72
     1
 77
     1
171
     1
175
     1
179
     1
273
     0
  0
ENDSEC
  0
EOF
